<svg width="48" height="48" viewBox="0 0 48 48" fill="none" xmlns="http://www.w3.org/2000/svg">
<rect width="48" height="48" rx="24" fill="#E7F7EF"/>
<path d="M24 14.25C22.0716 14.25 20.1866 14.8218 18.5832 15.8932C16.9798 16.9645 15.7301 18.4873 14.9922 20.2688C14.2542 22.0504 14.0611 24.0108 14.4373 25.9021C14.8136 27.7934 15.7422 29.5307 17.1057 30.8943C18.4693 32.2579 20.2066 33.1865 22.0979 33.5627C23.9892 33.9389 25.9496 33.7458 27.7312 33.0078C29.5127 32.2699 31.0355 31.0202 32.1068 29.4168C33.1782 27.8134 33.75 25.9284 33.75 24C33.747 21.4151 32.7188 18.9368 30.891 17.109C29.0632 15.2812 26.5849 14.253 24 14.25ZM28.6436 22.2927L23.1431 27.5427C23.0032 27.6758 22.8176 27.75 22.6245 27.75C22.4315 27.75 22.2458 27.6758 22.106 27.5427L19.3564 24.9177C19.2128 24.7801 19.1296 24.5911 19.1252 24.3923C19.1208 24.1934 19.1956 24.0009 19.333 23.8571C19.4704 23.7133 19.6593 23.6299 19.8581 23.6252C20.057 23.6206 20.2496 23.695 20.3936 23.8323L22.6245 25.9629L27.6064 21.2073C27.7504 21.07 27.943 20.9956 28.1419 21.0002C28.3407 21.0049 28.5296 21.0883 28.667 21.2321C28.8045 21.3759 28.8792 21.5684 28.8748 21.7673C28.8704 21.9661 28.7872 22.1551 28.6436 22.2927Z" fill="#0FAF62"/>
</svg>
