<svg width="48" height="48" viewBox="0 0 48 48" fill="none" xmlns="http://www.w3.org/2000/svg">
<path d="M42.9979 11.4959L44.1257 8.73108C44.1257 8.73108 42.7069 7.20314 40.9607 5.45693C39.2145 3.71071 35.5401 4.72934 35.5401 4.72934L31.3565 0H16.6591L12.4391 4.76572C12.4391 4.76572 8.76477 3.74709 7.01856 5.49331C5.27234 7.23952 3.85354 8.76746 3.85354 8.76746L4.9813 11.5323L3.5625 15.6068C3.5625 15.6068 7.78253 31.541 8.25546 33.5055C9.23771 37.3254 9.89254 38.8169 12.6574 40.7814C15.4222 42.7459 20.4062 46.0928 21.243 46.6022C22.0433 47.1115 23.0983 47.9846 24.0078 47.9846C24.9173 47.9846 25.9359 47.1115 26.7726 46.6022C27.573 46.0928 32.5934 42.7095 35.3582 40.7814C38.1231 38.8533 38.7779 37.3618 39.7601 33.5055C40.2695 31.541 44.4531 15.6068 44.4531 15.6068L42.9979 11.4959Z" fill="url(#paint0_linear_734_5086)"/>
<path d="M34.376 7.78519C34.376 7.78519 39.7602 14.2971 39.7602 15.7159C39.7602 17.1347 39.0689 17.4621 38.3777 18.1897C37.6865 18.9173 34.7034 22.0823 34.3396 22.4825C33.9394 22.8827 33.1755 23.5011 33.612 24.6289C34.085 25.7203 34.7762 27.1391 34.0122 28.5943C33.2482 30.0131 31.9386 30.9953 31.1018 30.8134C30.2651 30.6679 28.2642 29.6129 27.5366 29.14C26.8091 28.667 24.5171 26.7753 24.5171 26.0477C24.5171 25.3201 26.9182 24.0105 27.3547 23.7194C27.7913 23.4284 29.7922 22.2642 29.8286 21.8277C29.8649 21.3911 29.8649 21.2456 29.2465 20.1179C28.6644 18.9901 27.573 17.4985 27.7549 16.5163C27.9368 15.534 29.6467 15.0247 30.8836 14.5518C32.1205 14.0788 34.4851 13.2057 34.7762 13.0602C35.0672 12.9147 34.9944 12.8056 34.085 12.6964C33.1755 12.6237 30.6653 12.2599 29.5011 12.5873C28.337 12.9147 26.4089 13.3876 26.227 13.6423C26.0815 13.897 25.9359 13.897 26.0815 14.8064C26.227 15.6795 27.1001 19.9723 27.1728 20.7363C27.2456 21.5003 27.4275 22.0096 26.5908 22.1915C25.7904 22.3734 24.408 22.7008 23.9351 22.7008C23.4621 22.7008 22.0797 22.3734 21.2794 22.1915C20.479 22.0096 20.6245 21.5003 20.6973 20.7363C20.7701 19.9723 21.6068 15.7159 21.7887 14.8064C21.9342 13.9333 21.8251 13.897 21.6432 13.6423C21.4976 13.3876 19.5331 12.9147 18.369 12.5873C17.2049 12.2599 14.6947 12.5873 13.7852 12.6964C12.8757 12.7692 12.8029 12.9147 13.094 13.0602C13.385 13.2057 15.7497 14.0788 16.9866 14.5518C18.2235 15.0247 19.9333 15.534 20.1152 16.5163C20.2971 17.4985 19.2421 18.9901 18.6237 20.1179C18.0416 21.2456 18.0052 21.3548 18.0416 21.8277C18.078 22.2642 20.0788 23.4284 20.5154 23.7194C20.952 24.0105 23.353 25.3201 23.353 26.0477C23.353 26.7753 21.0611 28.667 20.3335 29.14C19.6059 29.6129 17.6414 30.6315 16.7683 30.8134C15.9316 30.959 14.6219 30.0131 13.8579 28.5943C13.094 27.1755 13.7852 25.7567 14.2581 24.6289C14.7311 23.5375 13.9307 22.9191 13.5305 22.4825C13.1304 22.0823 10.1836 18.9173 9.4924 18.1897C8.80119 17.4621 8.14636 17.0984 8.14636 15.7159C8.14636 14.3335 13.5305 7.78519 13.5305 7.78519C13.5305 7.78519 18.078 8.6583 18.6964 8.6583C19.3149 8.6583 20.6245 8.14898 21.8614 7.74881C23.0983 7.34863 23.8987 7.34863 23.8987 7.34863C23.8987 7.34863 24.699 7.34863 25.9359 7.74881C27.1728 8.14898 28.4825 8.6583 29.101 8.6583C29.7194 8.6583 34.376 7.78519 34.376 7.78519ZM30.3379 32.7052C30.6653 32.9235 30.4834 33.3236 30.156 33.5055C29.8649 33.7238 25.754 36.8888 25.3902 37.2526C24.9901 37.6164 24.408 38.1621 24.0078 38.1621C23.6077 38.1621 23.0256 37.58 22.6254 37.2526C22.2252 36.8888 18.1507 33.7238 17.8597 33.5055C17.5687 33.2872 17.3504 32.8871 17.6778 32.7052C18.0052 32.4869 19.0602 31.9776 20.479 31.2136C21.9342 30.4496 23.7168 29.8312 24.0078 29.8312C24.2989 29.8312 26.0815 30.4496 27.5366 31.2136C28.9554 31.9776 30.0104 32.5233 30.3379 32.7052Z" fill="white"/>
<path d="M35.5401 4.76572L31.3564 0H16.6591L12.4391 4.76572C12.4391 4.76572 8.76477 3.74709 7.01855 5.49331C7.01855 5.49331 11.9298 5.05675 13.6032 7.78521C13.6032 7.78521 18.1507 8.65832 18.7691 8.65832C19.3876 8.65832 20.6972 8.14901 21.9341 7.74884C23.171 7.34866 23.9714 7.34866 23.9714 7.34866C23.9714 7.34866 24.7717 7.34866 26.0086 7.74884C27.2455 8.14901 28.5552 8.65832 29.1737 8.65832C29.7921 8.65832 34.3395 7.78521 34.3395 7.78521C36.013 5.05675 40.9242 5.49331 40.9242 5.49331C39.2144 3.74709 35.5401 4.76572 35.5401 4.76572Z" fill="url(#paint1_linear_734_5086)"/>
<defs>
<linearGradient id="paint0_linear_734_5086" x1="3.58645" y1="23.9816" x2="44.4451" y2="23.9816" gradientUnits="userSpaceOnUse">
<stop stop-color="#FF5500"/>
<stop offset="0.41" stop-color="#FF5500"/>
<stop offset="0.582" stop-color="#FF2000"/>
<stop offset="1" stop-color="#FF2000"/>
</linearGradient>
<linearGradient id="paint1_linear_734_5086" x1="7.77629" y1="4.31443" x2="40.9768" y2="4.31443" gradientUnits="userSpaceOnUse">
<stop stop-color="#FF452A"/>
<stop offset="1" stop-color="#FF2000"/>
</linearGradient>
</defs>
</svg>
