<svg width="28" height="26" viewBox="0 0 28 26" fill="none" xmlns="http://www.w3.org/2000/svg">
<path d="M10.5005 23.1998C10.6983 23.3764 10.9981 23.1839 10.9239 22.9294L7.5646 11.4118C7.50205 11.1973 7.31244 11.0447 7.08963 11.0283C6.54597 10.9884 6.00257 10.9438 5.45949 10.8944L0.965594 10.4858C0.755792 10.4668 0.608114 10.6868 0.707442 10.8726C3.1382 15.419 6.63847 19.751 10.5005 23.1998Z" fill="white"/>
<path d="M13.7962 25.6345C13.8233 25.7274 13.9032 25.7973 14 25.7973C14.0968 25.7973 14.1768 25.7274 14.2039 25.6345L18.3157 11.5367C18.367 11.361 18.23 11.1871 18.0472 11.1949C15.3503 11.3107 12.6498 11.3107 9.9529 11.1949C9.77006 11.1871 9.63313 11.361 9.68437 11.5367L13.7962 25.6345Z" fill="white"/>
<path d="M17.0762 22.9294C17.0019 23.1839 17.3018 23.3764 17.4996 23.1998C21.3616 19.751 24.8619 15.419 27.2926 10.8726C27.392 10.6868 27.2443 10.4668 27.0345 10.4858L22.5406 10.8944C21.9975 10.9438 21.4541 10.9884 20.9105 11.0283C20.6877 11.0447 20.498 11.1973 20.4355 11.4118L17.0762 22.9294Z" fill="white"/>
<path d="M27.068 8.47455C27.2712 8.45608 27.3792 8.22555 27.2634 8.05758L22.9463 1.79786C22.573 1.25655 21.9575 0.933329 21.2999 0.933329H17.9804C17.7909 0.933329 17.6619 1.12543 17.7335 1.30086L20.7425 8.66535C20.83 8.87942 21.0454 9.01289 21.276 8.99467C21.6373 8.96611 21.9985 8.93542 22.3595 8.90259L27.068 8.47455Z" fill="white"/>
<path d="M15.5535 1.26153C15.4706 1.06279 15.2765 0.933329 15.0611 0.933329H12.9389C12.7236 0.933329 12.5294 1.06279 12.4466 1.26153L9.30323 8.8057C9.23234 8.97585 9.35133 9.16487 9.53544 9.17379C12.5101 9.31779 15.49 9.31779 18.4646 9.17379C18.6488 9.16487 18.7678 8.97585 18.6969 8.80569L15.5535 1.26153Z" fill="white"/>
<path d="M10.2666 1.30086C10.3382 1.12544 10.2092 0.933329 10.0197 0.933329H6.70017C6.04261 0.933329 5.42706 1.25655 5.05374 1.79786L0.736694 8.05758C0.620856 8.22555 0.728876 8.45608 0.932075 8.47455L5.64056 8.90259C6.00161 8.93542 6.3628 8.96611 6.72412 8.99467C6.95464 9.01289 7.1701 8.87942 7.25756 8.66536L10.2666 1.30086Z" fill="white"/>
</svg>
