<svg width="32" height="32" viewBox="0 0 32 32" fill="none" xmlns="http://www.w3.org/2000/svg">
    <path
        d="M12.5005 27.1998C12.6983 27.3764 12.9981 27.184 12.9239 26.9294L9.5646 15.4118C9.50205 15.1973 9.31244 15.0447 9.08963 15.0284C8.54597 14.9884 8.00257 14.9438 7.45949 14.8944L2.96559 14.4859C2.75579 14.4668 2.60811 14.6868 2.70744 14.8726C5.1382 19.419 8.63847 23.7511 12.5005 27.1998Z"
        fill="#005CE8" />
    <path
        d="M15.7962 29.6345C15.8233 29.7274 15.9032 29.7974 16 29.7974C16.0968 29.7974 16.1768 29.7274 16.2039 29.6345L20.3157 15.5367C20.367 15.361 20.23 15.1871 20.0472 15.195C17.3503 15.3108 14.6498 15.3108 11.9529 15.195C11.7701 15.1871 11.6331 15.361 11.6844 15.5367L15.7962 29.6345Z"
        fill="#005CE8" />
    <path
        d="M19.0762 26.9294C19.0019 27.1839 19.3018 27.3764 19.4996 27.1998C23.3616 23.751 26.8619 19.419 29.2926 14.8726C29.392 14.6868 29.2443 14.4668 29.0345 14.4859L24.5406 14.8944C23.9975 14.9438 23.4541 14.9884 22.9105 15.0284C22.6877 15.0447 22.498 15.1973 22.4355 15.4118L19.0762 26.9294Z"
        fill="#005CE8" />
    <path
        d="M29.068 12.4746C29.2712 12.4561 29.3792 12.2256 29.2634 12.0576L24.9463 5.79788C24.573 5.25657 23.9575 4.93335 23.2999 4.93335H19.9804C19.7909 4.93335 19.6619 5.12546 19.7335 5.30088L22.7425 12.6654C22.83 12.8794 23.0454 13.0129 23.276 12.9947C23.6373 12.9661 23.9985 12.9354 24.3595 12.9026L29.068 12.4746Z"
        fill="#005CE8" />
    <path
        d="M17.5535 5.26155C17.4706 5.06281 17.2765 4.93335 17.0611 4.93335H14.9389C14.7236 4.93335 14.5294 5.06281 14.4466 5.26156L11.3032 12.8057C11.2323 12.9759 11.3513 13.1649 11.5354 13.1738C14.5101 13.3178 17.49 13.3178 20.4646 13.1738C20.6488 13.1649 20.7678 12.9759 20.6969 12.8057L17.5535 5.26155Z"
        fill="#005CE8" />
    <path
        d="M12.2666 5.30088C12.3382 5.12546 12.2092 4.93335 12.0197 4.93335H8.70017C8.04261 4.93335 7.42706 5.25657 7.05374 5.79788L2.73669 12.0576C2.62086 12.2256 2.72888 12.4561 2.93207 12.4746L7.64056 12.9026C8.00161 12.9354 8.3628 12.9661 8.72412 12.9947C8.95464 13.0129 9.1701 12.8794 9.25756 12.6654L12.2666 5.30088Z"
        fill="#005CE8" />
</svg>
