<svg width="104" height="32" viewBox="0 0 104 32" fill="none" xmlns="http://www.w3.org/2000/svg">
    <path
        d="M12.5005 27.1998C12.6983 27.3764 12.9981 27.184 12.9239 26.9294L9.5646 15.4118C9.50205 15.1973 9.31244 15.0447 9.08963 15.0284C8.54597 14.9884 8.00257 14.9438 7.45949 14.8944L2.96559 14.4859C2.75579 14.4668 2.60811 14.6868 2.70744 14.8726C5.1382 19.419 8.63847 23.7511 12.5005 27.1998Z"
        fill="#005CE8" />
    <path
        d="M15.7962 29.6345C15.8233 29.7274 15.9032 29.7974 16 29.7974C16.0968 29.7974 16.1768 29.7274 16.2039 29.6345L20.3157 15.5367C20.367 15.361 20.23 15.1871 20.0472 15.195C17.3503 15.3108 14.6498 15.3108 11.9529 15.195C11.7701 15.1871 11.6331 15.361 11.6844 15.5367L15.7962 29.6345Z"
        fill="#005CE8" />
    <path
        d="M19.0762 26.9294C19.0019 27.1839 19.3018 27.3764 19.4996 27.1998C23.3616 23.751 26.8619 19.419 29.2926 14.8726C29.392 14.6868 29.2443 14.4668 29.0345 14.4859L24.5406 14.8944C23.9975 14.9438 23.4541 14.9884 22.9105 15.0284C22.6877 15.0447 22.498 15.1973 22.4355 15.4118L19.0762 26.9294Z"
        fill="#005CE8" />
    <path
        d="M29.068 12.4746C29.2712 12.4561 29.3792 12.2256 29.2634 12.0576L24.9463 5.79788C24.573 5.25657 23.9575 4.93335 23.2999 4.93335H19.9804C19.7909 4.93335 19.6619 5.12546 19.7335 5.30088L22.7425 12.6654C22.83 12.8794 23.0454 13.0129 23.276 12.9947C23.6373 12.9661 23.9985 12.9354 24.3595 12.9026L29.068 12.4746Z"
        fill="#005CE8" />
    <path
        d="M17.5535 5.26155C17.4706 5.06281 17.2765 4.93335 17.0611 4.93335H14.9389C14.7236 4.93335 14.5294 5.06281 14.4466 5.26156L11.3032 12.8057C11.2323 12.9759 11.3513 13.1649 11.5354 13.1738C14.5101 13.3178 17.49 13.3178 20.4646 13.1738C20.6488 13.1649 20.7678 12.9759 20.6969 12.8057L17.5535 5.26155Z"
        fill="#005CE8" />
    <path
        d="M12.2666 5.30088C12.3382 5.12546 12.2092 4.93335 12.0197 4.93335H8.70017C8.04261 4.93335 7.42706 5.25657 7.05374 5.79788L2.73669 12.0576C2.62086 12.2256 2.72888 12.4561 2.93207 12.4746L7.64056 12.9026C8.00161 12.9354 8.3628 12.9661 8.72412 12.9947C8.95464 13.0129 9.1701 12.8794 9.25756 12.6654L12.2666 5.30088Z"
        fill="#005CE8" />
    <path
        d="M53.084 25H50.036L47.048 17.956H43.016V25H40.1V7.648H47.144C48.472 7.648 49.564 7.856 50.42 8.272C51.284 8.68 51.924 9.26 52.34 10.012C52.756 10.756 52.964 11.628 52.964 12.628C52.964 13.556 52.812 14.336 52.508 14.968C52.204 15.592 51.808 16.104 51.32 16.504C50.84 16.896 50.324 17.216 49.772 17.464L53.084 25ZM46.484 15.64C47.588 15.64 48.448 15.384 49.064 14.872C49.688 14.36 50 13.648 50 12.736C50 11.84 49.712 11.148 49.136 10.66C48.56 10.172 47.8 9.928 46.856 9.928H43.016V15.64H46.484ZM59.4142 25.24C58.6222 25.24 57.9102 25.096 57.2782 24.808C56.6542 24.512 56.1622 24.092 55.8022 23.548C55.4502 22.996 55.2742 22.328 55.2742 21.544C55.2742 20.176 55.7662 19.144 56.7502 18.448C57.7422 17.752 59.3222 17.388 61.4902 17.356L63.3382 17.308V16.468C63.3382 15.812 63.1422 15.3 62.7502 14.932C62.3662 14.556 61.7662 14.372 60.9502 14.38C60.3502 14.388 59.7982 14.532 59.2942 14.812C58.7982 15.084 58.4702 15.544 58.3102 16.192H55.8262C55.8742 15.344 56.1182 14.636 56.5582 14.068C57.0062 13.492 57.6182 13.064 58.3942 12.784C59.1702 12.496 60.0662 12.352 61.0822 12.352C62.2662 12.352 63.2302 12.508 63.9742 12.82C64.7182 13.132 65.2662 13.584 65.6182 14.176C65.9702 14.76 66.1462 15.468 66.1462 16.3V25H63.6862L63.4582 22.768C63.0102 23.704 62.4422 24.352 61.7542 24.712C61.0742 25.064 60.2942 25.24 59.4142 25.24ZM60.3622 23.26C60.7222 23.26 61.0782 23.196 61.4302 23.068C61.7822 22.932 62.1022 22.752 62.3902 22.528C62.6782 22.296 62.9062 22.04 63.0742 21.76C63.2502 21.48 63.3382 21.188 63.3382 20.884V18.928L61.8142 18.952C61.0622 18.96 60.4062 19.04 59.8462 19.192C59.2862 19.344 58.8462 19.588 58.5262 19.924C58.2142 20.252 58.0582 20.692 58.0582 21.244C58.0582 21.876 58.2782 22.372 58.7182 22.732C59.1582 23.084 59.7062 23.26 60.3622 23.26ZM69.5623 28.864V12.592H72.4783L72.5023 14.548C72.6623 14.276 72.8663 14.008 73.1143 13.744C73.3703 13.48 73.6623 13.244 73.9903 13.036C74.3263 12.828 74.6983 12.664 75.1063 12.544C75.5143 12.416 75.9623 12.352 76.4503 12.352C77.4023 12.352 78.2463 12.58 78.9823 13.036C79.7183 13.484 80.2943 14.176 80.7103 15.112C81.1343 16.048 81.3463 17.232 81.3463 18.664C81.3463 20.128 81.1303 21.348 80.6983 22.324C80.2663 23.3 79.6623 24.032 78.8863 24.52C78.1103 25 77.2103 25.24 76.1863 25.24C75.7143 25.24 75.2823 25.176 74.8903 25.048C74.5063 24.92 74.1623 24.744 73.8583 24.52C73.5543 24.296 73.2863 24.052 73.0543 23.788C72.8303 23.524 72.6423 23.248 72.4903 22.96V28.864H69.5623ZM75.5383 23.056C76.4183 23.056 77.1463 22.708 77.7223 22.012C78.2983 21.308 78.5863 20.208 78.5863 18.712C78.5863 17.416 78.3143 16.396 77.7703 15.652C77.2343 14.9 76.4903 14.524 75.5383 14.524C74.5143 14.524 73.7463 14.92 73.2343 15.712C72.7223 16.496 72.4663 17.496 72.4663 18.712C72.4663 19.496 72.5783 20.22 72.8023 20.884C73.0343 21.54 73.3743 22.068 73.8223 22.468C74.2783 22.86 74.8503 23.056 75.5383 23.056ZM87.5054 25.18C86.7054 25.18 86.0654 25.08 85.5854 24.88C85.1054 24.68 84.7454 24.412 84.5054 24.076C84.2654 23.74 84.1094 23.364 84.0374 22.948C83.9654 22.524 83.9294 22.092 83.9294 21.652V7.168H86.7854V21.316C86.7854 21.852 86.8934 22.268 87.1094 22.564C87.3334 22.86 87.6934 23.032 88.1894 23.08L88.8134 23.104V24.94C88.5974 25.004 88.3774 25.06 88.1534 25.108C87.9294 25.156 87.7134 25.18 87.5054 25.18ZM93.5574 19.468C93.5494 20.172 93.6614 20.796 93.8934 21.34C94.1254 21.884 94.4694 22.312 94.9254 22.624C95.3814 22.928 95.9454 23.08 96.6174 23.08C97.3054 23.08 97.9014 22.928 98.4054 22.624C98.9174 22.312 99.2574 21.84 99.4254 21.208H102.101C101.957 22.072 101.613 22.804 101.069 23.404C100.525 24.004 99.8654 24.46 99.0894 24.772C98.3214 25.084 97.5214 25.24 96.6894 25.24C95.4894 25.24 94.4334 24.988 93.5214 24.484C92.6174 23.972 91.9094 23.244 91.3974 22.3C90.8934 21.356 90.6414 20.232 90.6414 18.928C90.6414 17.656 90.8734 16.528 91.3374 15.544C91.8014 14.552 92.4694 13.772 93.3414 13.204C94.2214 12.636 95.2774 12.352 96.5094 12.352C97.7334 12.352 98.7614 12.612 99.5934 13.132C100.433 13.652 101.065 14.38 101.489 15.316C101.921 16.244 102.137 17.332 102.137 18.58V19.468H93.5574ZM93.5574 17.656H99.3774C99.3774 17.056 99.2734 16.516 99.0654 16.036C98.8574 15.548 98.5374 15.164 98.1054 14.884C97.6814 14.596 97.1454 14.452 96.4974 14.452C95.8574 14.452 95.3174 14.608 94.8774 14.92C94.4374 15.232 94.1054 15.636 93.8814 16.132C93.6574 16.62 93.5494 17.128 93.5574 17.656Z"
        fill="#005CE8" />
</svg>
