<svg width="130" height="32" viewBox="0 0 130 32" fill="none" xmlns="http://www.w3.org/2000/svg">
<path d="M12.5005 27.1998C12.6983 27.3764 12.9981 27.184 12.9239 26.9294L9.5646 15.4118C9.50205 15.1973 9.31244 15.0447 9.08963 15.0284C8.54597 14.9884 8.00257 14.9438 7.45949 14.8944L2.96559 14.4859C2.75579 14.4668 2.60811 14.6868 2.70744 14.8726C5.1382 19.419 8.63847 23.7511 12.5005 27.1998Z" fill="white"/>
<path d="M15.7962 29.6345C15.8233 29.7274 15.9032 29.7974 16 29.7974C16.0968 29.7974 16.1768 29.7274 16.2039 29.6345L20.3157 15.5367C20.367 15.361 20.23 15.1871 20.0472 15.195C17.3503 15.3108 14.6498 15.3108 11.9529 15.195C11.7701 15.1871 11.6331 15.361 11.6844 15.5367L15.7962 29.6345Z" fill="white"/>
<path d="M19.0762 26.9294C19.0019 27.1839 19.3018 27.3764 19.4996 27.1998C23.3616 23.751 26.8619 19.419 29.2926 14.8726C29.392 14.6868 29.2443 14.4668 29.0345 14.4859L24.5406 14.8944C23.9975 14.9438 23.4541 14.9884 22.9105 15.0284C22.6877 15.0447 22.498 15.1973 22.4355 15.4118L19.0762 26.9294Z" fill="white"/>
<path d="M29.068 12.4746C29.2712 12.4561 29.3792 12.2256 29.2634 12.0576L24.9463 5.79788C24.573 5.25657 23.9575 4.93335 23.2999 4.93335H19.9804C19.7909 4.93335 19.6619 5.12546 19.7335 5.30088L22.7425 12.6654C22.83 12.8794 23.0454 13.0129 23.276 12.9947C23.6373 12.9661 23.9985 12.9354 24.3595 12.9026L29.068 12.4746Z" fill="white"/>
<path d="M17.5535 5.26155C17.4706 5.06281 17.2765 4.93335 17.0611 4.93335H14.9389C14.7236 4.93335 14.5294 5.06281 14.4466 5.26156L11.3032 12.8057C11.2323 12.9759 11.3513 13.1649 11.5354 13.1738C14.5101 13.3178 17.49 13.3178 20.4646 13.1738C20.6488 13.1649 20.7678 12.9759 20.6969 12.8057L17.5535 5.26155Z" fill="white"/>
<path d="M12.2666 5.30088C12.3382 5.12546 12.2092 4.93335 12.0197 4.93335H8.70017C8.04261 4.93335 7.42706 5.25657 7.05374 5.79788L2.73669 12.0576C2.62086 12.2256 2.72888 12.4561 2.93207 12.4746L7.64056 12.9026C8.00161 12.9354 8.3628 12.9661 8.72412 12.9947C8.95464 13.0129 9.1701 12.8794 9.25756 12.6654L12.2666 5.30088Z" fill="white"/>
<path d="M60.584 7.648L55.484 25H53.024L49.52 12.7L45.968 25H43.568L38.504 7.648H41.384L44.9 20.176L48.428 7.648H50.612L54.164 20.176L57.692 7.648H60.584ZM65.0861 25.24C64.2941 25.24 63.5821 25.096 62.9501 24.808C62.3261 24.512 61.8341 24.092 61.4741 23.548C61.1221 22.996 60.9461 22.328 60.9461 21.544C60.9461 20.176 61.4381 19.144 62.4221 18.448C63.4141 17.752 64.9941 17.388 67.1621 17.356L69.0101 17.308V16.468C69.0101 15.812 68.8141 15.3 68.4221 14.932C68.0381 14.556 67.4381 14.372 66.6221 14.38C66.0221 14.388 65.4701 14.532 64.9661 14.812C64.4701 15.084 64.1421 15.544 63.9821 16.192H61.4981C61.5461 15.344 61.7901 14.636 62.2301 14.068C62.6781 13.492 63.2901 13.064 64.0661 12.784C64.8421 12.496 65.7381 12.352 66.7541 12.352C67.9381 12.352 68.9021 12.508 69.6461 12.82C70.3901 13.132 70.9381 13.584 71.2901 14.176C71.6421 14.76 71.8181 15.468 71.8181 16.3V25H69.3581L69.1301 22.768C68.6821 23.704 68.1141 24.352 67.4261 24.712C66.7461 25.064 65.9661 25.24 65.0861 25.24ZM66.0341 23.26C66.3941 23.26 66.7501 23.196 67.1021 23.068C67.4541 22.932 67.7741 22.752 68.0621 22.528C68.3501 22.296 68.5781 22.04 68.7461 21.76C68.9221 21.48 69.0101 21.188 69.0101 20.884V18.928L67.4861 18.952C66.7341 18.96 66.0781 19.04 65.5181 19.192C64.9581 19.344 64.5181 19.588 64.1981 19.924C63.8861 20.252 63.7301 20.692 63.7301 21.244C63.7301 21.876 63.9501 22.372 64.3901 22.732C64.8301 23.084 65.3781 23.26 66.0341 23.26ZM79.7821 25.24C78.1421 25.24 76.8541 24.676 75.9181 23.548C74.9821 22.42 74.5141 20.816 74.5141 18.736C74.5141 17.44 74.7021 16.316 75.0781 15.364C75.4621 14.404 76.0221 13.664 76.7581 13.144C77.5021 12.616 78.4221 12.352 79.5181 12.352C80.0301 12.352 80.4941 12.416 80.9101 12.544C81.3341 12.664 81.7101 12.824 82.0381 13.024C82.3661 13.224 82.6421 13.444 82.8661 13.684C83.0981 13.924 83.2781 14.164 83.4061 14.404V7.168H86.3341V25H84.1741L83.8501 22.456C83.7541 22.752 83.6101 23.064 83.4181 23.392C83.2341 23.712 82.9821 24.012 82.6621 24.292C82.3501 24.572 81.9581 24.8 81.4861 24.976C81.0141 25.152 80.4461 25.24 79.7821 25.24ZM80.3821 23.092C81.4301 23.092 82.1941 22.752 82.6741 22.072C83.1621 21.384 83.4061 20.248 83.4061 18.664C83.3981 17.76 83.2861 17 83.0701 16.384C82.8621 15.768 82.5381 15.304 82.0981 14.992C81.6661 14.68 81.1061 14.524 80.4181 14.524C79.5381 14.524 78.8141 14.848 78.2461 15.496C77.6781 16.144 77.3941 17.2 77.3941 18.664C77.3941 20.12 77.6541 21.224 78.1741 21.976C78.6941 22.72 79.4301 23.092 80.3821 23.092ZM89.7654 25V12.592H92.6094V14.368C92.9694 13.824 93.4574 13.352 94.0734 12.952C94.6974 12.552 95.4894 12.352 96.4494 12.352C96.8894 12.352 97.3334 12.428 97.7814 12.58C98.2374 12.732 98.6574 12.956 99.0414 13.252C99.4334 13.548 99.7454 13.916 99.9774 14.356C100.369 13.772 100.889 13.292 101.537 12.916C102.193 12.54 102.929 12.352 103.745 12.352C104.193 12.352 104.653 12.424 105.125 12.568C105.605 12.712 106.045 12.952 106.445 13.288C106.845 13.624 107.169 14.084 107.417 14.668C107.665 15.244 107.789 15.968 107.789 16.84V25H104.873V17.188C104.873 16.572 104.765 16.088 104.549 15.736C104.333 15.384 104.053 15.136 103.709 14.992C103.373 14.84 103.013 14.764 102.629 14.764C102.285 14.764 101.925 14.832 101.549 14.968C101.181 15.104 100.865 15.328 100.601 15.64C100.345 15.952 100.217 16.372 100.217 16.9V25H97.3014V16.72C97.3014 16.288 97.1894 15.928 96.9654 15.64C96.7414 15.352 96.4574 15.136 96.1134 14.992C95.7774 14.84 95.4334 14.764 95.0814 14.764C94.7214 14.764 94.3534 14.84 93.9774 14.992C93.6094 15.144 93.3014 15.376 93.0534 15.688C92.8054 16 92.6814 16.404 92.6814 16.9V25H89.7654ZM113.941 12.592V25H111.133V12.592H113.941ZM113.977 7.66V10.42H111.085V7.66H113.977ZM117.586 25V12.592H120.442V14.368C120.634 14.048 120.894 13.74 121.222 13.444C121.558 13.148 121.97 12.908 122.458 12.724C122.946 12.54 123.518 12.448 124.174 12.448C124.942 12.448 125.654 12.6 126.31 12.904C126.974 13.208 127.506 13.684 127.906 14.332C128.314 14.98 128.518 15.816 128.518 16.84V25H125.59V17.188C125.59 16.372 125.366 15.768 124.918 15.376C124.47 14.976 123.906 14.776 123.226 14.776C122.762 14.776 122.322 14.856 121.906 15.016C121.49 15.168 121.15 15.404 120.886 15.724C120.63 16.036 120.502 16.428 120.502 16.9V25H117.586Z" fill="white"/>
</svg>
