<svg width="48" height="48" viewBox="0 0 48 48" fill="none" xmlns="http://www.w3.org/2000/svg">
<rect width="48" height="48" rx="24" fill="#FDEDED"/>
<path d="M34.1944 29.6218L25.9474 15.3718C25.7495 15.0305 25.4655 14.7472 25.1237 14.5503C24.7819 14.3534 24.3943 14.2497 23.9999 14.2497C23.6054 14.2497 23.2178 14.3534 22.876 14.5503C22.5342 14.7472 22.2502 15.0305 22.0523 15.3718V15.3725L13.8053 29.6218C13.6073 29.9637 13.5028 30.3518 13.5024 30.747C13.5021 31.1421 13.6058 31.5304 13.8031 31.8727C14.0004 32.2151 14.2845 32.4994 14.6266 32.6971C14.9687 32.8948 15.3569 32.9989 15.7521 32.999H32.2477C32.6428 32.9989 33.031 32.8948 33.3731 32.6971C33.7152 32.4994 33.9993 32.2151 34.1966 31.8727C34.394 31.5304 34.4977 31.1421 34.4973 30.747C34.4969 30.3518 34.3924 29.9637 34.1944 29.6218ZM23.2491 21.7497C23.2491 21.5508 23.3281 21.36 23.4688 21.2194C23.6094 21.0787 23.8002 20.9997 23.9991 20.9997C24.198 20.9997 24.3888 21.0787 24.5295 21.2194C24.6701 21.36 24.7491 21.5508 24.7491 21.7497V25.4997C24.7491 25.6986 24.6701 25.8894 24.5295 26.03C24.3888 26.1707 24.198 26.2497 23.9991 26.2497C23.8002 26.2497 23.6094 26.1707 23.4688 26.03C23.3281 25.8894 23.2491 25.6986 23.2491 25.4997V21.7497ZM23.9997 30C23.7772 30 23.5597 29.934 23.3747 29.8104C23.1897 29.6868 23.0455 29.5111 22.9603 29.3055C22.8752 29.0999 22.8529 28.8737 22.8963 28.6555C22.9397 28.4373 23.0468 28.2368 23.2042 28.0795C23.3615 27.9221 23.562 27.815 23.7802 27.7716C23.9984 27.7282 24.2246 27.7505 24.4302 27.8356C24.6358 27.9207 24.8115 28.0649 24.9351 28.2499C25.0587 28.435 25.1247 28.6525 25.1247 28.875C25.1247 29.1733 25.0061 29.4595 24.7952 29.6704C24.5842 29.8814 24.298 30 23.9997 30Z" fill="#E84646"/>
</svg>
