<svg width="96" height="32" viewBox="0 0 96 32" fill="none" xmlns="http://www.w3.org/2000/svg">
<path d="M12.5005 27.1998C12.6983 27.3764 12.9981 27.1839 12.9239 26.9294L9.5646 15.4118C9.50205 15.1973 9.31244 15.0447 9.08963 15.0283C8.54597 14.9884 8.00257 14.9438 7.45949 14.8944L2.96559 14.4858C2.75579 14.4668 2.60811 14.6868 2.70744 14.8726C5.1382 19.419 8.63847 23.751 12.5005 27.1998Z" fill="white"/>
<path d="M15.7962 29.6345C15.8233 29.7274 15.9032 29.7973 16 29.7973C16.0968 29.7973 16.1768 29.7274 16.2039 29.6345L20.3157 15.5367C20.367 15.361 20.23 15.1871 20.0472 15.1949C17.3503 15.3107 14.6498 15.3107 11.9529 15.1949C11.7701 15.1871 11.6331 15.361 11.6844 15.5367L15.7962 29.6345Z" fill="white"/>
<path d="M19.0762 26.9294C19.0019 27.1839 19.3018 27.3764 19.4996 27.1998C23.3616 23.751 26.8619 19.419 29.2926 14.8726C29.392 14.6868 29.2443 14.4668 29.0345 14.4858L24.5406 14.8944C23.9975 14.9438 23.4541 14.9884 22.9105 15.0283C22.6877 15.0447 22.498 15.1973 22.4355 15.4118L19.0762 26.9294Z" fill="white"/>
<path d="M29.068 12.4745C29.2712 12.4561 29.3792 12.2255 29.2634 12.0576L24.9463 5.79786C24.573 5.25655 23.9575 4.93333 23.2999 4.93333H19.9804C19.7909 4.93333 19.6619 5.12543 19.7335 5.30086L22.7425 12.6654C22.83 12.8794 23.0454 13.0129 23.276 12.9947C23.6373 12.9661 23.9985 12.9354 24.3595 12.9026L29.068 12.4745Z" fill="white"/>
<path d="M17.5535 5.26153C17.4706 5.06279 17.2765 4.93333 17.0611 4.93333H14.9389C14.7236 4.93333 14.5294 5.06279 14.4466 5.26153L11.3032 12.8057C11.2323 12.9758 11.3513 13.1649 11.5354 13.1738C14.5101 13.3178 17.49 13.3178 20.4646 13.1738C20.6488 13.1649 20.7678 12.9758 20.6969 12.8057L17.5535 5.26153Z" fill="white"/>
<path d="M12.2666 5.30086C12.3382 5.12544 12.2092 4.93333 12.0197 4.93333H8.70017C8.04261 4.93333 7.42706 5.25655 7.05374 5.79786L2.73669 12.0576C2.62086 12.2255 2.72888 12.4561 2.93207 12.4745L7.64056 12.9026C8.00161 12.9354 8.3628 12.9661 8.72412 12.9947C8.95464 13.0129 9.1701 12.8794 9.25756 12.6654L12.2666 5.30086Z" fill="white"/>
<path d="M53.084 25H50.036L47.048 17.956H43.016V25H40.1V7.648H47.144C49.136 7.648 50.604 8.104 51.548 9.016C52.492 9.92 52.964 11.124 52.964 12.628C52.964 13.556 52.812 14.336 52.508 14.968C52.204 15.592 51.808 16.104 51.32 16.504C50.84 16.896 50.324 17.216 49.772 17.464L53.084 25ZM46.484 15.64C47.588 15.64 48.448 15.384 49.064 14.872C49.688 14.36 50 13.648 50 12.736C50 11.84 49.712 11.148 49.136 10.66C48.56 10.172 47.8 9.928 46.856 9.928H43.016V15.64H46.484ZM58.0027 19.468C57.9947 20.524 58.2507 21.392 58.7707 22.072C59.2987 22.744 60.0627 23.08 61.0627 23.08C61.7507 23.08 62.3467 22.928 62.8507 22.624C63.3627 22.312 63.7027 21.84 63.8707 21.208H66.5467C66.3947 22.072 66.0467 22.804 65.5027 23.404C64.9667 24.004 64.3107 24.46 63.5347 24.772C62.7667 25.084 61.9667 25.24 61.1347 25.24C59.9347 25.24 58.8787 24.988 57.9667 24.484C57.0627 23.972 56.3547 23.244 55.8427 22.3C55.3387 21.356 55.0867 20.232 55.0867 18.928C55.0867 17.656 55.3187 16.528 55.7827 15.544C56.2467 14.552 56.9147 13.772 57.7867 13.204C58.6587 12.636 59.7147 12.352 60.9547 12.352C62.7867 12.352 64.1827 12.924 65.1427 14.068C66.1027 15.204 66.5827 16.708 66.5827 18.58V19.468H58.0027ZM58.0027 17.656H63.8227C63.8227 16.76 63.5867 16.004 63.1147 15.388C62.6427 14.764 61.9187 14.452 60.9427 14.452C60.3027 14.452 59.7627 14.608 59.3227 14.92C58.8827 15.232 58.5507 15.636 58.3267 16.132C58.1027 16.62 57.9947 17.128 58.0027 17.656ZM72.8804 25.18C71.8084 25.18 71.0164 25.012 70.5044 24.676C70.0004 24.332 69.6724 23.888 69.5204 23.344C69.3764 22.8 69.3044 22.236 69.3044 21.652V7.168H72.1604V21.316C72.1604 21.852 72.2684 22.268 72.4844 22.564C72.7084 22.86 73.0684 23.032 73.5644 23.08L74.1884 23.104V24.94C73.9724 25.012 73.7484 25.068 73.5164 25.108C73.2924 25.156 73.0804 25.18 72.8804 25.18ZM79.7821 7.66V10.42H76.8901V7.66H79.7821ZM79.7461 12.592V25H76.9381V12.592H79.7461ZM94.8744 25H91.9104L88.3104 19.252L86.2944 21.364V25H83.3904V7.168H86.2944V18.22L91.4424 12.592H94.6464L90.1584 17.44L94.8744 25Z" fill="white"/>
</svg>
