<svg width="32" height="32" viewBox="0 0 32 32" fill="none" xmlns="http://www.w3.org/2000/svg">
<path d="M12.5005 27.1998C12.6983 27.3764 12.9981 27.1839 12.9239 26.9294L9.56458 15.4118C9.50202 15.1973 9.31241 15.0447 9.0896 15.0283C8.54594 14.9884 8.00255 14.9438 7.45947 14.8944L2.96557 14.4858C2.75577 14.4668 2.60809 14.6868 2.70742 14.8726C5.13817 19.419 8.63845 23.751 12.5005 27.1998Z" fill="#005CE8"/>
<path d="M15.7962 29.6345C15.8233 29.7274 15.9032 29.7973 16 29.7973C16.0968 29.7973 16.1767 29.7274 16.2038 29.6345L20.3157 15.5367C20.3669 15.361 20.23 15.1871 20.0472 15.1949C17.3503 15.3107 14.6497 15.3107 11.9529 15.1949C11.77 15.1871 11.6331 15.361 11.6843 15.5367L15.7962 29.6345Z" fill="#005CE8"/>
<path d="M19.0762 26.9294C19.0019 27.1839 19.3018 27.3764 19.4995 27.1998C23.3616 23.751 26.8619 19.419 29.2926 14.8726C29.3919 14.6868 29.2443 14.4668 29.0345 14.4858L24.5405 14.8944C23.9975 14.9438 23.4541 14.9884 22.9104 15.0283C22.6876 15.0447 22.498 15.1973 22.4355 15.4118L19.0762 26.9294Z" fill="#005CE8"/>
<path d="M29.068 12.4745C29.2712 12.4561 29.3792 12.2255 29.2634 12.0576L24.9463 5.79786C24.573 5.25655 23.9574 4.93333 23.2999 4.93333H19.9804C19.7909 4.93333 19.6618 5.12543 19.7335 5.30086L22.7425 12.6654C22.83 12.8794 23.0454 13.0129 23.2759 12.9947C23.6373 12.9661 23.9984 12.9354 24.3595 12.9026L29.068 12.4745Z" fill="#005CE8"/>
<path d="M17.5534 5.26153C17.4706 5.06279 17.2764 4.93333 17.0611 4.93333H14.9389C14.7236 4.93333 14.5294 5.06279 14.4466 5.26153L11.3032 12.8057C11.2323 12.9758 11.3513 13.1649 11.5354 13.1738C14.5101 13.3178 17.49 13.3178 20.4646 13.1738C20.6487 13.1649 20.7677 12.9758 20.6968 12.8057L17.5534 5.26153Z" fill="#005CE8"/>
<path d="M12.2665 5.30086C12.3382 5.12544 12.2092 4.93333 12.0197 4.93333H8.70014C8.04258 4.93333 7.42704 5.25655 7.05372 5.79786L2.73667 12.0576C2.62083 12.2255 2.72885 12.4561 2.93205 12.4745L7.64054 12.9026C8.00159 12.9354 8.36278 12.9661 8.72409 12.9947C8.95462 13.0129 9.17008 12.8794 9.25754 12.6654L12.2665 5.30086Z" fill="#005CE8"/>
</svg>
