<svg width="113" height="38" viewBox="0 0 113 38" fill="none" xmlns="http://www.w3.org/2000/svg">
<path d="M14.5839 32.0664C14.8147 32.2725 15.1645 32.0479 15.0778 31.751L11.1587 18.3138C11.0857 18.0635 10.8645 17.8855 10.6045 17.8664C9.97026 17.8198 9.33629 17.7677 8.7027 17.7101L3.45982 17.2335C3.21505 17.2112 3.04276 17.4679 3.15864 17.6847C5.99452 22.9889 10.0782 28.0429 14.5839 32.0664Z" fill="white"/>
<path d="M18.4289 34.9069C18.4605 35.0153 18.5537 35.0969 18.6667 35.0969C18.7796 35.0969 18.8728 35.0153 18.9045 34.9069L23.7016 18.4595C23.7614 18.2545 23.6017 18.0516 23.3883 18.0608C20.242 18.1959 17.0913 18.1959 13.945 18.0608C13.7317 18.0516 13.5719 18.2545 13.6317 18.4595L18.4289 34.9069Z" fill="white"/>
<path d="M22.2555 31.7509C22.1689 32.0479 22.5187 32.2725 22.7495 32.0664C27.2552 28.0429 31.3388 22.9889 34.1747 17.6847C34.2906 17.4679 34.1183 17.2112 33.8735 17.2335L28.6306 17.7101C27.997 17.7677 27.3631 17.8198 26.7288 17.8664C26.4689 17.8855 26.2477 18.0635 26.1747 18.3138L22.2555 31.7509Z" fill="white"/>
<path d="M33.9126 14.887C34.1497 14.8654 34.2757 14.5965 34.1406 14.4005L29.104 7.09752C28.6685 6.46599 27.9503 6.0889 27.1832 6.0889H23.3104C23.0893 6.0889 22.9388 6.31302 23.0224 6.51768L26.5329 15.1096C26.6349 15.3593 26.8863 15.515 27.1553 15.4938C27.5768 15.4605 27.9982 15.4247 28.4194 15.3864L33.9126 14.887Z" fill="white"/>
<path d="M20.479 6.4718C20.3824 6.23993 20.1558 6.0889 19.9046 6.0889H17.4287C17.1775 6.0889 16.951 6.23993 16.8544 6.4718L13.1871 15.2733C13.1044 15.4718 13.2432 15.6924 13.458 15.7028C16.9284 15.8708 20.4049 15.8708 23.8754 15.7028C24.0902 15.6924 24.229 15.4718 24.1463 15.2733L20.479 6.4718Z" fill="white"/>
<path d="M14.3109 6.51768C14.3946 6.31302 14.244 6.0889 14.0229 6.0889H10.1502C9.383 6.0889 8.66486 6.46599 8.22933 7.09752L3.19277 14.4005C3.05762 14.5965 3.18365 14.8654 3.42071 14.887L8.91395 15.3864C9.33517 15.4247 9.75656 15.4605 10.1781 15.4938C10.447 15.5151 10.6984 15.3593 10.8005 15.1096L14.3109 6.51768Z" fill="white"/>
<path d="M61.9313 29H58.3753L54.8893 20.782H50.1853V29H46.7833V8.75601H55.0013C57.3253 8.75601 59.038 9.28801 60.1393 10.352C61.2407 11.4067 61.7913 12.8113 61.7913 14.566C61.7913 15.6487 61.614 16.5587 61.2593 17.296C60.9047 18.024 60.4427 18.6213 59.8733 19.088C59.3133 19.5453 58.7113 19.9187 58.0673 20.208L61.9313 29ZM54.2313 18.08C55.5193 18.08 56.5227 17.7813 57.2413 17.184C57.9693 16.5867 58.3333 15.756 58.3333 14.692C58.3333 13.6467 57.9973 12.8393 57.3253 12.27C56.6533 11.7007 55.7667 11.416 54.6653 11.416H50.1853V18.08H54.2313ZM67.6698 22.546C67.6605 23.778 67.9591 24.7907 68.5658 25.584C69.1818 26.368 70.0731 26.76 71.2398 26.76C72.0425 26.76 72.7378 26.5827 73.3258 26.228C73.9231 25.864 74.3198 25.3133 74.5158 24.576H77.6378C77.4605 25.584 77.0545 26.438 76.4198 27.138C75.7945 27.838 75.0291 28.37 74.1238 28.734C73.2278 29.098 72.2945 29.28 71.3238 29.28C69.9238 29.28 68.6918 28.986 67.6278 28.398C66.5731 27.8007 65.7471 26.9513 65.1498 25.85C64.5618 24.7487 64.2678 23.4373 64.2678 21.916C64.2678 20.432 64.5385 19.116 65.0798 17.968C65.6211 16.8107 66.4005 15.9007 67.4178 15.238C68.4351 14.5753 69.6671 14.244 71.1138 14.244C73.2511 14.244 74.8798 14.9113 75.9998 16.246C77.1198 17.5713 77.6798 19.326 77.6798 21.51V22.546H67.6698ZM67.6698 20.432H74.4598C74.4598 19.3867 74.1845 18.5047 73.6338 17.786C73.0831 17.058 72.2385 16.694 71.0998 16.694C70.3531 16.694 69.7231 16.876 69.2098 17.24C68.6965 17.604 68.3091 18.0753 68.0478 18.654C67.7865 19.2233 67.6605 19.816 67.6698 20.432ZM85.0272 29.21C83.7765 29.21 82.8525 29.014 82.2552 28.622C81.6672 28.2207 81.2845 27.7027 81.1072 27.068C80.9392 26.4333 80.8552 25.7753 80.8552 25.094V8.19601H84.1872V24.702C84.1872 25.3273 84.3132 25.8127 84.5652 26.158C84.8265 26.5033 85.2465 26.704 85.8252 26.76L86.5532 26.788V28.93C86.3012 29.014 86.0399 29.0793 85.7692 29.126C85.5079 29.182 85.2605 29.21 85.0272 29.21ZM93.0792 8.77001V11.99H89.7052V8.77001H93.0792ZM93.0372 14.524V29H89.7612V14.524H93.0372ZM110.687 29H107.229L103.029 22.294L100.677 24.758V29H97.2888V8.19601H100.677V21.09L106.683 14.524H110.421L105.185 20.18L110.687 29Z" fill="white"/>
</svg>
