<svg width="20" height="20" viewBox="0 0 20 20" fill="none" xmlns="http://www.w3.org/2000/svg">
<path fill-rule="evenodd" clip-rule="evenodd" d="M8.48911 9.46813C8.93409 9.2724 9.32074 8.95332 9.6082 8.54461C9.87243 8.11056 10.0037 7.60109 9.98414 7.08546C10.0013 6.61524 9.91447 6.14727 9.7306 5.71865C9.57612 5.34732 9.32815 5.02789 9.01368 4.79514C8.68027 4.55315 8.30167 4.3894 7.90334 4.31491C7.43194 4.21047 6.95112 4.16092 6.4695 4.16715H1.5C1.36193 4.16715 1.25 4.27908 1.25 4.41715V15.535C1.25 15.6731 1.36193 15.785 1.5 15.785H6.58316C7.06987 15.7854 7.55463 15.7202 8.02574 15.591C8.47227 15.469 8.89532 15.2659 9.27597 14.9908C9.64469 14.7208 9.94493 14.3593 10.1503 13.9379C10.3775 13.4668 10.4887 12.9427 10.4737 12.4141C10.4903 11.7591 10.3164 11.1145 9.9754 10.5671C9.60871 10.0166 9.06485 9.62597 8.44539 9.46813H8.48911ZM3.79165 6.04163C3.6996 6.04163 3.62498 6.11625 3.62498 6.20829V8.79163C3.62498 8.88367 3.6996 8.95829 3.79165 8.95829H6.12498C6.9304 8.95829 7.58331 8.30538 7.58331 7.49996C7.58331 6.69454 6.9304 6.04163 6.12498 6.04163H3.79165ZM3.62498 10.5833C3.62498 10.4912 3.6996 10.4166 3.79165 10.4166H6.22915C7.20715 10.4166 7.99998 11.2095 7.99998 12.1875C7.99998 13.1655 7.20715 13.9583 6.22915 13.9583H3.79165C3.6996 13.9583 3.62498 13.8837 3.62498 13.7916V10.5833Z" fill="#053EFF"/>
<path d="M12.8658 4.7582H16.8017C16.9385 4.7582 17.0499 4.86809 17.0517 5.00484L17.0625 5.807C17.0644 5.94637 16.9519 6.06035 16.8125 6.06035H12.8658C12.7277 6.06035 12.6158 5.94843 12.6158 5.81035V5.0082C12.6158 4.87013 12.7277 4.7582 12.8658 4.7582Z" fill="#053EFF"/>
<path fill-rule="evenodd" clip-rule="evenodd" d="M14.9763 14.058C15.3795 14.071 15.7766 13.9517 16.1129 13.7163C16.3295 13.5721 16.5019 13.3662 16.6111 13.1234C16.64 13.0592 16.702 13.0144 16.7725 13.0144H18.3733C18.4819 13.0144 18.5615 13.1166 18.5295 13.2203C18.2855 14.0112 17.8069 14.7007 17.1621 15.1847C16.4688 15.6332 15.6665 15.8579 14.8539 15.8312C14.2748 15.8416 13.6991 15.735 13.1578 15.5172C12.6724 15.3138 12.2362 14.9983 11.8813 14.5936C11.5383 14.1815 11.2768 13.7011 11.112 13.1807C10.918 12.606 10.8232 11.9991 10.8322 11.389C10.8269 10.7875 10.9246 10.1899 11.1207 9.62513C11.3035 9.10197 11.5862 8.62414 11.9513 8.22138C12.3174 7.82652 12.7543 7.51258 13.2365 7.29787C13.7631 7.06794 14.3279 6.95176 14.8976 6.95616C15.5035 6.94628 16.1028 7.08873 16.6462 7.37175C17.1346 7.64041 17.5591 8.02246 17.8877 8.4892C18.2142 8.97038 18.4515 9.51248 18.5871 10.0869C18.7273 10.6906 18.7775 11.3138 18.7358 11.9339H12.948C12.9224 12.5294 13.1167 13.1122 13.49 13.5593C13.692 13.746 13.9282 13.8867 14.1839 13.9725C14.4397 14.0583 14.7094 14.0874 14.9763 14.058ZM13 10.3323C13 10.3789 13.0377 10.4166 13.0843 10.4166H16.4573C16.5039 10.4166 16.5416 10.3789 16.5416 10.3323C16.5416 9.40087 15.7866 8.64579 14.8551 8.64579H14.6865C13.7551 8.64579 13 9.40087 13 10.3323Z" fill="#053EFF"/>
</svg>
