<svg width="20" height="20" viewBox="0 0 20 20" fill="none" xmlns="http://www.w3.org/2000/svg">
<path fill-rule="evenodd" clip-rule="evenodd" d="M8.30069 3.33646C9.31537 4.61014 10.2249 5.97151 11.0159 7.40739C12.4466 6.87295 13.794 6.16804 15.0338 5.31735C13.7779 3.9678 11.9875 3.125 10 3.125C9.41297 3.125 8.84374 3.19844 8.30069 3.33646ZM15.8002 6.30728C14.5032 7.20414 13.0945 7.95113 11.5992 8.52318C11.8371 9.00349 12.0621 9.49136 12.2736 9.98633C12.8251 9.90496 13.3893 9.8628 13.9634 9.8628C14.9673 9.8628 15.9419 9.99183 16.8711 10.2344C16.8737 10.1566 16.875 10.0785 16.875 10C16.875 8.64021 16.4808 7.37382 15.8002 6.30728ZM16.714 11.4867C15.8394 11.2431 14.9171 11.1128 13.9634 11.1128C13.5542 11.1128 13.1505 11.1368 12.7538 11.1836C13.2854 12.6001 13.709 14.0695 14.0147 15.5818C15.3631 14.6101 16.3446 13.1625 16.714 11.4867ZM12.8708 16.2489C12.5601 14.5786 12.0993 12.961 11.5029 11.4106C9.12385 11.998 7.07254 13.418 5.67576 15.3451C6.8572 16.3022 8.36117 16.875 10 16.875C11.0258 16.875 11.9978 16.6507 12.8708 16.2489ZM4.77184 14.4648C6.29898 12.4268 8.48909 10.9127 11.0227 10.243C10.8289 9.80116 10.624 9.36531 10.4082 8.93586C8.53588 9.51844 6.54525 9.83232 4.48171 9.83232C4.02691 9.83232 3.57559 9.81707 3.12823 9.78704C3.12608 9.85775 3.125 9.92874 3.125 10C3.125 11.7043 3.74454 13.2631 4.77184 14.4648ZM3.27932 8.54425C3.67679 8.5695 4.07771 8.58232 4.48171 8.58232C6.33342 8.58232 8.12185 8.31294 9.81018 7.81123C9.00989 6.38655 8.08707 5.03982 7.05595 3.7853C5.15444 4.68779 3.73349 6.43724 3.27932 8.54425ZM7.00521 2.44491C7.93277 2.07694 8.94356 1.875 10 1.875C12.6255 1.875 14.9603 3.12101 16.4446 5.05138C17.4982 6.42165 18.125 8.13852 18.125 10C18.125 10.3862 18.098 10.7665 18.0457 11.139C17.6803 13.7417 16.0834 15.9466 13.8654 17.1483C12.7153 17.7714 11.398 18.125 10 18.125C7.83822 18.125 5.87248 17.2799 4.4173 15.9033C2.85254 14.4231 1.875 12.3252 1.875 10C1.875 9.67504 1.89411 9.35428 1.93132 9.03883C2.28645 6.02807 4.28588 3.52367 7.00521 2.44491Z" fill="#EA4C89"/>
</svg>
