<svg width="20" height="20" viewBox="0 0 20 20" fill="none" xmlns="http://www.w3.org/2000/svg">
<path d="M18.1748 5.18941C18.2231 5.1221 18.1517 5.03519 18.0745 5.06513C17.5256 5.2779 16.9519 5.42146 16.3667 5.49221C17.0183 5.10294 17.5211 4.51037 17.7999 3.80882C17.8283 3.73735 17.7502 3.67353 17.6829 3.71071C17.0773 4.04516 16.4242 4.28599 15.7457 4.42469C15.7173 4.43049 15.6881 4.42082 15.6681 4.39978C15.159 3.86255 14.4888 3.50486 13.7582 3.38125C13.0122 3.25505 12.2454 3.38001 11.5781 3.73653C10.9109 4.09306 10.3808 4.66098 10.071 5.35124C9.77652 6.00754 9.69705 6.73913 9.84231 7.44174C9.85358 7.49625 9.8109 7.54772 9.75534 7.54427C8.4353 7.46228 7.14555 7.11117 5.96554 6.51209C4.78853 5.91453 3.74625 5.08323 2.90219 4.06945C2.86473 4.02446 2.79373 4.03028 2.76644 4.08208C2.5038 4.58047 2.36629 5.13596 2.36666 5.70054C2.36559 6.26253 2.50351 6.81605 2.76812 7.31184C3.03274 7.80763 3.41584 8.2303 3.88333 8.54221C3.38756 8.52872 2.90145 8.40615 2.45937 8.18393C2.40239 8.1553 2.33405 8.19607 2.33702 8.25977C2.37149 9.0008 2.64354 9.74474 3.11442 10.3155C3.61552 10.9229 4.31104 11.3386 5.08333 11.4922C4.78604 11.5827 4.47739 11.6304 4.16666 11.6339C3.99754 11.6319 3.82875 11.6194 3.66127 11.5965C3.59917 11.588 3.54847 11.647 3.5702 11.7058C3.80055 12.3287 4.20749 12.8722 4.74255 13.269C5.3146 13.6932 6.00464 13.9285 6.71666 13.9422C5.51433 14.8883 4.0299 15.4046 2.49999 15.4089C2.34279 15.4094 2.18566 15.4043 2.02889 15.3936C1.94055 15.3876 1.89992 15.5053 1.97607 15.5505C3.46671 16.4351 5.17048 16.9027 6.90833 16.9005C8.1914 16.9139 9.46427 16.6714 10.6526 16.1873C11.8409 15.7032 12.9208 14.9871 13.8293 14.081C14.7378 13.1748 15.4566 12.0967 15.9438 10.9096C16.431 9.72256 16.6767 8.45031 16.6667 7.16721V6.76735C16.6667 6.74104 16.6791 6.7163 16.7001 6.70044C17.2653 6.27366 17.7624 5.76413 18.1748 5.18941Z" fill="#1DA1F2"/>
</svg>
