<svg width="20" height="20" viewBox="0 0 20 20" fill="none" xmlns="http://www.w3.org/2000/svg">
<path fill-rule="evenodd" clip-rule="evenodd" d="M10.8333 2.5C10.8333 2.03976 10.4602 1.66667 9.99999 1.66667C9.53975 1.66667 9.16666 2.03976 9.16666 2.5V3.125H8.70214C6.84792 3.125 5.31325 4.56668 5.1975 6.41729L5.01333 9.36183C4.94312 10.4845 4.56621 11.5664 3.92366 12.4897C3.34309 13.3239 3.85994 14.476 4.86905 14.5971L7.70832 14.9378V15.8333C7.70832 17.099 8.73434 18.125 9.99999 18.125C11.2656 18.125 12.2917 17.099 12.2917 15.8333V14.9378L15.1309 14.5971C16.14 14.476 16.6569 13.3239 16.0763 12.4897C15.4338 11.5664 15.0569 10.4845 14.9866 9.36183L14.8025 6.41729C14.6867 4.56668 13.1521 3.125 11.2978 3.125H10.8333V2.5ZM8.70214 4.375C7.50797 4.375 6.51961 5.30348 6.44507 6.49532L6.2609 9.43986C6.1764 10.7908 5.72286 12.0927 4.94965 13.2037C4.90769 13.264 4.94504 13.3473 5.01798 13.356L8.1327 13.7298C9.37311 13.8786 10.6269 13.8786 11.8673 13.7298L14.982 13.356C15.0549 13.3473 15.0923 13.264 15.0503 13.2037C14.2771 12.0927 13.8236 10.7908 13.7391 9.43986L13.5549 6.49532C13.4804 5.30348 12.492 4.375 11.2978 4.375H8.70214ZM9.99999 16.875C9.42469 16.875 8.95832 16.4086 8.95832 15.8333V15.2083H11.0417V15.8333C11.0417 16.4086 10.5753 16.875 9.99999 16.875Z" fill="#B0B7BA"/>
<path d="M14.1667 8.83333C15.8236 8.83333 17.1667 7.49019 17.1667 5.83333C17.1667 4.17648 15.8236 2.83333 14.1667 2.83333C12.5099 2.83333 11.1667 4.17648 11.1667 5.83333C11.1667 7.49019 12.5099 8.83333 14.1667 8.83333Z" fill="#E84646" stroke="#191B1C"/>
</svg>
