<svg width="40" height="40" viewBox="0 0 40 40" fill="none" xmlns="http://www.w3.org/2000/svg">
<path d="M0 20C0 8.95431 8.95431 0 20 0V0C31.0457 0 40 8.95431 40 20V20C40 31.0457 31.0457 40 20 40V40C8.95431 40 0 31.0457 0 20V20Z" fill="#F5F6F7"/>
<path d="M20.7953 20.0002L20.8394 19.956L26.0225 14.773C26.1279 14.6675 26.187 14.5244 26.187 14.3753C26.1869 14.2262 26.1277 14.0832 26.0222 13.9777C25.9168 13.8723 25.7738 13.813 25.6247 13.813C25.4756 13.8129 25.3325 13.8721 25.227 13.9775L20.044 19.1605L19.9998 19.2047L19.9556 19.1605L14.7725 13.9775L20.7953 20.0002ZM20.7953 20.0002L20.8394 20.0444M20.7953 20.0002L20.8394 20.0444M20.8394 20.0444L26.0225 25.2274C26.1279 25.3329 26.187 25.476 26.187 25.6251C26.1869 25.7742 26.1277 25.9172 26.0222 26.0227C25.9168 26.1281 25.7738 26.1874 25.6247 26.1874C25.4756 26.1875 25.3325 26.1283 25.227 26.0229L20.044 20.8399L19.9998 20.7957L19.9556 20.8399L14.7725 26.0229L14.7725 26.023C14.7203 26.0752 14.6583 26.1167 14.59 26.145C14.5217 26.1734 14.4486 26.1879 14.3747 26.188C14.3008 26.188 14.2276 26.1734 14.1593 26.1452C14.091 26.1169 14.029 26.0755 13.9768 26.0232C13.9245 25.971 13.8831 25.9089 13.8548 25.8406C13.8265 25.7724 13.812 25.6992 13.812 25.6253C13.812 25.5514 13.8266 25.4782 13.8549 25.41C13.8832 25.3417 13.9247 25.2797 13.977 25.2275L13.977 25.2275L19.1601 20.0444L19.2043 20.0002M20.8394 20.0444L19.2043 20.0002M19.2043 20.0002L19.1601 19.956M19.2043 20.0002L19.1601 19.956M19.1601 19.956L13.9771 14.773C13.8717 14.6675 13.8125 14.5244 13.8126 14.3753C13.8126 14.2262 13.8719 14.0832 13.9773 13.9777C14.0828 13.8723 14.2258 13.813 14.3749 13.813C14.524 13.8129 14.667 13.8721 14.7725 13.9775L19.1601 19.956Z" fill="#191B1C" stroke="#191B1C" stroke-width="0.125"/>
</svg>
