<svg width="64" height="64" viewBox="0 0 64 64" fill="none" xmlns="http://www.w3.org/2000/svg">
<path d="M23.9988 51.9961H17.9988C16.0134 51.9942 14.0511 51.57 12.2422 50.7517C10.4333 49.9334 8.8191 48.7397 7.50679 47.2498C6.19447 45.7599 5.21406 44.008 4.63061 42.1102C4.04716 40.2125 3.87403 38.2124 4.1227 36.2426C4.37137 34.2728 5.03616 32.3785 6.07295 30.6853C7.10973 28.9921 8.49479 27.5388 10.1362 26.4218C11.7776 25.3048 13.6378 24.5497 15.5934 24.2067C17.5489 23.8636 19.5551 23.9404 21.4787 24.432" stroke="#B0B7BA" stroke-width="2" stroke-linecap="round" stroke-linejoin="round"/>
<path d="M19.9985 31.9961C19.9988 28.8272 20.7522 25.7037 22.1964 22.883C23.6406 20.0623 25.7345 17.6252 28.3053 15.7725C30.8762 13.9198 33.8505 12.7044 36.9832 12.2267C40.1159 11.7489 43.3173 12.0224 46.3235 13.0245C49.3298 14.0267 52.0549 15.7289 54.2743 17.9908C56.4937 20.2528 58.1438 23.0097 59.0887 26.0344C60.0336 29.0592 60.2463 32.2652 59.7091 35.3883C59.1719 38.5113 57.9004 41.462 55.9991 43.9972" stroke="#B0B7BA" stroke-width="2" stroke-linecap="round" stroke-linejoin="round"/>
<path d="M29.5127 40.4816L37.9979 31.9961L46.4832 40.4816" stroke="#B0B7BA" stroke-width="2" stroke-linecap="round" stroke-linejoin="round"/>
<path d="M37.9985 51.9961V31.9961" stroke="#B0B7BA" stroke-width="2" stroke-linecap="round" stroke-linejoin="round"/>
</svg>
