<svg width="20" height="20" viewBox="0 0 20 20" fill="none" xmlns="http://www.w3.org/2000/svg">
<path fill-rule="evenodd" clip-rule="evenodd" d="M3.82619 12.7535C1.95297 8.15562 5.33556 3.125 10.3004 3.125H10.5683C14.2813 3.125 17.2913 6.13501 17.2913 9.84804C17.2913 13.9821 13.94 17.3333 9.806 17.3333H3.2891C3.02388 17.3333 2.78755 17.1659 2.69952 16.9158C2.6115 16.6656 2.69096 16.3871 2.89775 16.221L4.54066 14.9016C4.61249 14.8439 4.6379 14.7459 4.60314 14.6606L3.82619 12.7535ZM10.3004 4.375C6.22329 4.375 3.44553 8.50613 4.98381 12.2819L5.76076 14.189C6.00409 14.7862 5.82621 15.4724 5.32336 15.8762L5.06549 16.0833H9.806C13.2497 16.0833 16.0413 13.2917 16.0413 9.84804C16.0413 6.82536 13.5909 4.375 10.5683 4.375H10.3004Z" fill="#959FA3"/>
</svg>
