<svg width="21" height="20" viewBox="0 0 21 20" fill="none" xmlns="http://www.w3.org/2000/svg">
<path fill-rule="evenodd" clip-rule="evenodd" d="M10.5 1.95703C14.9422 1.95703 18.5434 5.5582 18.5434 10.0005C18.5434 14.4427 14.9422 18.0439 10.5 18.0439C6.05771 18.0439 2.45654 14.4427 2.45654 10.0005C2.45654 5.5582 6.05771 1.95703 10.5 1.95703Z" fill="url(#paint0_linear_1413_6347)"/>
<path d="M11.5451 17.9768V11.7639H13.2966L13.5288 9.57723H11.5451L11.5481 8.48271C11.5481 7.91239 11.6022 7.60694 12.4214 7.60694H13.5165V5.41992H11.7646C9.66025 5.41992 8.91969 6.48063 8.91969 8.26467V9.5774H7.60791V11.7642H8.91969V17.8887C9.43073 17.9905 9.95906 18.0443 10.5 18.0443C10.8495 18.0443 11.1986 18.0217 11.5451 17.9768Z" fill="white"/>
<defs>
<linearGradient id="paint0_linear_1413_6347" x1="10.5" y1="1.81047" x2="10.5" y2="18.7298" gradientUnits="userSpaceOnUse">
<stop stop-color="#00B2FF"/>
<stop offset="1" stop-color="#006AFF"/>
</linearGradient>
</defs>
</svg>
