<svg width="24" height="24" viewBox="0 0 24 24" fill="none" xmlns="http://www.w3.org/2000/svg">
<path d="M20.6221 15.8522L12 20.8817L3.37794 15.8522C3.20612 15.7519 3.00153 15.7241 2.80916 15.7747C2.6168 15.8253 2.45242 15.9503 2.35218 16.1221C2.25195 16.2939 2.22407 16.4985 2.27469 16.6909C2.32531 16.8832 2.45027 17.0476 2.62208 17.1478L11.6221 22.3978C11.7368 22.4647 11.8672 22.5 12 22.5C12.1328 22.5 12.2632 22.4647 12.3779 22.3978L21.3779 17.1478C21.463 17.0982 21.5375 17.0323 21.5971 16.9539C21.6567 16.8755 21.7003 16.7861 21.7253 16.6909C21.7504 16.5956 21.7564 16.4964 21.7432 16.3988C21.7299 16.3012 21.6975 16.2072 21.6478 16.1221C21.5982 16.037 21.5323 15.9625 21.4539 15.9029C21.3755 15.8433 21.2861 15.7998 21.1909 15.7747C21.0956 15.7496 20.9964 15.7436 20.8988 15.7569C20.8012 15.7702 20.7072 15.8026 20.6221 15.8522V15.8522Z" fill="#005CE8"/>
<path d="M20.6221 11.3522L12 16.3817L3.37794 11.3522C3.20612 11.2519 3.00153 11.2241 2.80916 11.2747C2.6168 11.3253 2.45242 11.4503 2.35218 11.6221C2.25195 11.7939 2.22407 11.9985 2.27469 12.1909C2.32531 12.3832 2.45027 12.5476 2.62208 12.6478L11.6221 17.8978C11.7368 17.9648 11.8672 18 12 18C12.1328 18 12.2632 17.9648 12.3779 17.8978L21.3779 12.6478C21.5498 12.5476 21.6747 12.3832 21.7253 12.1909C21.7759 11.9985 21.7481 11.7939 21.6478 11.6221C21.5476 11.4503 21.3832 11.3253 21.1909 11.2747C20.9985 11.2241 20.7939 11.2519 20.6221 11.3522Z" fill="#005CE8"/>
<path d="M2.62207 8.14783L11.6221 13.3978C11.7368 13.4647 11.8672 13.5 12 13.5C12.1328 13.5 12.2632 13.4647 12.3779 13.3978L21.3779 8.14783C21.4911 8.08177 21.5851 7.9872 21.6504 7.87354C21.7156 7.75987 21.75 7.63108 21.75 7.5C21.75 7.36892 21.7156 7.24013 21.6504 7.12646C21.5851 7.0128 21.4911 6.91823 21.3779 6.85217L12.3779 1.60217C12.2632 1.53526 12.1328 1.5 12 1.5C11.8672 1.5 11.7368 1.53526 11.6221 1.60217L2.62207 6.85217C2.50885 6.91823 2.41492 7.0128 2.34964 7.12646C2.28435 7.24013 2.25 7.36892 2.25 7.5C2.25 7.63108 2.28435 7.75987 2.34964 7.87354C2.41492 7.9872 2.50885 8.08177 2.62207 8.14783V8.14783Z" fill="#005CE8"/>
</svg>
