<svg width="16" height="21" viewBox="0 0 16 21" fill="none" xmlns="http://www.w3.org/2000/svg">
<path fill-rule="evenodd" clip-rule="evenodd" d="M11.6501 2.2629L12.4635 2.3642C14.3408 2.59801 15.75 4.19359 15.75 6.08545V16.5749C15.75 18.4118 14.3817 19.961 12.5589 20.188C9.53134 20.5651 6.46866 20.5651 3.44107 20.188C1.61826 19.961 0.25 18.4118 0.25 16.5749V6.08545C0.25 4.19359 1.6592 2.59801 3.53655 2.3642L4.3499 2.2629C4.67208 1.10206 5.73654 0.25 7 0.25H9C10.2635 0.25 11.3279 1.10206 11.6501 2.2629ZM4.25 3.78693L3.72193 3.8527C2.59552 3.99299 1.75 4.95034 1.75 6.08545V16.5749C1.75 17.655 2.55458 18.566 3.62646 18.6995C6.53093 19.0612 9.46907 19.0612 12.3735 18.6995C13.4454 18.566 14.25 17.655 14.25 16.5749V6.08545C14.25 4.95034 13.4045 3.99298 12.2781 3.8527L11.75 3.78693V5C11.75 5.41421 11.4142 5.75 11 5.75H5C4.58579 5.75 4.25 5.41421 4.25 5V3.78693ZM5.75 3C5.75 2.30964 6.30965 1.75 7 1.75H9C9.69036 1.75 10.25 2.30964 10.25 3V4.25H5.75V3Z" fill="#005CE8"/>
<path d="M11.75 9.75C11.75 9.33579 11.4142 9 11 9H5C4.58579 9 4.25 9.33579 4.25 9.75C4.25 10.1642 4.58579 10.5 5 10.5H11C11.4142 10.5 11.75 10.1642 11.75 9.75Z" fill="#005CE8"/>
<path d="M10.75 12.75C10.75 12.3358 10.4142 12 10 12H5C4.58579 12 4.25 12.3358 4.25 12.75C4.25 13.1642 4.58579 13.5 5 13.5H10C10.4142 13.5 10.75 13.1642 10.75 12.75Z" fill="#005CE8"/>
</svg>
