<svg width="18" height="14" viewBox="0 0 18 14" fill="none" xmlns="http://www.w3.org/2000/svg">
<path d="M15.875 2.62488H9.20874L7.04077 0.999511C6.82463 0.838084 6.56225 0.750552 6.29248 0.749878H2.125C1.79358 0.750205 1.47583 0.882006 1.24148 1.11636C1.00713 1.35071 0.875327 1.66846 0.875 1.99988V12.6249C0.875327 12.9563 1.00713 13.274 1.24148 13.5084C1.47583 13.7427 1.79358 13.8745 2.125 13.8749H15.9446C16.2575 13.8744 16.5575 13.7499 16.7788 13.5287C17.0001 13.3074 17.1246 13.0074 17.125 12.6945V3.87488C17.1247 3.54346 16.9929 3.2257 16.7585 2.99136C16.5242 2.75701 16.2064 2.6252 15.875 2.62488Z" fill="#959FA3"/>
</svg>
