<svg width="16" height="16" viewBox="0 0 16 16" fill="none" xmlns="http://www.w3.org/2000/svg">
<path fill-rule="evenodd" clip-rule="evenodd" d="M5.44088 1.72524C4.38153 1.60684 3.28494 1.60684 2.2256 1.72524C1.96819 1.75401 1.76519 1.95783 1.73624 2.20538C1.60973 3.287 1.60973 4.37967 1.73624 5.46129C1.76519 5.70884 1.96819 5.91266 2.2256 5.94143C3.28494 6.05983 4.38153 6.05983 5.44088 5.94143C5.69829 5.91266 5.90129 5.70884 5.93024 5.46129C6.05675 4.37967 6.05675 3.287 5.93024 2.20538C5.90129 1.95783 5.69829 1.75401 5.44088 1.72524ZM2.08675 0.482971C3.23838 0.354261 4.4281 0.354261 5.57972 0.482971C6.40542 0.575255 7.07412 1.22524 7.17178 2.06017C7.30957 3.23826 7.30957 4.4284 7.17178 5.6065C7.07412 6.44142 6.40542 7.09141 5.57972 7.1837C4.4281 7.31241 3.23838 7.31241 2.08675 7.1837C1.26105 7.09141 0.592351 6.44142 0.494699 5.6065C0.35691 4.4284 0.35691 3.23826 0.494699 2.06017C0.592351 1.22524 1.26105 0.575256 2.08675 0.482971Z" fill="#B0B7BA"/>
<path fill-rule="evenodd" clip-rule="evenodd" d="M5.44088 10.0586C4.38153 9.94017 3.28494 9.94017 2.2256 10.0586C1.96819 10.0873 1.76519 10.2912 1.73624 10.5387C1.60973 11.6203 1.60973 12.713 1.73624 13.7946C1.76519 14.0422 1.96819 14.246 2.2256 14.2748C3.28494 14.3932 4.38153 14.3932 5.44088 14.2748C5.69829 14.246 5.90129 14.0422 5.93024 13.7946C6.05675 12.713 6.05675 11.6203 5.93024 10.5387C5.90129 10.2912 5.69829 10.0873 5.44088 10.0586ZM2.08675 8.81631C3.23838 8.68759 4.4281 8.68759 5.57972 8.81631C6.40542 8.90859 7.07412 9.55858 7.17178 10.3935C7.30957 11.5716 7.30957 12.7617 7.17178 13.9398C7.07412 14.7748 6.40542 15.4247 5.57972 15.517C4.4281 15.6457 3.23838 15.6457 2.08675 15.517C1.26105 15.4247 0.592351 14.7748 0.494699 13.9398C0.35691 12.7617 0.35691 11.5716 0.494699 10.3935C0.592351 9.55858 1.26105 8.90859 2.08675 8.81631Z" fill="#B0B7BA"/>
<path fill-rule="evenodd" clip-rule="evenodd" d="M13.7742 1.72524C12.7149 1.60684 11.6183 1.60684 10.5589 1.72524C10.3015 1.75401 10.0985 1.95783 10.0696 2.20538C9.94306 3.287 9.94306 4.37967 10.0696 5.46129C10.0985 5.70884 10.3015 5.91266 10.5589 5.94143C11.6183 6.05983 12.7149 6.05983 13.7742 5.94143C14.0316 5.91266 14.2346 5.70884 14.2636 5.46129C14.3901 4.37967 14.3901 3.287 14.2636 2.20538C14.2346 1.95783 14.0316 1.75401 13.7742 1.72524ZM10.4201 0.482971C11.5717 0.354261 12.7614 0.354261 13.9131 0.482971C14.7388 0.575255 15.4075 1.22524 15.5051 2.06017C15.6429 3.23826 15.6429 4.4284 15.5051 5.6065C15.4075 6.44142 14.7388 7.09141 13.9131 7.1837C12.7614 7.31241 11.5717 7.31241 10.4201 7.1837C9.59439 7.09141 8.92568 6.44142 8.82803 5.6065C8.69024 4.4284 8.69024 3.23826 8.82803 2.06017C8.92568 1.22524 9.59439 0.575256 10.4201 0.482971Z" fill="#B0B7BA"/>
<path fill-rule="evenodd" clip-rule="evenodd" d="M13.7742 10.0586C12.7149 9.94017 11.6183 9.94017 10.5589 10.0586C10.3015 10.0873 10.0985 10.2912 10.0696 10.5387C9.94306 11.6203 9.94306 12.713 10.0696 13.7946C10.0985 14.0422 10.3015 14.246 10.5589 14.2748C11.6183 14.3932 12.7149 14.3932 13.7742 14.2748C14.0316 14.246 14.2346 14.0422 14.2636 13.7946C14.3901 12.713 14.3901 11.6203 14.2636 10.5387C14.2346 10.2912 14.0316 10.0873 13.7742 10.0586ZM10.4201 8.81631C11.5717 8.68759 12.7614 8.68759 13.9131 8.81631C14.7388 8.90859 15.4075 9.55858 15.5051 10.3935C15.6429 11.5716 15.6429 12.7617 15.5051 13.9398C15.4075 14.7748 14.7388 15.4247 13.9131 15.517C12.7614 15.6457 11.5717 15.6457 10.4201 15.517C9.59439 15.4247 8.92568 14.7748 8.82803 13.9398C8.69024 12.7617 8.69024 11.5716 8.82803 10.3935C8.92568 9.55858 9.59439 8.90859 10.4201 8.81631Z" fill="#B0B7BA"/>
</svg>
