<svg width="20" height="20" viewBox="0 0 20 20" fill="none" xmlns="http://www.w3.org/2000/svg">
<path d="M13.3333 5.83378C13.3333 5.37354 13.7064 5.00044 14.1667 5.00044C14.6269 5.00044 15 5.37354 15 5.83378C15 6.29402 14.6269 6.66711 14.1667 6.66711C13.7064 6.66711 13.3333 6.29402 13.3333 5.83378Z" fill="#005CE8"/>
<path fill-rule="evenodd" clip-rule="evenodd" d="M9.99999 6.04211C7.81386 6.04211 6.04166 7.81432 6.04166 10.0004C6.04166 12.1866 7.81386 13.9588 9.99999 13.9588C12.1861 13.9588 13.9583 12.1866 13.9583 10.0004C13.9583 7.81432 12.1861 6.04211 9.99999 6.04211ZM7.29166 10.0004C7.29166 8.50467 8.50422 7.29211 9.99999 7.29211C11.4958 7.29211 12.7083 8.50467 12.7083 10.0004C12.7083 11.4962 11.4958 12.7088 9.99999 12.7088C8.50422 12.7088 7.29166 11.4962 7.29166 10.0004Z" fill="#005CE8"/>
<path fill-rule="evenodd" clip-rule="evenodd" d="M14.3819 2.36129C11.4931 2.03842 8.50694 2.03842 5.61813 2.36129C3.94142 2.54869 2.58781 3.86953 2.39068 5.55497C2.04523 8.50855 2.04523 11.4923 2.39068 14.4459C2.58781 16.1314 3.94142 17.4522 5.61813 17.6396C8.50695 17.9625 11.4931 17.9625 14.3819 17.6396C16.0586 17.4522 17.4122 16.1314 17.6093 14.4459C17.9548 11.4923 17.9548 8.50855 17.6093 5.55497C17.4122 3.86953 16.0586 2.54869 14.3819 2.36129ZM5.75697 3.60356C8.55351 3.291 11.4465 3.291 14.243 3.60356C15.3515 3.72744 16.2394 4.60212 16.3678 5.70018C16.702 8.55728 16.702 11.4436 16.3678 14.3007C16.2394 15.3988 15.3515 16.2734 14.243 16.3973C11.4465 16.7099 8.55351 16.7099 5.75697 16.3973C4.64855 16.2734 3.76064 15.3988 3.63222 14.3007C3.29805 11.4436 3.29805 8.55729 3.63222 5.70018C3.76064 4.60212 4.64855 3.72744 5.75697 3.60356Z" fill="#005CE8"/>
</svg>
