<svg width="24" height="24" viewBox="0 0 24 24" fill="none" xmlns="http://www.w3.org/2000/svg">
<path d="M2 12C2 6.46933 6.47689 2 12.0049 2C17.5426 2 22 6.45959 22 12C22 17.5307 17.5328 22 12.0049 22C6.48662 22.0097 2 17.5209 2 12ZM15.1971 11.4839C15.2263 11.4937 15.2555 11.5034 15.2749 11.5131V15.3982C15.2749 15.7682 15.3528 15.8559 15.7324 15.8559H16.6667C17.1338 15.8559 17.1922 15.7975 17.1922 15.3106V8.97176C17.1922 8.15384 17.1922 8.17332 16.3552 8.1441C15.927 8.13437 15.6058 8.26095 15.3041 8.57254C14.292 9.6144 13.2603 10.6271 12.2384 11.6592C12.0438 11.8539 11.927 11.8442 11.7421 11.6495C10.8078 10.6952 9.83455 9.78967 8.93917 8.80623C8.46229 8.29016 7.95621 8.04673 7.27494 8.1441H7.20681C6.93431 8.1441 6.78832 8.27069 6.78832 8.55306V15.4469C6.78832 15.7293 6.92458 15.8559 7.19708 15.8559H8.22871C8.62774 15.8559 8.71533 15.7682 8.71533 15.369V11.7663C8.71533 11.6787 8.66667 11.5716 8.78346 11.4937L11.3528 14.0643C11.8589 14.5706 12.1022 14.5706 12.6083 14.0643C13.4842 13.1977 14.3406 12.3408 15.1971 11.4839Z" fill="#E2574C"/>
</svg>
