<svg width="32" height="32" viewBox="0 0 32 32" fill="none" xmlns="http://www.w3.org/2000/svg">
<path opacity="0.2" d="M4.13848 9.32695C4.04778 9.48078 3.99997 9.6561 4 9.83468V22.165C4 22.3424 4.04721 22.5167 4.13679 22.6698C4.22637 22.823 4.35509 22.9496 4.50974 23.0366L15.5097 29.2241C15.6594 29.3083 15.8283 29.3525 16 29.3525L16.0013 29.3525L16.1186 15.9998L4.1385 9.32697L4.13848 9.32695Z" fill="currentColor"/>
<path d="M28 22.1651V9.83477C28 9.65733 27.9528 9.48309 27.8632 9.32992C27.7736 9.17675 27.6449 9.05018 27.4903 8.96319L16.4903 2.77569C16.3406 2.6915 16.1717 2.64727 16 2.64727C15.8283 2.64727 15.6594 2.6915 15.5097 2.77569L4.50974 8.96319C4.35509 9.05018 4.22637 9.17675 4.13679 9.32992C4.04721 9.48309 4 9.65733 4 9.83477V22.1651C4 22.3425 4.04721 22.5167 4.13679 22.6699C4.22637 22.8231 4.35509 22.9497 4.50974 23.0366L15.5097 29.2241C15.6594 29.3083 15.8283 29.3526 16 29.3526C16.1717 29.3526 16.3406 29.3083 16.4903 29.2241L27.4903 23.0366C27.6449 22.9497 27.7736 22.8231 27.8632 22.6699C27.9528 22.5167 28 22.3425 28 22.1651Z" stroke="currentColor" stroke-width="1.8" stroke-linecap="round" stroke-linejoin="round"/>
<path d="M22.1278 19.0635V12.5635L10 5.87461" stroke="currentColor" stroke-width="1.8" stroke-linecap="round" stroke-linejoin="round"/>
<path d="M27.8623 9.3282L16.1188 15.9998L4.13867 9.32695" stroke="currentColor" stroke-width="1.8" stroke-linecap="round" stroke-linejoin="round"/>
<path d="M16.1193 15.9996L16.002 29.3523" stroke="currentColor" stroke-width="1.8" stroke-linecap="round" stroke-linejoin="round"/>
</svg>
