<svg width="32" height="32" viewBox="0 0 32 32" fill="none" xmlns="http://www.w3.org/2000/svg">
<path opacity="0.2" d="M5.89094 19.1026L8.52208 15.9453C8.72093 18.3281 9.47587 20.9572 11.0346 23.812L7.78455 26.412L8.15696 26.8775L7.78455 26.412C7.7514 26.4386 7.71204 26.4562 7.67018 26.4633C7.62832 26.4704 7.58535 26.4667 7.54531 26.4526C7.50526 26.4385 7.46947 26.4144 7.44131 26.3827C7.41314 26.3509 7.39353 26.3125 7.38432 26.271L7.38432 26.271L5.83897 19.3169L5.83896 19.3169C5.83067 19.2796 5.83104 19.2409 5.84005 19.2037C5.84907 19.1666 5.86647 19.132 5.89094 19.1026L5.89094 19.1026Z" fill="#FFF266" stroke="#FFF266" stroke-width="1.5"/>
<path opacity="0.2" d="M20.8905 23.7222C22.4492 20.8674 23.2041 18.2383 23.403 15.8554L26.0341 19.0128L26.0341 19.0128C26.0586 19.0422 26.076 19.0767 26.085 19.1139C26.094 19.151 26.0944 19.1897 26.0861 19.227L26.0861 19.2271L24.5407 26.1812L24.5407 26.1812C24.5315 26.2226 24.5119 26.2611 24.4837 26.2928C24.4556 26.3246 24.4198 26.3487 24.3797 26.3628C24.3397 26.3769 24.2967 26.3805 24.2549 26.3734C24.213 26.3664 24.1736 26.3487 24.1405 26.3222L20.8905 23.7222Z" fill="#FFF266" stroke="#FFF266" stroke-width="1.5"/>
<path d="M18 28H14" stroke="#FFF266" stroke-width="1.5" stroke-linecap="round" stroke-linejoin="round"/>
<path d="M15.3714 2.47053C12.9974 4.3723 5.05688 11.9717 12.0001 24.0002H20.0001C26.7989 11.9802 18.9746 4.38305 16.6255 2.47458C16.4484 2.33063 16.2273 2.25172 15.9991 2.25098C15.771 2.25025 15.5494 2.32773 15.3714 2.47053V2.47053Z" stroke="#FFF266" stroke-width="1.5" stroke-linecap="round" stroke-linejoin="round"/>
<path d="M9.23356 13.9199L5.31479 18.6225C5.2169 18.7399 5.14726 18.8783 5.1112 19.0268C5.07515 19.1754 5.07365 19.3303 5.10682 19.4796L6.65219 26.4337C6.68902 26.5995 6.76747 26.7531 6.88013 26.8802C6.99279 27.0073 7.13595 27.1035 7.29612 27.16C7.45629 27.2164 7.62818 27.2311 7.79561 27.2027C7.96303 27.1743 8.12046 27.1037 8.25307 26.9976L12.0002 23.9999" stroke="#FFF266" stroke-width="1.5" stroke-linecap="round" stroke-linejoin="round"/>
<path d="M22.6914 13.8301L26.6854 18.6229C26.7833 18.7404 26.853 18.8787 26.889 19.0273C26.9251 19.1759 26.9266 19.3308 26.8934 19.48L25.348 26.4342C25.3112 26.5999 25.2328 26.7536 25.1201 26.8807C25.0074 27.0077 24.8643 27.104 24.7041 27.1604C24.5439 27.2168 24.372 27.2315 24.2046 27.2031C24.0372 27.1747 23.8798 27.1042 23.7472 26.9981L20 24.0004" stroke="#FFF266" stroke-width="1.5" stroke-linecap="round" stroke-linejoin="round"/>
<path d="M16 13.5C16.8284 13.5 17.5 12.8284 17.5 12C17.5 11.1716 16.8284 10.5 16 10.5C15.1716 10.5 14.5 11.1716 14.5 12C14.5 12.8284 15.1716 13.5 16 13.5Z" fill="#FFF266"/>
</svg>
