<svg width="40" height="40" viewBox="0 0 40 40" fill="none" xmlns="http://www.w3.org/2000/svg">
<path d="M39.9432 19.9505C39.9432 30.9683 31.0112 39.9005 19.9927 39.9005C8.97399 39.9005 0.0421143 30.9683 0.0421143 19.9505C0.0421143 8.93203 8.9743 0 19.9927 0C31.0113 0 39.9432 8.93203 39.9432 19.9505Z" fill="#DD4814"/>
<path d="M6.427 17.2865C4.95528 17.2865 3.76294 18.4788 3.76294 19.9505C3.76294 21.4215 4.95528 22.614 6.427 22.614C7.8981 22.614 9.09044 21.4215 9.09044 19.9505C9.09044 18.4788 7.8981 17.2865 6.427 17.2865ZM25.445 29.3924C24.1711 30.1283 23.734 31.7565 24.47 33.0298C25.2051 34.3038 26.8332 34.7405 28.1073 34.0048C29.3812 33.2696 29.8181 31.6415 29.0823 30.3673C28.3472 29.0941 26.7181 28.6574 25.445 29.3924ZM12.2128 19.9505C12.2128 17.3183 13.5203 14.9927 15.5208 13.5846L13.5734 10.323C11.2431 11.8808 9.50903 14.2612 8.78841 17.0491C9.62934 17.7351 10.1675 18.7796 10.1675 19.9504C10.1675 21.1205 9.62934 22.1651 8.78841 22.8512C9.50809 25.6397 11.2422 28.0204 13.5734 29.5782L15.5208 26.3157C13.5203 24.9083 12.2128 22.5829 12.2128 19.9505ZM19.9928 12.1698C24.0573 12.1698 27.392 15.286 27.742 19.2604L31.5373 19.2044C31.3508 16.2704 30.0689 13.6363 28.0995 11.6994C27.0867 12.0821 25.9167 12.0235 24.9057 11.4407C23.8928 10.8562 23.2576 9.87006 23.084 8.79975C22.0772 8.52112 21.0373 8.37973 19.9926 8.37944C18.2138 8.37762 16.4587 8.78742 14.8647 9.57678L16.7154 12.8935C17.7419 12.4157 18.8606 12.1687 19.9928 12.1698ZM19.9928 27.7307C18.8606 27.7317 17.742 27.4847 16.7156 27.0069L14.8648 30.3233C16.4587 31.1136 18.2139 31.5238 19.9929 31.5219C21.0377 31.5217 22.0775 31.3799 23.0842 31.1005C23.2578 30.0302 23.8931 29.0451 24.9057 28.4596C25.9176 27.8757 27.0868 27.8182 28.0995 28.2008C30.069 26.264 31.3507 23.6299 31.5376 20.6958L27.7412 20.6399C27.392 24.6154 24.0575 27.7305 19.9928 27.7305V27.7307ZM25.444 10.5071C26.7181 11.2427 28.3464 10.8071 29.0814 9.53303C29.8173 8.25897 29.3814 6.63069 28.1073 5.89475C26.8332 5.15975 25.2051 5.59631 24.469 6.87037C23.7342 8.14381 24.1709 9.77194 25.444 10.5071Z" fill="white"/>
</svg>
