<svg width="64" height="40" viewBox="0 0 64 40" fill="none" xmlns="http://www.w3.org/2000/svg">
<path d="M40.659 35.0771H23.3516V4.65793H40.6594L40.659 35.0771Z" fill="white" fill-opacity="0.7"/>
<path d="M24.448 19.8676C24.448 13.6971 27.4022 8.20039 32.0026 4.65806C28.5204 1.97275 24.2134 0.515342 19.7789 0.52175C8.85504 0.52175 0 9.18307 0 19.8676C0 30.5522 8.85504 39.2135 19.7789 39.2135C24.2135 39.22 28.5206 37.7626 32.0029 35.0772C27.4029 31.5355 24.448 26.0385 24.448 19.8676Z" fill="white"/>
<path d="M64.0084 19.868C64.0084 30.5525 55.1534 39.2138 44.2295 39.2138C39.7944 39.2202 35.4869 37.7628 32.0039 35.0775C36.6055 31.5352 39.5598 26.0388 39.5598 19.868C39.5598 13.6971 36.6055 8.20073 32.0039 4.6584C35.4868 1.97317 39.7942 0.51579 44.2292 0.522085C55.153 0.522085 64.0081 9.1834 64.0081 19.868" fill="white"/>
</svg>
