<svg width="24" height="24" viewBox="0 0 24 24" fill="none" xmlns="http://www.w3.org/2000/svg">
<path d="M22.1947 17.6218L13.9476 3.37176C13.7498 3.0305 13.4657 2.74721 13.1239 2.55028C12.7821 2.35335 12.3946 2.24969 12.0001 2.24969C11.6056 2.24969 11.2181 2.35335 10.8763 2.55028C10.5345 2.74721 10.2504 3.0305 10.0526 3.37176V3.3725L1.80552 17.6218C1.60752 17.9637 1.50307 18.3518 1.50269 18.747C1.5023 19.1421 1.606 19.5304 1.80334 19.8727C2.00069 20.2151 2.28471 20.4994 2.62685 20.6971C2.96898 20.8948 3.35715 20.9989 3.7523 20.999H20.2479C20.6431 20.9989 21.0312 20.8948 21.3734 20.6971C21.7155 20.4994 21.9995 20.2151 22.1969 19.8727C22.3942 19.5304 22.4979 19.1421 22.4975 18.747C22.4971 18.3518 22.3927 17.9637 22.1947 17.6218ZM11.2494 9.74969C11.2494 9.55078 11.3284 9.36002 11.469 9.21936C11.6097 9.07871 11.8005 8.99969 11.9994 8.99969C12.1983 8.99969 12.389 9.07871 12.5297 9.21936C12.6704 9.36002 12.7494 9.55078 12.7494 9.74969V13.4997C12.7494 13.6986 12.6704 13.8894 12.5297 14.03C12.389 14.1707 12.1983 14.2497 11.9994 14.2497C11.8005 14.2497 11.6097 14.1707 11.469 14.03C11.3284 13.8894 11.2494 13.6986 11.2494 13.4997V9.74969ZM11.9999 18C11.7774 18 11.5599 17.934 11.3749 17.8104C11.1899 17.6868 11.0457 17.5111 10.9606 17.3055C10.8754 17.0999 10.8531 16.8737 10.8965 16.6555C10.9399 16.4373 11.0471 16.2368 11.2044 16.0795C11.3618 15.9221 11.5622 15.815 11.7804 15.7716C11.9987 15.7282 12.2249 15.7505 12.4304 15.8356C12.636 15.9207 12.8117 16.0649 12.9353 16.2499C13.0589 16.435 13.1249 16.6525 13.1249 16.875C13.1249 17.1733 13.0064 17.4595 12.7954 17.6704C12.5844 17.8814 12.2983 18 11.9999 18Z" fill="#E84646"/>
</svg>
