<svg width="20" height="20" viewBox="0 0 20 20" fill="none" xmlns="http://www.w3.org/2000/svg">
<path d="M13.3333 5.83329C13.3333 5.37305 13.7064 4.99996 14.1667 4.99996C14.6269 4.99996 15 5.37305 15 5.83329C15 6.29353 14.6269 6.66662 14.1667 6.66662C13.7064 6.66662 13.3333 6.29353 13.3333 5.83329Z" fill="url(#paint0_linear_939_6988)"/>
<path fill-rule="evenodd" clip-rule="evenodd" d="M9.99999 6.04162C7.81386 6.04162 6.04166 7.81383 6.04166 9.99996C6.04166 12.1861 7.81386 13.9583 9.99999 13.9583C12.1861 13.9583 13.9583 12.1861 13.9583 9.99996C13.9583 7.81383 12.1861 6.04162 9.99999 6.04162ZM7.29166 9.99996C7.29166 8.50418 8.50422 7.29162 9.99999 7.29162C11.4958 7.29162 12.7083 8.50418 12.7083 9.99996C12.7083 11.4957 11.4958 12.7083 9.99999 12.7083C8.50422 12.7083 7.29166 11.4957 7.29166 9.99996Z" fill="url(#paint1_linear_939_6988)"/>
<path fill-rule="evenodd" clip-rule="evenodd" d="M14.3819 2.3608C11.4931 2.03794 8.50694 2.03794 5.61813 2.3608C3.94142 2.5482 2.58781 3.86904 2.39068 5.55448C2.04523 8.50806 2.04523 11.4918 2.39068 14.4454C2.58781 16.1309 3.94142 17.4517 5.61813 17.6391C8.50695 17.962 11.4931 17.962 14.3819 17.6391C16.0586 17.4517 17.4122 16.1309 17.6093 14.4454C17.9548 11.4918 17.9548 8.50806 17.6093 5.55448C17.4122 3.86904 16.0586 2.5482 14.3819 2.3608ZM5.75697 3.60307C8.55351 3.29051 11.4465 3.29051 14.243 3.60307C15.3515 3.72695 16.2394 4.60163 16.3678 5.69969C16.702 8.5568 16.702 11.4431 16.3678 14.3002C16.2394 15.3983 15.3515 16.273 14.243 16.3968C11.4465 16.7094 8.55351 16.7094 5.75697 16.3968C4.64855 16.273 3.76064 15.3983 3.63222 14.3002C3.29805 11.4431 3.29805 8.5568 3.63222 5.69969C3.76064 4.60163 4.64855 3.72695 5.75697 3.60307Z" fill="url(#paint2_linear_939_6988)"/>
<defs>
<linearGradient id="paint0_linear_939_6988" x1="3.4522" y1="16.5585" x2="16.5693" y2="3.46288" gradientUnits="userSpaceOnUse">
<stop stop-color="#FFD600"/>
<stop offset="0.5" stop-color="#FF0100"/>
<stop offset="1" stop-color="#D800B9"/>
</linearGradient>
<linearGradient id="paint1_linear_939_6988" x1="3.4522" y1="16.5585" x2="16.5693" y2="3.46288" gradientUnits="userSpaceOnUse">
<stop stop-color="#FFD600"/>
<stop offset="0.5" stop-color="#FF0100"/>
<stop offset="1" stop-color="#D800B9"/>
</linearGradient>
<linearGradient id="paint2_linear_939_6988" x1="3.4522" y1="16.5585" x2="16.5693" y2="3.46288" gradientUnits="userSpaceOnUse">
<stop stop-color="#FFD600"/>
<stop offset="0.5" stop-color="#FF0100"/>
<stop offset="1" stop-color="#D800B9"/>
</linearGradient>
</defs>
</svg>
