<svg width="20" height="20" viewBox="0 0 20 20" fill="none" xmlns="http://www.w3.org/2000/svg">
<path d="M9.94541 1.97913C8.08587 1.99179 6.2885 2.65019 4.86079 3.8417C3.43307 5.03321 2.46372 6.68378 2.11857 8.51105C1.77342 10.3383 2.07391 12.2288 2.96864 13.859C3.86337 15.4891 5.29673 16.7578 7.02354 17.4479C6.90748 16.6884 6.90748 15.9157 7.02354 15.1562L7.96885 11.1458C7.81925 10.7826 7.74518 10.3927 7.75114 9.99996C7.75114 8.8885 8.39854 8.05204 9.20062 8.05204C9.34592 8.04986 9.48998 8.07911 9.62293 8.13778C9.75588 8.19646 9.87457 8.28318 9.97088 8.39201C10.0672 8.50083 10.1388 8.62918 10.1809 8.76828C10.223 8.90737 10.2345 9.05392 10.2147 9.19788C10.2147 9.64109 10.0337 10.2272 9.84372 10.8425C9.739 11.1817 9.63153 11.5297 9.5501 11.8677C9.50078 12.045 9.49491 12.2317 9.533 12.4118C9.57109 12.5919 9.65202 12.7602 9.76893 12.9024C9.88584 13.0446 10.0353 13.1565 10.2046 13.2287C10.374 13.3009 10.5582 13.3312 10.7418 13.3171C12.1626 13.3171 13.2626 11.8104 13.2626 9.64475C13.2769 9.20469 13.1993 8.76647 13.0348 8.35807C12.8702 7.94967 12.6224 7.58004 12.307 7.27277C11.9917 6.9655 11.6157 6.72734 11.2032 6.57347C10.7907 6.41961 10.3506 6.35342 9.91104 6.37913C9.44176 6.35897 8.97327 6.43425 8.53393 6.6004C8.09459 6.76655 7.69353 7.02012 7.35503 7.34577C7.01653 7.67142 6.74763 8.06236 6.5646 8.49495C6.38157 8.92753 6.28822 9.39275 6.2902 9.86246C6.28383 10.5168 6.48435 11.1565 6.86312 11.6901C6.89066 11.7207 6.91028 11.7576 6.92027 11.7975C6.93026 11.8375 6.93031 11.8793 6.92041 11.9192C6.85736 12.1714 6.71988 12.7214 6.69698 12.8302C6.67406 12.939 6.57666 13.0078 6.4277 12.939C5.4251 12.4692 4.80062 11.0083 4.80062 9.82809C4.80062 7.30152 6.63968 4.97548 10.1001 4.97548C12.8787 4.97548 15.0444 6.95777 15.0444 9.61038C15.0444 12.3718 13.3256 14.5948 10.8793 14.5948C10.5206 14.6072 10.1646 14.5299 9.84339 14.3698C9.52222 14.2098 9.24614 13.972 9.0402 13.6781L8.54177 15.5859C8.30283 16.3273 7.96768 17.0342 7.54489 17.6885C8.32393 17.9187 9.13312 18.0308 9.94541 18.0208C12.0727 18.0208 14.1128 17.1757 15.617 15.6715C17.1212 14.1673 17.9662 12.1272 17.9662 9.99996C17.9662 7.8727 17.1212 5.83257 15.617 4.32837C14.1128 2.82418 12.0727 1.97913 9.94541 1.97913Z" fill="#E60023"/>
</svg>
