<svg width="40" height="40" viewBox="0 0 40 40" fill="none" xmlns="http://www.w3.org/2000/svg">
<path d="M4.46158 31.4665C3.51584 31.4665 2.87946 32.2089 2.87946 33.1635C2.87946 34.1181 3.51584 34.8605 4.46158 34.8605C5.40733 34.8605 6.04371 34.1181 6.04371 33.1635C6.03487 32.2089 5.39849 31.4665 4.46158 31.4665ZM4.24946 30.4147C5.00958 30.4147 5.64597 30.8036 5.94649 31.2278V30.5207H7.1132V35.8151H6.21165C6.14139 35.8149 6.07407 35.7869 6.02438 35.7372C5.9747 35.6875 5.9467 35.6202 5.94649 35.55V35.108C5.64597 35.5323 5.01842 35.9212 4.24946 35.9212C2.79991 35.9212 1.69507 34.6838 1.69507 33.1724C1.69507 31.6609 2.79107 30.4147 4.24946 30.4147ZM8.439 30.5207H9.60571V31.2367C9.92391 30.7064 10.5249 30.4147 11.2144 30.4147C12.4429 30.4147 13.2384 31.2809 13.2384 32.6243V35.8151H12.3457C12.2755 35.8149 12.2081 35.7869 12.1584 35.7372C12.1088 35.6875 12.0808 35.6202 12.0806 35.55V32.8188C12.0806 31.9791 11.6563 31.4753 10.9757 31.4753C10.2067 31.4753 9.60571 32.0764 9.60571 33.2077V35.8151H8.713C8.64274 35.8149 8.57542 35.7869 8.52574 35.7372C8.47606 35.6875 8.44805 35.6202 8.44784 35.55L8.439 30.5207ZM16.9153 31.4665C15.9696 31.4665 15.3332 32.2089 15.3332 33.1635C15.3332 34.1181 15.9696 34.8605 16.9153 34.8605C17.8611 34.8605 18.4975 34.1181 18.4975 33.1635C18.4975 32.2089 17.8611 31.4665 16.9153 31.4665ZM16.7032 30.4147C17.4633 30.4147 18.0997 30.8036 18.4002 31.2278V27.8691H19.5669V35.8151H18.6742C18.604 35.8149 18.5366 35.7869 18.487 35.7372C18.4373 35.6875 18.4093 35.6202 18.4091 35.55V35.108C18.1086 35.5323 17.481 35.9212 16.712 35.9212C15.2625 35.9212 14.1576 34.6838 14.1576 33.1724C14.1576 31.6609 15.2536 30.4147 16.7032 30.4147ZM20.8927 30.5207H22.0595V31.4665C22.1619 31.177 22.3508 30.926 22.6006 30.7474C22.8503 30.5687 23.1489 30.4711 23.456 30.4677C23.6074 30.4649 23.7587 30.4797 23.9067 30.5119V31.7051C23.7187 31.6421 23.5218 31.6093 23.3234 31.6079C22.6605 31.6079 22.0506 32.1736 22.0506 33.2254V35.8063H21.1579C21.0876 35.8061 21.0203 35.7781 20.9706 35.7284C20.921 35.6787 20.893 35.6114 20.8927 35.5411V30.5207ZM27.0445 34.834C27.9726 34.834 28.6355 34.1004 28.6355 33.1635C28.6355 32.2178 27.9814 31.493 27.0445 31.493C26.0987 31.493 25.4447 32.2266 25.4447 33.1635C25.4535 34.1093 26.0987 34.834 27.0445 34.834ZM27.0445 35.9212C26.5007 35.9168 25.9704 35.7516 25.5204 35.4462C25.0704 35.1408 24.7209 34.709 24.5161 34.2053C24.3112 33.7016 24.26 33.1484 24.3691 32.6157C24.4782 32.0829 24.7426 31.5944 25.129 31.2117C25.5153 30.829 26.0064 30.5693 26.5402 30.4654C27.0739 30.3614 27.6266 30.4178 28.1283 30.6276C28.63 30.8373 29.0585 31.1909 29.3595 31.6438C29.6605 32.0966 29.8207 32.6285 29.8198 33.1724C29.8217 33.5361 29.7509 33.8965 29.6118 34.2326C29.4726 34.5687 29.2678 34.8736 29.0094 35.1296C28.751 35.3855 28.4441 35.5874 28.1067 35.7233C27.7693 35.8592 27.4082 35.9265 27.0445 35.9212ZM30.7656 30.5207H31.9323V35.8151H31.0396C30.9693 35.8149 30.902 35.7869 30.8523 35.7372C30.8026 35.6875 30.7746 35.6202 30.7744 35.55L30.7656 30.5207ZM31.3489 29.3629C31.1409 29.3609 30.942 29.2774 30.7949 29.1303C30.6478 28.9832 30.5643 28.7842 30.5623 28.5762C30.5665 28.3705 30.6512 28.1747 30.7984 28.0309C30.9455 27.887 31.1432 27.8067 31.3489 27.8073C31.5552 27.8073 31.7531 27.8892 31.8989 28.0351C32.0448 28.1809 32.1267 28.3788 32.1267 28.5851C32.1267 28.7913 32.0448 28.9892 31.8989 29.1351C31.7531 29.2809 31.5552 29.3629 31.3489 29.3629ZM35.6534 31.4665C34.7076 31.4665 34.0713 32.2089 34.0713 33.1635C34.0713 34.1181 34.7076 34.8605 35.6534 34.8605C36.5991 34.8605 37.2355 34.1181 37.2355 33.1635C37.2178 32.2089 36.5991 31.4665 35.6534 31.4665ZM35.4413 30.4147C36.2014 30.4147 36.8378 30.8036 37.1383 31.2278V27.8691H38.305V35.8151H37.4123C37.342 35.8149 37.2747 35.7869 37.225 35.7372C37.1753 35.6875 37.1473 35.6202 37.1471 35.55V35.108C36.8466 35.5323 36.2191 35.9212 35.4501 35.9212C34.0005 35.9212 32.8957 34.6838 32.8957 33.1724C32.8957 31.6609 33.9917 30.4147 35.4413 30.4147Z" fill="black"/>
<path d="M28.9713 10.1034L32.0207 4.82668C32.1024 4.68149 32.1237 4.50993 32.08 4.34916C32.0362 4.18838 31.9308 4.05132 31.7867 3.96765C31.6426 3.88398 31.4714 3.86042 31.31 3.90209C31.1487 3.94376 31.0102 4.0473 30.9247 4.19029L27.84 9.52887C25.3776 8.42188 22.7086 7.84952 20.0089 7.84952C17.3092 7.84952 14.6401 8.42188 12.1778 9.52887L9.09307 4.19029C9.00751 4.0473 8.86907 3.94376 8.70773 3.90209C8.54639 3.86042 8.37514 3.88398 8.23103 3.96765C8.08693 4.05132 7.98158 4.18838 7.93779 4.34916C7.894 4.50993 7.9153 4.68149 7.99707 4.82668L11.0464 10.1034C5.78739 12.9495 2.21655 18.2438 1.69507 24.4928H38.2873C37.7658 18.2438 34.1862 12.9495 28.9713 10.1034ZM11.5767 19.278C11.2761 19.278 10.9821 19.1888 10.7321 19.0218C10.4821 18.8547 10.2873 18.6173 10.1722 18.3395C10.0571 18.0617 10.027 17.756 10.0857 17.4611C10.1444 17.1662 10.2891 16.8953 10.5018 16.6827C10.7144 16.4701 10.9853 16.3253 11.2802 16.2667C11.5751 16.208 11.8807 16.2381 12.1585 16.3532C12.4363 16.4682 12.6737 16.6631 12.8408 16.9131C13.0078 17.1631 13.097 17.457 13.097 17.7577C13.097 18.1609 12.9368 18.5476 12.6517 18.8327C12.3666 19.1178 11.9799 19.278 11.5767 19.278ZM28.4233 19.278C28.1226 19.278 27.8287 19.1888 27.5787 19.0218C27.3287 18.8547 27.1339 18.6173 27.0188 18.3395C26.9037 18.0617 26.8736 17.756 26.9323 17.4611C26.9909 17.1662 27.1357 16.8953 27.3483 16.6827C27.561 16.4701 27.8318 16.3253 28.1267 16.2667C28.4216 16.208 28.7273 16.2381 29.0051 16.3532C29.2829 16.4682 29.5203 16.6631 29.6874 16.9131C29.8544 17.1631 29.9436 17.457 29.9436 17.7577C29.9436 18.1609 29.7834 18.5476 29.4983 18.8327C29.2132 19.1178 28.8265 19.278 28.4233 19.278Z" fill="#3DDC84"/>
</svg>
