<svg width="20" height="20" viewBox="0 0 20 20" fill="none" xmlns="http://www.w3.org/2000/svg">
<path d="M9.75252 4.68009C9.77681 3.9264 9.98441 2.81612 10.7069 2.08672C11.3776 1.40965 12.194 1.07966 12.7025 0.928806C12.8988 0.870566 13.0872 1.0186 13.0775 1.22314C13.0435 1.94464 12.8537 3.0208 12.3643 3.59732C11.9028 4.14079 11.1606 4.86146 10.0733 4.98272C9.89535 5.00257 9.74675 4.85905 9.75252 4.68009Z" fill="#191B1C"/>
<path d="M11.6142 18.475C12.1363 18.675 12.6642 18.8772 13.1419 18.8772C14.1639 18.8772 17.1398 16.5192 17.247 14.0702C17.2525 13.9445 17.1774 13.8321 17.0675 13.7707C16.3106 13.3471 15.0744 12.2923 15.0314 10.7579C14.9813 8.96969 15.8791 7.54938 16.5586 6.96186C16.7116 6.82963 16.7641 6.59648 16.6276 6.44737C16.0093 5.7722 14.7655 4.84349 13.6307 4.86629C12.8051 4.88287 12.0612 5.19042 11.4229 5.45432C10.9332 5.65679 10.5056 5.83357 10.1508 5.83357C9.81486 5.83357 9.41152 5.65792 8.94859 5.45632C8.32516 5.18484 7.59367 4.86629 6.77311 4.86629C5.25316 4.86629 2.25001 6.12668 2.25 10.9924C2.25 13.5718 4.9128 18.9456 7.15976 18.8772C7.64496 18.8772 8.16348 18.6763 8.67803 18.4769C9.18471 18.2806 9.68753 18.0858 10.1508 18.0858C10.5982 18.0858 11.1034 18.2793 11.6142 18.475Z" fill="#191B1C"/>
</svg>
