<svg width="78" height="78" viewBox="0 0 78 78" fill="none" xmlns="http://www.w3.org/2000/svg">
<rect width="78" height="78" rx="39" fill="#F0F6FF"/>
<path d="M28.6875 44.625V32.4375C28.6875 31.9402 28.885 31.4633 29.2367 31.1117C29.5883 30.76 30.0652 30.5625 30.5625 30.5625H47.4375C47.9348 30.5625 48.4117 30.76 48.7633 31.1117C49.115 31.4633 49.3125 31.9402 49.3125 32.4375V44.625" stroke="#0E5FD9" stroke-width="1.8" stroke-linecap="round" stroke-linejoin="round"/>
<path d="M26.8125 44.625H51.1875V46.5C51.1875 46.9973 50.99 47.4742 50.6383 47.8258C50.2867 48.1775 49.8098 48.375 49.3125 48.375H28.6875C28.1902 48.375 27.7133 48.1775 27.3617 47.8258C27.01 47.4742 26.8125 46.9973 26.8125 46.5V44.625Z" stroke="#0E5FD9" stroke-width="1.8" stroke-linecap="round" stroke-linejoin="round"/>
<path d="M40.875 34.3125H37.125" stroke="#0E5FD9" stroke-width="1.25" stroke-linecap="round" stroke-linejoin="round"/>
</svg>
