<svg width="24" height="24" viewBox="0 0 24 24" fill="none" xmlns="http://www.w3.org/2000/svg">
<path fill-rule="evenodd" clip-rule="evenodd" d="M11.6023 18.6357C11.7303 18.7125 11.8671 18.7464 12 18.7448C12.1329 18.7464 12.2698 18.7125 12.3977 18.6357L13.533 17.9545C15.7595 16.6186 18.4825 16.4004 20.8933 17.3648C21.7826 17.7205 22.75 17.0655 22.75 16.1077V4.44881C22.75 3.87086 22.3981 3.35114 21.8615 3.1365C18.7564 1.89446 15.2492 2.17548 12.3815 3.8961L12 4.12502L11.6185 3.8961C8.75077 2.17548 5.24357 1.89446 2.13848 3.1365C1.60187 3.35114 1.25 3.87086 1.25 4.44881V16.1077C1.25 17.0655 2.21739 17.7205 3.10672 17.3648C5.51752 16.4004 8.24052 16.6186 10.467 17.9545L11.6023 18.6357ZM2.75 4.50764V15.8944C5.54579 14.8464 8.67179 15.1281 11.2388 16.6683L11.25 16.675V5.42431L10.8467 5.18234C8.39774 3.71295 5.40634 3.46461 2.75 4.50764ZM12.7612 16.6683L12.75 16.675V5.42431L13.1533 5.18234C15.6023 3.71295 18.5937 3.46461 21.25 4.50764V15.8944C18.4542 14.8464 15.3282 15.1281 12.7612 16.6683Z" fill="#005CE8"/>
<path d="M9.27516 19.0419C7.2513 17.8613 4.7487 17.8613 2.72484 19.0419L2.6221 19.1018C2.26431 19.3105 2.14346 19.7698 2.35217 20.1276C2.56088 20.4854 3.02011 20.6062 3.3779 20.3975L3.48065 20.3376C5.03746 19.4294 6.96254 19.4294 8.51935 20.3376L9.60661 20.9718C11.0856 21.8345 12.9144 21.8345 14.3934 20.9718L15.4806 20.3376C17.0375 19.4294 18.9625 19.4294 20.5194 20.3376L20.6221 20.3975C20.9799 20.6062 21.4391 20.4854 21.6478 20.1276C21.8565 19.7698 21.7357 19.3105 21.3779 19.1018L21.2752 19.0419C19.2513 17.8613 16.7487 17.8613 14.7248 19.0419L13.6376 19.6761C12.6257 20.2664 11.3743 20.2664 10.3624 19.6761L9.27516 19.0419Z" fill="#005CE8"/>
</svg>
