<svg width="20" height="20" viewBox="0 0 20 20" fill="none" xmlns="http://www.w3.org/2000/svg">
<path d="M10.6256 5.83331C10.6256 5.48813 10.3458 5.20831 10.0006 5.20831C9.65547 5.20831 9.37565 5.48813 9.37565 5.83331V9.99998C9.37565 10.2155 9.48666 10.4158 9.6694 10.53L12.1694 12.0925C12.4621 12.2754 12.8477 12.1864 13.0306 11.8937C13.2136 11.601 13.1246 11.2154 12.8319 11.0325L10.6256 9.65357V5.83331Z" fill="#4A5154"/>
<path fill-rule="evenodd" clip-rule="evenodd" d="M10.0006 2.70831C5.97357 2.70831 2.70898 5.9729 2.70898 9.99998C2.70898 14.0271 5.97357 17.2916 10.0006 17.2916C14.0277 17.2916 17.2923 14.0271 17.2923 9.99998C17.2923 5.9729 14.0277 2.70831 10.0006 2.70831ZM3.95898 9.99998C3.95898 6.66326 6.66393 3.95831 10.0006 3.95831C13.3374 3.95831 16.0423 6.66326 16.0423 9.99998C16.0423 13.3367 13.3374 16.0416 10.0006 16.0416C6.66393 16.0416 3.95898 13.3367 3.95898 9.99998Z" fill="#4A5154"/>
</svg>
