<svg width="20" height="20" viewBox="0 0 20 20" fill="none" xmlns="http://www.w3.org/2000/svg">
<path d="M12.2529 6.94985L12.2529 6.94988L6.94963 12.2531L12.2529 6.94985ZM12.2529 6.94985C12.2533 6.94941 12.2538 6.94897 12.2542 6.94853M12.2529 6.94985L12.2542 6.94853M12.2542 6.94853C12.3062 6.89685 12.3677 6.85581 12.4354 6.82773C12.5037 6.79941 12.5769 6.78482 12.6508 6.78479C12.7247 6.78476 12.7979 6.7993 12.8661 6.82757C12.9344 6.85584 12.9965 6.89729 13.0487 6.94955C13.101 7.00182 13.1425 7.06386 13.1707 7.13215C13.199 7.20044 13.2135 7.27363 13.2135 7.34754C13.2135 7.42145 13.1989 7.49462 13.1706 7.56289C13.1422 7.63116 13.1008 7.69318 13.0485 7.7454L13.0484 7.74543L7.74518 13.0487C7.63966 13.154 7.49662 13.2132 7.34749 13.2131C7.19837 13.2131 7.05537 13.1538 6.94992 13.0484C6.84447 12.9429 6.78521 12.7999 6.78516 12.6508C6.7851 12.5017 6.84425 12.3587 6.9496 12.2531L12.2542 6.94853Z" fill="#626C70" stroke="#626C70" stroke-width="0.125"/>
<path d="M6.42074 9.07185L6.42071 9.07188L4.211 11.2816C3.61324 11.8793 3.27743 12.6901 3.27743 13.5354C3.27743 14.3808 3.61324 15.1915 4.211 15.7893C4.80876 16.3871 5.6195 16.7229 6.46486 16.7229C7.31022 16.7229 8.12096 16.3871 8.71872 15.7893L10.9284 13.5796C11.0339 13.4741 11.177 13.4148 11.3262 13.4148C11.4754 13.4148 11.6185 13.4741 11.724 13.5796C11.8295 13.6851 11.8887 13.8282 11.8887 13.9774C11.8887 14.1266 11.8295 14.2696 11.724 14.3751L9.51427 16.5848C8.70552 17.3936 7.60861 17.848 6.46486 17.848C5.32111 17.848 4.2242 17.3936 3.41545 16.5848C2.6067 15.7761 2.15234 14.6792 2.15234 13.5354C2.15234 12.3917 2.6067 11.2948 3.41545 10.486L5.62515 8.27632L5.62518 8.27629C5.67741 8.22399 5.73942 8.1825 5.80769 8.15418C5.87596 8.12585 5.94914 8.11126 6.02305 8.11124C6.09695 8.11121 6.17015 8.12575 6.23843 8.15402C6.30672 8.18229 6.36877 8.22374 6.42103 8.276C6.47329 8.32826 6.51474 8.39031 6.54301 8.4586C6.57128 8.52689 6.58582 8.60008 6.58579 8.67398C6.58577 8.74789 6.57118 8.82107 6.54285 8.88934C6.51453 8.95761 6.47304 9.01962 6.42074 9.07185Z" fill="#626C70" stroke="#626C70" stroke-width="0.125"/>
<path d="M16.6285 3.37031C15.808 2.54987 14.6952 2.08896 13.5349 2.08896C12.3746 2.08896 11.2618 2.54987 10.4413 3.37031L8.23158 5.58002C8.1145 5.69726 8.04877 5.8562 8.04883 6.02189C8.04889 6.18758 8.11474 6.34647 8.2319 6.46363C8.34906 6.5808 8.50795 6.64664 8.67364 6.64671C8.83933 6.64677 8.99827 6.58103 9.11552 6.46396L11.3252 4.25426C11.9113 3.66852 12.7061 3.33955 13.5347 3.33968C14.3633 3.33982 15.1579 3.66904 15.7438 4.25496C16.3298 4.84087 16.659 5.63551 16.6591 6.46413C16.6592 7.29274 16.3303 8.08748 15.7445 8.67358L13.5348 10.8833C13.4178 11.0005 13.352 11.1595 13.3521 11.3252C13.3522 11.4909 13.418 11.6497 13.5352 11.7669C13.6523 11.8841 13.8112 11.9499 13.9769 11.95C14.1426 11.95 14.3015 11.8843 14.4188 11.7672L16.6285 9.55753C17.4477 8.7364 17.9078 7.62384 17.9078 6.46392C17.9078 5.304 17.4477 4.19144 16.6285 3.37031Z" fill="#626C70"/>
</svg>
