<svg width="32" height="32" viewBox="0 0 32 32" fill="none" xmlns="http://www.w3.org/2000/svg">
<path d="M5.64107 24.5021C5.67225 24.6335 5.7297 24.7573 5.80995 24.866C5.89021 24.9746 5.99163 25.0659 6.1081 25.1344C6.22457 25.2029 6.35368 25.247 6.48767 25.2643C6.62166 25.2816 6.75776 25.2715 6.88777 25.2348C12.8489 23.5889 19.1446 23.5883 25.106 25.2331C25.236 25.2698 25.372 25.2798 25.506 25.2625C25.6399 25.2453 25.769 25.2011 25.8854 25.1327C26.0018 25.0643 26.1032 24.973 26.1835 24.8644C26.2638 24.7558 26.3212 24.6321 26.3524 24.5007L29.5385 10.9611C29.5812 10.7798 29.5724 10.5902 29.5131 10.4137C29.4538 10.2372 29.3465 10.0807 29.2031 9.96193C29.0597 9.84314 28.886 9.76674 28.7015 9.74135C28.517 9.71595 28.3291 9.74256 28.159 9.81819L21.836 12.6284C21.6077 12.7299 21.3497 12.7422 21.1127 12.663C20.8757 12.5837 20.677 12.4186 20.5557 12.2002L16.8742 5.57344C16.7875 5.41755 16.6608 5.28765 16.5071 5.19721C16.3534 5.10677 16.1783 5.05908 16 5.05908C15.8217 5.05908 15.6466 5.10677 15.4929 5.19721C15.3392 5.28765 15.2124 5.41755 15.1258 5.57344L11.4443 12.2002C11.323 12.4186 11.1243 12.5837 10.8873 12.663C10.6504 12.7422 10.3923 12.7299 10.164 12.6284L3.84007 9.81777C3.66994 9.74215 3.48209 9.71554 3.29765 9.74091C3.11321 9.76628 2.93952 9.84263 2.79613 9.96137C2.65274 10.0801 2.54535 10.2365 2.48603 10.413C2.42672 10.5895 2.41785 10.779 2.46042 10.9602L5.64107 24.5021Z" stroke="#005CE8" stroke-width="2" stroke-linecap="round" stroke-linejoin="round"/>
<path d="M12 20.2098C14.6593 19.9301 17.3407 19.9301 20 20.2098" stroke="#005CE8" stroke-width="2" stroke-linecap="round" stroke-linejoin="round"/>
</svg>
