<svg width="22" height="19" viewBox="0 0 22 19" fill="none" xmlns="http://www.w3.org/2000/svg">
<path d="M5.66076 0.253027C5.56243 0.190392 5.43672 0.190398 5.3384 0.25304L0.397137 3.4011C0.212064 3.51901 0.212063 3.78921 0.397134 3.90713L5.33839 7.05526C5.43672 7.11791 5.56244 7.11791 5.66077 7.05527L10.6028 3.90706C10.7879 3.78915 10.7879 3.51891 10.6028 3.40101L5.66076 0.253027Z" fill="#0062FF"/>
<path d="M16.6612 0.253053C16.5629 0.190404 16.4371 0.190404 16.3388 0.253053L11.3971 3.40144C11.2121 3.51935 11.2121 3.78956 11.3971 3.90747L16.3388 7.05586C16.4371 7.11851 16.5629 7.11851 16.6612 7.05586L21.6029 3.90747C21.7879 3.78956 21.7879 3.51935 21.6029 3.40144L16.6612 0.253053Z" fill="#0062FF"/>
<path d="M0.397134 10.9153C0.212062 10.7974 0.212064 10.5272 0.397137 10.4093L5.3384 7.26125C5.43672 7.19861 5.56243 7.1986 5.66076 7.26124L10.6028 10.4092C10.7879 10.5271 10.7879 10.7974 10.6028 10.9153L5.66077 14.0635C5.56244 14.1261 5.43672 14.1261 5.33839 14.0635L0.397134 10.9153Z" fill="#0062FF"/>
<path d="M16.6612 7.26126C16.5629 7.19861 16.4371 7.19861 16.3388 7.26126L11.3971 10.4096C11.2121 10.5276 11.2121 10.7978 11.3971 10.9157L16.3388 14.064C16.4371 14.1266 16.5629 14.1266 16.6612 14.064L21.6029 10.9157C21.7879 10.7978 21.7879 10.5276 21.6029 10.4096L16.6612 7.26126Z" fill="#0062FF"/>
<path d="M5.89721 15.5946C5.71212 15.4767 5.71212 15.2065 5.89722 15.0886L10.8392 11.9405C10.9376 11.8779 11.0633 11.8779 11.1616 11.9405L16.1029 15.0885C16.2879 15.2064 16.2879 15.4766 16.1029 15.5945L11.1616 18.7428C11.0633 18.8054 10.9376 18.8054 10.8392 18.7428L5.89721 15.5946Z" fill="#0062FF"/>
</svg>
