<svg width="20" height="20" viewBox="0 0 20 20" fill="none" xmlns="http://www.w3.org/2000/svg">
<path fill-rule="evenodd" clip-rule="evenodd" d="M10 0C15.5228 0 20 4.47716 20 10C20 15.5228 15.5228 20 10 20C4.47716 20 0 15.5228 0 10C0 4.47716 4.47716 0 10 0Z" fill="#005CE8"/>
<path d="M6.50353 12.0931H8.03525H8.13442V12.1923V19.7248C8.73864 19.84 9.36217 19.9008 10 19.9008C10.4012 19.9008 10.802 19.8766 11.2002 19.8285V12.1918V12.0926H11.2993H13.3877L13.6553 9.57243H11.2993H11.1999L11.2002 9.47299L11.2038 8.1125C11.2038 8.11247 11.2038 8.11244 11.2038 8.11241L11.2038 8.11224L11.303 8.1125L6.50353 12.0931ZM6.50353 12.0931V9.57264H8.03525H8.13442V9.47347V7.84141C8.13442 6.7435 8.3627 5.88892 8.89569 5.30837C9.42713 4.72951 10.2795 4.40386 11.5722 4.40386H13.6511V6.92453L6.50353 12.0931Z" fill="white" stroke="#005CE8" stroke-width="0.198338"/>
</svg>
