<svg width="24" height="24" viewBox="0 0 24 24" fill="none" xmlns="http://www.w3.org/2000/svg">
<path d="M21.7502 8.68946L15.3109 2.25C15.0293 1.96919 14.6479 1.81151 14.2502 1.81152C13.8525 1.81154 13.4711 1.96926 13.1895 2.2501L10.8347 4.60492L5.39225 6.64586C5.146 6.73864 4.9284 6.89441 4.76118 7.09759C4.59395 7.30078 4.48296 7.54427 4.43928 7.80377L2.49241 19.4848C2.47935 19.5631 2.49151 19.6436 2.52716 19.7146C2.5628 19.7856 2.62007 19.8435 2.69072 19.8798C2.76137 19.9162 2.84174 19.9292 2.92024 19.9169C2.99874 19.9046 3.07131 19.8677 3.12749 19.8116L8.29163 14.6473C7.92024 14.0175 7.7913 13.2739 7.929 12.5559C8.0667 11.8378 8.46157 11.1947 9.03959 10.747C9.61761 10.2993 10.3391 10.0778 11.0687 10.124C11.7984 10.1703 12.4861 10.4811 13.003 10.9981C13.5199 11.5152 13.8304 12.2031 13.8764 12.9328C13.9223 13.6624 13.7006 14.3838 13.2526 14.9617C12.8047 15.5395 12.1614 15.9342 11.4433 16.0716C10.7252 16.209 9.98166 16.0798 9.35204 15.7081L4.18723 20.8731C4.13105 20.9293 4.09417 21.0019 4.0819 21.0804C4.06963 21.1589 4.08261 21.2392 4.11897 21.3099C4.15532 21.3805 4.21318 21.4378 4.28418 21.4734C4.35519 21.5091 4.43568 21.5212 4.51405 21.5082L16.1966 19.5611C16.4561 19.5174 16.6995 19.4064 16.9027 19.2392C17.1059 19.072 17.2617 18.8544 17.3544 18.6082L19.3954 13.1657L21.7502 10.8108C21.8895 10.6716 22 10.5062 22.0754 10.3242C22.1508 10.1422 22.1896 9.94716 22.1896 9.75016C22.1896 9.55317 22.1508 9.35811 22.0754 9.17611C22 8.99411 21.8896 8.82875 21.7502 8.68946L21.7502 8.68946ZM18.7502 11.6894L12.3109 5.2501L14.2502 3.31074L20.6895 9.7501L18.7502 11.6894Z" fill="#005CE8"/>
<path d="M10.875 14.625C11.7034 14.625 12.375 13.9534 12.375 13.125C12.375 12.2966 11.7034 11.625 10.875 11.625C10.0466 11.625 9.375 12.2966 9.375 13.125C9.375 13.9534 10.0466 14.625 10.875 14.625Z" fill="#005CE8"/>
</svg>
