<svg width="24" height="24" viewBox="0 0 24 24" fill="none" xmlns="http://www.w3.org/2000/svg">
<path d="M21.6213 2.37907C21.0582 1.81739 20.2954 1.50195 19.5 1.50195C18.7047 1.50195 17.9418 1.81739 17.3788 2.37907C17.3691 2.3886 17.3599 2.39848 17.3508 2.40846L12.2038 8.14351L11.341 7.28072C10.9191 6.85877 10.3468 6.62172 9.75002 6.62172C9.15329 6.62172 8.58099 6.85877 8.15902 7.28072L0.969658 14.4701C0.829012 14.6107 0.75 14.8015 0.75 15.0004C0.75 15.1994 0.829012 15.3901 0.969658 15.5308L8.46966 23.0308C8.61034 23.1714 8.80111 23.2504 9.00002 23.2504C9.19894 23.2504 9.38971 23.1714 9.53039 23.0308L16.7198 15.8414C17.1417 15.4195 17.3787 14.8472 17.3787 14.2504C17.3787 13.6537 17.1417 13.0814 16.7198 12.6594L15.857 11.7967L21.592 6.64964C21.602 6.64058 21.6119 6.63133 21.6214 6.62172C22.1831 6.05864 22.4986 5.29574 22.4986 4.50038C22.4986 3.70501 22.1831 2.94213 21.6213 2.37907V2.37907ZM9.00002 21.4398L7.67613 20.1159L10.07 17.7221C10.2105 17.5814 10.2894 17.3907 10.2893 17.1919C10.2892 16.993 10.2102 16.8024 10.0696 16.6618C9.92902 16.5212 9.73835 16.4422 9.53952 16.4421C9.34069 16.442 9.14997 16.5209 9.00927 16.6614L6.6154 19.0552L5.05113 17.4909L7.445 15.0971C7.58549 14.9564 7.66437 14.7657 7.6643 14.5669C7.66422 14.368 7.58521 14.1774 7.44461 14.0368C7.30402 13.8962 7.11335 13.8172 6.91452 13.8171C6.71569 13.817 6.52497 13.8959 6.38427 14.0364L3.9904 16.4302L2.56066 15.0004L6.75002 10.8112L13.1893 17.2504L9.00002 21.4398Z" fill="#005CE8"/>
</svg>
