<svg width="24" height="24" viewBox="0 0 24 24" fill="none" xmlns="http://www.w3.org/2000/svg">
<path d="M18.8224 5.05216C17.007 3.25458 14.5546 2.24737 11.9998 2.25001C11.9665 2.25001 11.9332 2.25016 11.8999 2.25046C9.60829 2.27435 7.3983 3.10459 5.65778 4.59546C3.91727 6.08634 2.75745 8.14259 2.38186 10.4034C2.00628 12.6641 2.43894 14.9849 3.60391 16.9585C4.76887 18.9321 6.59171 20.4323 8.75251 21.1958C9.20499 21.3553 9.68912 21.404 10.1643 21.3377C10.6395 21.2715 11.0918 21.0922 11.4834 20.815C11.875 20.5378 12.1943 20.1707 12.4147 19.7446C12.6351 19.3184 12.7501 18.8456 12.75 18.3658V18C12.7505 17.6023 12.9087 17.2211 13.1899 16.9398C13.4711 16.6586 13.8523 16.5005 14.25 16.5H18.5822C19.2626 16.5033 19.9237 16.2738 20.4558 15.8497C20.988 15.4256 21.3591 14.8323 21.5076 14.1682C21.6751 13.4295 21.7563 12.6739 21.7497 11.9164C21.7404 10.6354 21.4769 9.36906 20.9744 8.19073C20.4719 7.01239 19.7404 5.94557 18.8224 5.05216ZM8.34065 15.4118C8.14796 15.523 7.9266 15.5746 7.70457 15.5601C7.48254 15.5455 7.26981 15.4655 7.09329 15.33C6.91676 15.1946 6.78437 15.0098 6.71285 14.7991C6.64132 14.5884 6.63389 14.3612 6.69148 14.1463C6.74907 13.9314 6.8691 13.7384 7.03639 13.5917C7.20368 13.445 7.41071 13.3512 7.63131 13.3221C7.85192 13.2931 8.07618 13.3301 8.27573 13.4285C8.47529 13.5269 8.64118 13.6823 8.75243 13.875C8.8263 14.0029 8.87424 14.1442 8.89353 14.2907C8.91281 14.4371 8.90305 14.586 8.86482 14.7287C8.82658 14.8714 8.76061 15.0051 8.67067 15.1223C8.58074 15.2396 8.46859 15.3379 8.34065 15.4118V15.4118ZM8.75243 10.125C8.64118 10.3177 8.47528 10.4731 8.27572 10.5715C8.07617 10.6699 7.85191 10.7069 7.63131 10.6779C7.41071 10.6488 7.20368 10.555 7.03639 10.4083C6.86911 10.2616 6.74908 10.0686 6.6915 9.85366C6.63391 9.63873 6.64135 9.41156 6.71287 9.20087C6.78439 8.99017 6.91678 8.80542 7.0933 8.66997C7.26982 8.53452 7.48255 8.45445 7.70457 8.4399C7.9266 8.42534 8.14796 8.47695 8.34065 8.5882C8.4686 8.66207 8.58074 8.76041 8.67068 8.87762C8.76062 8.99483 8.82659 9.12861 8.86483 9.27132C8.90307 9.41402 8.91282 9.56286 8.89354 9.70934C8.87425 9.85582 8.8263 9.99706 8.75243 10.125V10.125ZM12 8.25C11.7775 8.25 11.56 8.18402 11.375 8.06041C11.19 7.93679 11.0458 7.76109 10.9607 7.55552C10.8755 7.34996 10.8532 7.12376 10.8966 6.90553C10.9401 6.6873 11.0472 6.48684 11.2045 6.32951C11.3619 6.17218 11.5623 6.06503 11.7805 6.02162C11.9988 5.97821 12.225 6.00049 12.4305 6.08564C12.6361 6.17079 12.8118 6.31498 12.9354 6.49999C13.059 6.68499 13.125 6.9025 13.125 7.125C13.125 7.42337 13.0065 7.70952 12.7955 7.9205C12.5845 8.13148 12.2984 8.25 12 8.25ZM16.7844 10.5368C16.5917 10.648 16.3703 10.6996 16.1483 10.6851C15.9263 10.6705 15.7136 10.5905 15.537 10.455C15.3605 10.3196 15.2281 10.1348 15.1566 9.9241C15.0851 9.71341 15.0776 9.48623 15.1352 9.27131C15.1928 9.05639 15.3128 8.86337 15.4801 8.71666C15.6474 8.56996 15.8545 8.47615 16.0751 8.44711C16.2957 8.41807 16.5199 8.4551 16.7195 8.55351C16.919 8.65193 17.0849 8.80731 17.1962 9C17.27 9.12795 17.318 9.26919 17.3373 9.41566C17.3566 9.56213 17.3468 9.71096 17.3086 9.85367C17.2703 9.99637 17.2044 10.1301 17.1144 10.2473C17.0245 10.3646 16.9123 10.4629 16.7844 10.5368V10.5368Z" fill="#005CE8"/>
</svg>
