<svg width="24" height="24" viewBox="0 0 24 24" fill="none" xmlns="http://www.w3.org/2000/svg">
<path d="M21.75 6V4.5C21.7495 4.10231 21.5914 3.72105 21.3102 3.43984C21.029 3.15864 20.6477 3.00045 20.25 3H3.75C3.35231 3.00045 2.97105 3.15864 2.68984 3.43984C2.40864 3.72105 2.25045 4.10231 2.25 4.5V6C2.25045 6.39768 2.40864 6.77895 2.68984 7.06016C2.97105 7.34136 3.35231 7.49954 3.75 7.5V16.5H3C2.80109 16.5 2.61032 16.579 2.46967 16.7197C2.32902 16.8603 2.25 17.0511 2.25 17.25C2.25 17.4489 2.32902 17.6397 2.46967 17.7803C2.61032 17.921 2.80109 18 3 18H11.25V19.629C10.7496 19.8059 10.3278 20.1541 10.0593 20.6119C9.79072 21.0697 9.69265 21.6077 9.7824 22.1308C9.87216 22.6539 10.144 23.1285 10.5498 23.4706C10.9556 23.8127 11.4692 24.0003 12 24.0003C12.5308 24.0003 13.0444 23.8127 13.4502 23.4706C13.856 23.1285 14.1278 22.6539 14.2176 22.1308C14.3073 21.6077 14.2093 21.0697 13.9407 20.6119C13.6722 20.1541 13.2504 19.8059 12.75 19.629V18H21C21.1989 18 21.3897 17.921 21.5303 17.7803C21.671 17.6397 21.75 17.4489 21.75 17.25C21.75 17.0511 21.671 16.8603 21.5303 16.7197C21.3897 16.579 21.1989 16.5 21 16.5H20.25V7.5C20.6477 7.49954 21.029 7.34136 21.3102 7.06016C21.5914 6.77895 21.7495 6.39768 21.75 6ZM9.75 13.5C9.75 13.6989 9.67098 13.8897 9.53033 14.0303C9.38968 14.171 9.19891 14.25 9 14.25C8.80109 14.25 8.61032 14.171 8.46967 14.0303C8.32902 13.8897 8.25 13.6989 8.25 13.5V12C8.25 11.8011 8.32902 11.6103 8.46967 11.4697C8.61032 11.329 8.80109 11.25 9 11.25C9.19891 11.25 9.38968 11.329 9.53033 11.4697C9.67098 11.6103 9.75 11.8011 9.75 12V13.5ZM12 22.5C11.8517 22.5 11.7067 22.456 11.5833 22.3736C11.46 22.2912 11.3639 22.1741 11.3071 22.037C11.2503 21.9 11.2355 21.7492 11.2644 21.6037C11.2933 21.4582 11.3648 21.3246 11.4697 21.2197C11.5746 21.1148 11.7082 21.0433 11.8537 21.0144C11.9992 20.9855 12.15 21.0003 12.287 21.0571C12.4241 21.1139 12.5412 21.21 12.6236 21.3333C12.706 21.4567 12.75 21.6017 12.75 21.75C12.7498 21.9488 12.6707 22.1395 12.5301 22.2801C12.3895 22.4207 12.1988 22.4998 12 22.5V22.5ZM12.75 13.5C12.75 13.6989 12.671 13.8897 12.5303 14.0303C12.3897 14.171 12.1989 14.25 12 14.25C11.8011 14.25 11.6103 14.171 11.4697 14.0303C11.329 13.8897 11.25 13.6989 11.25 13.5V11.25C11.25 11.0511 11.329 10.8603 11.4697 10.7197C11.6103 10.579 11.8011 10.5 12 10.5C12.1989 10.5 12.3897 10.579 12.5303 10.7197C12.671 10.8603 12.75 11.0511 12.75 11.25V13.5ZM15.75 13.5C15.75 13.6989 15.671 13.8897 15.5303 14.0303C15.3897 14.171 15.1989 14.25 15 14.25C14.8011 14.25 14.6103 14.171 14.4697 14.0303C14.329 13.8897 14.25 13.6989 14.25 13.5V10.5C14.25 10.3011 14.329 10.1103 14.4697 9.96967C14.6103 9.82902 14.8011 9.75 15 9.75C15.1989 9.75 15.3897 9.82902 15.5303 9.96967C15.671 10.1103 15.75 10.3011 15.75 10.5V13.5ZM3.75 6V4.5H20.25L20.2509 6H3.75Z" fill="#005CE8"/>
</svg>
