<svg width="24" height="24" viewBox="0 0 24 24" fill="none" xmlns="http://www.w3.org/2000/svg">
<path d="M13.5 20.25H10.5C10.3011 20.25 10.1103 20.329 9.96967 20.4697C9.82902 20.6103 9.75 20.8011 9.75 21C9.75 21.1989 9.82902 21.3897 9.96967 21.5303C10.1103 21.671 10.3011 21.75 10.5 21.75H13.5C13.6989 21.75 13.8897 21.671 14.0303 21.5303C14.171 21.3897 14.25 21.1989 14.25 21C14.25 20.8011 14.171 20.6103 14.0303 20.4697C13.8897 20.329 13.6989 20.25 13.5 20.25Z" fill="#005CE8"/>
<path d="M20.5899 13.4866L17.7552 10.085C17.6646 8.96455 17.4126 7.86308 17.007 6.81468C15.9179 3.98231 13.9924 2.12727 12.9415 1.27354C12.6751 1.05905 12.3436 0.941578 12.0015 0.940438C11.6594 0.939298 11.3271 1.05456 11.0592 1.26727C9.99465 2.12013 8.04439 3.9738 6.94429 6.80658C6.52519 7.8787 6.26931 9.00762 6.18518 10.1557L3.40944 13.4866C3.26322 13.6632 3.15914 13.8707 3.10508 14.0935C3.05102 14.3162 3.0484 14.5484 3.09743 14.7723L4.25649 19.9879C4.31142 20.2367 4.4289 20.4675 4.59784 20.6583C4.76677 20.8491 4.98158 20.9937 5.22195 21.0784C5.46233 21.1631 5.72032 21.185 5.97156 21.1422C6.22279 21.0994 6.45896 20.9933 6.65774 20.8338L9.26268 18.7499H14.7366L17.3415 20.8338C17.6062 21.0469 17.9358 21.1632 18.2757 21.1635C18.4464 21.1634 18.6159 21.1342 18.7769 21.0773C19.0176 20.9934 19.2328 20.8492 19.4019 20.6585C19.571 20.4678 19.6883 20.2369 19.7428 19.9879L20.9019 14.7724C20.9509 14.5485 20.9483 14.3163 20.8942 14.0935C20.8402 13.8707 20.7361 13.6632 20.5899 13.4866V13.4866ZM5.72078 19.6625L4.56173 14.4469L6.24234 12.4301C6.4554 14.1824 7.05354 15.9756 8.03675 17.8098L5.72078 19.6625ZM11.9997 10.1249C11.7771 10.1249 11.5596 10.0589 11.3746 9.93526C11.1896 9.81165 11.0454 9.63594 10.9603 9.43038C10.8751 9.22481 10.8529 8.99861 10.8963 8.78038C10.9397 8.56215 11.0468 8.3617 11.2042 8.20436C11.3615 8.04703 11.5619 7.93988 11.7802 7.89648C11.9984 7.85307 12.2246 7.87535 12.4302 7.96049C12.6357 8.04564 12.8114 8.18984 12.9351 8.37484C13.0587 8.55985 13.1247 8.77736 13.1247 8.99986C13.1247 9.29823 13.0061 9.58438 12.7951 9.79535C12.5842 10.0063 12.298 10.1249 11.9997 10.1249ZM18.2785 19.6625L15.9582 17.8063C16.9289 15.9593 17.5146 14.1506 17.7154 12.3803L19.4376 14.4469L18.2785 19.6625Z" fill="#005CE8"/>
</svg>
