<svg width="14" height="18" viewBox="0 0 14 18" fill="none" xmlns="http://www.w3.org/2000/svg">
<path d="M10.1244 9.83333C10.1244 9.48816 9.84453 9.20833 9.49935 9.20833H4.49935C4.15417 9.20833 3.87435 9.48816 3.87435 9.83333C3.87435 10.1785 4.15417 10.4583 4.49935 10.4583H9.49935C9.84453 10.4583 10.1244 10.1785 10.1244 9.83333Z" fill="#959FA3"/>
<path d="M10.1244 13.1667C10.1244 12.8215 9.84453 12.5417 9.49935 12.5417H4.49935C4.15417 12.5417 3.87435 12.8215 3.87435 13.1667C3.87435 13.5118 4.15417 13.7917 4.49935 13.7917H9.49935C9.84453 13.7917 10.1244 13.5118 10.1244 13.1667Z" fill="#959FA3"/>
<path fill-rule="evenodd" clip-rule="evenodd" d="M2.83268 0.875C1.56703 0.875 0.541016 1.90101 0.541016 3.16667V14.8333C0.541016 16.099 1.56703 17.125 2.83268 17.125H11.166C12.4317 17.125 13.4577 16.099 13.4577 14.8333V5.63971C13.4577 5.32241 13.3542 5.01375 13.1629 4.76058L10.6648 1.4542C10.3891 1.08941 9.9584 0.875 9.5012 0.875H2.83268ZM1.79102 3.16667C1.79102 2.59137 2.25739 2.125 2.83268 2.125H8.87435V5.7892C8.87435 6.13438 9.15417 6.4142 9.49935 6.4142H12.2077V14.8333C12.2077 15.4086 11.7413 15.875 11.166 15.875H2.83268C2.25739 15.875 1.79102 15.4086 1.79102 14.8333V3.16667Z" fill="#959FA3"/>
</svg>
