<svg width="40" height="40" viewBox="0 0 40 40" fill="none" xmlns="http://www.w3.org/2000/svg">
<path fill-rule="evenodd" clip-rule="evenodd" d="M35.8131 17.0833C35.7725 16.7815 35.7281 16.48 35.6801 16.179L35.5733 15.5099C35.1978 13.1577 33.1689 11.4268 30.7869 11.4268L17.2586 11.4268C16.7569 9.64192 15.1172 8.33331 13.1719 8.33331H9.35263C6.88125 8.33331 4.7996 10.1799 4.50494 12.6337L4.0508 16.4156C3.56305 20.4773 3.68893 24.5892 4.42422 28.6135C4.81758 30.7664 6.61814 32.3802 8.80112 32.5364L11.3245 32.7169C17.1007 33.1302 22.899 33.1302 28.6752 32.7169L31.405 32.5216C32.7526 32.4252 33.9459 31.7406 34.7145 30.71C35.7373 29.7289 36.5421 28.5306 37.0629 27.1916L39.1453 21.8368C40.0347 19.5497 38.3476 17.0833 35.8935 17.0833H35.8131ZM9.35263 10.8333C8.14667 10.8333 7.13089 11.7344 6.98711 12.9318L6.53297 16.7136C6.07511 20.5265 6.19327 24.3865 6.8835 28.1642C7.07187 29.1951 7.93413 29.968 8.97952 30.0427L9.12286 30.053L13.0097 20.0121C13.693 18.2469 15.3911 17.0833 17.2839 17.0833H33.2889C33.2643 16.9131 33.2385 16.743 33.2113 16.573L33.1045 15.9039C32.9227 14.7649 31.9403 13.9268 30.7869 13.9268L16.2654 13.9268C15.5204 13.9268 14.9165 13.3229 14.9165 12.5779C14.9165 11.6144 14.1354 10.8333 13.1719 10.8333H9.35263Z" fill="#191B1C"/>
</svg>
