<svg width="20" height="20" viewBox="0 0 20 20" fill="none" xmlns="http://www.w3.org/2000/svg">
<path fill-rule="evenodd" clip-rule="evenodd" d="M7.441 3.72524C6.38165 3.60684 5.28507 3.60684 4.22572 3.72524C3.96831 3.75401 3.76531 3.95783 3.73636 4.20538C3.60985 5.287 3.60985 6.37967 3.73636 7.46129C3.76531 7.70884 3.96831 7.91266 4.22572 7.94143C5.28507 8.05983 6.38165 8.05983 7.441 7.94143C7.69841 7.91266 7.90141 7.70884 7.93036 7.46129C8.05687 6.37967 8.05687 5.287 7.93036 4.20538C7.90141 3.95783 7.69841 3.75401 7.441 3.72524ZM4.08688 2.48297C5.2385 2.35426 6.42822 2.35426 7.57984 2.48297C8.40554 2.57526 9.07425 3.22524 9.1719 4.06017C9.30969 5.23826 9.30969 6.4284 9.1719 7.6065C9.07425 8.44142 8.40554 9.09141 7.57984 9.1837C6.42822 9.31241 5.2385 9.31241 4.08688 9.1837C3.26118 9.09141 2.59247 8.44142 2.49482 7.6065C2.35703 6.4284 2.35703 5.23826 2.49482 4.06017C2.59247 3.22524 3.26118 2.57526 4.08688 2.48297Z" fill="#4A5154"/>
<path fill-rule="evenodd" clip-rule="evenodd" d="M7.441 12.0586C6.38165 11.9402 5.28507 11.9402 4.22572 12.0586C3.96831 12.0873 3.76531 12.2912 3.73636 12.5387C3.60985 13.6203 3.60985 14.713 3.73636 15.7946C3.76531 16.0422 3.96831 16.246 4.22572 16.2748C5.28507 16.3932 6.38165 16.3932 7.441 16.2748C7.69841 16.246 7.90141 16.0422 7.93036 15.7946C8.05687 14.713 8.05687 13.6203 7.93036 12.5387C7.90141 12.2912 7.69841 12.0873 7.441 12.0586ZM4.08688 10.8163C5.2385 10.6876 6.42822 10.6876 7.57984 10.8163C8.40554 10.9086 9.07425 11.5586 9.1719 12.3935C9.30969 13.5716 9.30969 14.7617 9.1719 15.9398C9.07425 16.7748 8.40554 17.4247 7.57984 17.517C6.42822 17.6457 5.2385 17.6457 4.08688 17.517C3.26118 17.4247 2.59247 16.7748 2.49482 15.9398C2.35703 14.7617 2.35703 13.5716 2.49482 12.3935C2.59247 11.5586 3.26118 10.9086 4.08688 10.8163Z" fill="#4A5154"/>
<path fill-rule="evenodd" clip-rule="evenodd" d="M15.7743 3.72524C14.715 3.60684 13.6184 3.60684 12.5591 3.72524C12.3016 3.75401 12.0986 3.95783 12.0697 4.20538C11.9432 5.287 11.9432 6.37967 12.0697 7.46129C12.0986 7.70884 12.3016 7.91266 12.5591 7.94143C13.6184 8.05983 14.715 8.05983 15.7743 7.94143C16.0317 7.91266 16.2347 7.70884 16.2637 7.46129C16.3902 6.37967 16.3902 5.287 16.2637 4.20538C16.2347 3.95783 16.0317 3.75401 15.7743 3.72524ZM12.4202 2.48297C13.5718 2.35426 14.7616 2.35426 15.9132 2.48297C16.7389 2.57526 17.4076 3.22524 17.5052 4.06017C17.643 5.23826 17.643 6.4284 17.5052 7.6065C17.4076 8.44142 16.7389 9.09141 15.9132 9.1837C14.7616 9.31241 13.5718 9.31241 12.4202 9.1837C11.5945 9.09141 10.9258 8.44142 10.8282 7.6065C10.6904 6.4284 10.6904 5.23826 10.8282 4.06017C10.9258 3.22524 11.5945 2.57526 12.4202 2.48297Z" fill="#4A5154"/>
<path fill-rule="evenodd" clip-rule="evenodd" d="M15.7743 12.0586C14.715 11.9402 13.6184 11.9402 12.5591 12.0586C12.3016 12.0873 12.0986 12.2912 12.0697 12.5387C11.9432 13.6203 11.9432 14.713 12.0697 15.7946C12.0986 16.0422 12.3016 16.246 12.5591 16.2748C13.6184 16.3932 14.715 16.3932 15.7743 16.2748C16.0317 16.246 16.2347 16.0422 16.2637 15.7946C16.3902 14.713 16.3902 13.6203 16.2637 12.5387C16.2347 12.2912 16.0317 12.0873 15.7743 12.0586ZM12.4202 10.8163C13.5718 10.6876 14.7616 10.6876 15.9132 10.8163C16.7389 10.9086 17.4076 11.5586 17.5052 12.3935C17.643 13.5716 17.643 14.7617 17.5052 15.9398C17.4076 16.7748 16.7389 17.4247 15.9132 17.517C14.7616 17.6457 13.5718 17.6457 12.4202 17.517C11.5945 17.4247 10.9258 16.7748 10.8282 15.9398C10.6904 14.7617 10.6904 13.5716 10.8282 12.3935C10.9258 11.5586 11.5945 10.9086 12.4202 10.8163Z" fill="#4A5154"/>
</svg>
