<svg width="21" height="20" viewBox="0 0 21 20" fill="none" xmlns="http://www.w3.org/2000/svg">
<path d="M12.3745 16.2491V12.4991C12.3745 12.3333 12.3087 12.1743 12.1915 12.0571C12.0743 11.9399 11.9153 11.8741 11.7495 11.8741H9.24954C9.08378 11.8741 8.92481 11.9399 8.8076 12.0571C8.69039 12.1743 8.62454 12.3333 8.62454 12.4991V16.2491C8.62454 16.4149 8.5587 16.5738 8.44151 16.691C8.32432 16.8083 8.16537 16.8741 7.99962 16.8741L4.25008 16.8746C4.168 16.8746 4.08671 16.8585 4.01088 16.8271C3.93504 16.7957 3.86613 16.7496 3.80809 16.6916C3.75004 16.6336 3.704 16.5647 3.67258 16.4888C3.64117 16.413 3.625 16.3317 3.625 16.2496V9.02616C3.625 8.93908 3.64319 8.85297 3.67842 8.77333C3.71364 8.6937 3.76511 8.62231 3.82954 8.56373L10.0791 2.88132C10.1942 2.77672 10.3441 2.71876 10.4995 2.71875C10.655 2.71874 10.8049 2.7767 10.92 2.8813L17.1704 8.56373C17.2349 8.6223 17.2863 8.6937 17.3216 8.77334C17.3568 8.85298 17.375 8.9391 17.375 9.02618V16.2496C17.375 16.3317 17.3588 16.413 17.3274 16.4888C17.296 16.5647 17.25 16.6336 17.1919 16.6916C17.1339 16.7496 17.065 16.7957 16.9891 16.8271C16.9133 16.8585 16.832 16.8746 16.7499 16.8746L12.9995 16.8741C12.8337 16.8741 12.6748 16.8083 12.5576 16.691C12.4404 16.5738 12.3745 16.4149 12.3745 16.2491V16.2491Z" stroke="white" stroke-width="1.25" stroke-linecap="round" stroke-linejoin="round"/>
</svg>
