<svg width="24" height="24" viewBox="0 0 24 24" fill="none" xmlns="http://www.w3.org/2000/svg">
<path d="M12.0002 2.24994C10.0719 2.24994 8.18682 2.82177 6.58344 3.89311C4.98006 4.96445 3.73038 6.4872 2.99242 8.26878C2.25447 10.0504 2.06139 12.0108 2.43759 13.9021C2.8138 15.7934 3.7424 17.5307 5.10596 18.8942C6.46952 20.2578 8.2068 21.1864 10.0981 21.5626C11.9894 21.9388 13.9498 21.7457 15.7314 21.0078C17.513 20.2698 19.0357 19.0201 20.1071 17.4167C21.1784 15.8134 21.7502 13.9283 21.7502 11.9999C21.7473 9.41498 20.7192 6.93673 18.8913 5.10888C17.0635 3.28103 14.5852 2.25286 12.0002 2.24994ZM11.8128 6.74997C12.0353 6.74997 12.2528 6.81595 12.4378 6.93957C12.6228 7.06319 12.767 7.23889 12.8522 7.44445C12.9373 7.65002 12.9596 7.87622 12.9162 8.09445C12.8728 8.31268 12.7656 8.51314 12.6083 8.67047C12.451 8.8278 12.2505 8.93495 12.0323 8.97836C11.814 9.02177 11.5878 8.99949 11.3823 8.91434C11.1767 8.82919 11.001 8.68499 10.8774 8.49999C10.7538 8.31498 10.6878 8.09748 10.6878 7.87497C10.6878 7.57661 10.8063 7.29046 11.0173 7.07948C11.2283 6.8685 11.5144 6.74997 11.8128 6.74997ZM12.7503 17.2499H12.0003C11.8013 17.2499 11.6106 17.1709 11.4699 17.0303C11.3293 16.8896 11.2503 16.6988 11.2503 16.4999V11.9999C11.0513 11.9999 10.8606 11.9209 10.7199 11.7803C10.5793 11.6396 10.5003 11.4489 10.5003 11.2499C10.5003 11.051 10.5793 10.8603 10.7199 10.7196C10.8606 10.579 11.0513 10.4999 11.2503 10.4999H12.0003C12.1992 10.4999 12.3899 10.579 12.5306 10.7196C12.6712 10.8603 12.7502 11.051 12.7503 11.2499V15.7499C12.9492 15.7499 13.1399 15.829 13.2806 15.9696C13.4212 16.1103 13.5003 16.301 13.5003 16.4999C13.5003 16.6989 13.4212 16.8896 13.2806 17.0303C13.1399 17.1709 12.9492 17.2499 12.7503 17.2499Z" fill="#005CE8"/>
</svg>
