<svg width="40" height="40" viewBox="0 0 40 40" fill="none" xmlns="http://www.w3.org/2000/svg">
<path d="M1.39794 9.2764C1.39794 9.7173 1.12993 10.0435 0.670174 10.0435C0.287309 10.0435 0 9.7173 0 9.2764C0 8.8542 0.306291 8.50903 0.70846 8.50903C1.12993 8.50903 1.39794 8.8542 1.39794 9.2764ZM0.338143 32.3315V14.6957H1.05979V32.3315H0.338143ZM25.0625 19.766C25.0625 28.6574 20.1351 32.6992 14.7416 32.6992C9.23186 32.6992 4.77004 28.3273 4.77004 20.1337C4.77004 11.7207 9.38726 7.20117 15.1296 7.20117C20.7554 7.20053 25.0625 11.6462 25.0625 19.766ZM5.50134 19.9497C5.50134 26.6914 8.76309 31.9286 14.7757 31.9286C20.8301 31.9286 24.3026 26.5302 24.3026 19.873C24.3026 13.6995 21.5202 8.06556 15.1711 8.06556C8.82197 8.06556 5.50134 13.3701 5.50134 19.9497ZM27.711 30.4206C28.9217 31.2289 31.0114 32.0095 32.8086 32.0095C36.2196 32.0095 39.2533 29.6191 39.2533 26.1006C39.2533 22.8355 37.2324 21.1319 33.8015 19.6683C30.7308 18.3586 27.97 16.9369 27.97 13.4465C27.97 9.80947 30.8306 7.23695 34.7184 7.23695C36.809 7.23695 38.3862 7.8248 39.1197 8.33918L38.8282 8.97345C38.2047 8.53288 36.5195 7.97145 34.6862 7.97145C30.5774 7.97145 28.7875 11.0816 28.7875 13.3711C28.7875 16.5334 31.2347 17.5909 34.3889 19.0972C38.0564 20.8972 40 22.4845 40 25.9385C40 29.6494 37.3595 32.6615 32.6648 32.6615C30.7205 32.6615 28.4835 32.0005 27.3832 31.1551L27.711 30.4206Z" fill="black"/>
</svg>
