<svg width="20" height="20" viewBox="0 0 20 20" fill="none" xmlns="http://www.w3.org/2000/svg">
<path d="M12.2087 6.90569L6.9054 12.209C6.78833 12.3262 6.7226 12.4851 6.72266 12.6508C6.72272 12.8165 6.78856 12.9754 6.90573 13.0926C7.02289 13.2097 7.18178 13.2756 7.34747 13.2756C7.51316 13.2757 7.6721 13.21 7.78934 13.0929L13.0926 7.78963C13.1507 7.7316 13.1968 7.66269 13.2283 7.58684C13.2598 7.51099 13.276 7.42968 13.276 7.34756C13.276 7.26544 13.2599 7.18412 13.2285 7.10824C13.1971 7.03237 13.151 6.96343 13.0929 6.90536C13.0349 6.84729 12.9659 6.80124 12.8901 6.76982C12.8142 6.73841 12.7329 6.72226 12.6507 6.72229C12.5686 6.72232 12.4873 6.73853 12.4115 6.77C12.3356 6.80147 12.2667 6.84757 12.2087 6.90568V6.90569Z" fill="#959FA3"/>
<path d="M10.8842 13.5354L8.67453 15.7451C8.08849 16.3311 7.29365 16.6604 6.46486 16.6604C5.63608 16.6604 4.84124 16.3311 4.2552 15.7451C3.66916 15.1591 3.33993 14.3642 3.33993 13.5354C3.33993 12.7067 3.66916 11.9118 4.2552 11.3258L6.4649 9.11607C6.52301 9.05805 6.56912 8.98914 6.60058 8.91329C6.63205 8.83744 6.64826 8.75613 6.64829 8.67401C6.64832 8.59189 6.63217 8.51057 6.60076 8.43469C6.56935 8.35882 6.52329 8.28987 6.46522 8.23181C6.40716 8.17374 6.33821 8.12768 6.26234 8.09627C6.18647 8.06486 6.10514 8.04871 6.02302 8.04874C5.9409 8.04877 5.85959 8.06498 5.78374 8.09645C5.70789 8.12791 5.63898 8.17402 5.58096 8.23213L3.37126 10.4418C2.55078 11.2623 2.08984 12.3751 2.08984 13.5354C2.08984 14.6958 2.55078 15.8086 3.37126 16.629C4.19173 17.4495 5.30453 17.9105 6.46486 17.9105C7.62519 17.9105 8.73799 17.4495 9.55847 16.629L11.7682 14.4193C11.8854 14.3021 11.9512 14.1431 11.9512 13.9774C11.9512 13.8116 11.8854 13.6526 11.7682 13.5354C11.6509 13.4182 11.492 13.3523 11.3262 13.3523C11.1604 13.3523 11.0014 13.4182 10.8842 13.5354Z" fill="#959FA3"/>
<path d="M16.6285 3.37031C15.808 2.54987 14.6952 2.08896 13.5349 2.08896C12.3746 2.08896 11.2618 2.54987 10.4413 3.37031L8.23158 5.58002C8.1145 5.69726 8.04877 5.8562 8.04883 6.02189C8.04889 6.18758 8.11474 6.34647 8.2319 6.46363C8.34906 6.5808 8.50795 6.64664 8.67364 6.64671C8.83933 6.64677 8.99827 6.58103 9.11552 6.46396L11.3252 4.25426C11.9113 3.66852 12.7061 3.33955 13.5347 3.33968C14.3633 3.33982 15.1579 3.66904 15.7438 4.25496C16.3298 4.84087 16.659 5.63551 16.6591 6.46413C16.6592 7.29274 16.3303 8.08748 15.7445 8.67358L13.5348 10.8833C13.4178 11.0005 13.352 11.1595 13.3521 11.3252C13.3522 11.4909 13.418 11.6497 13.5352 11.7669C13.6523 11.8841 13.8112 11.9499 13.9769 11.95C14.1426 11.95 14.3015 11.8843 14.4188 11.7672L16.6285 9.55753C17.4477 8.7364 17.9078 7.62384 17.9078 6.46392C17.9078 5.304 17.4477 4.19144 16.6285 3.37031Z" fill="#959FA3"/>
</svg>
