<svg width="24" height="24" viewBox="0 0 24 24" fill="none" xmlns="http://www.w3.org/2000/svg">
<path opacity="0.2" d="M12 2.25C10.0109 2.25 8.10323 3.04018 6.6967 4.4467C5.29018 5.85323 4.5 7.76088 4.5 9.75C4.5 16.5 12 21.75 12 21.75C12 21.75 19.5 16.5 19.5 9.75C19.5 7.76088 18.7098 5.85323 17.3033 4.4467C15.8968 3.04018 13.9891 2.25 12 2.25ZM12 12.75C11.4067 12.75 10.8266 12.5741 10.3333 12.2444C9.83994 11.9148 9.45542 11.4462 9.22836 10.8981C9.0013 10.3499 8.94189 9.74667 9.05764 9.16473C9.1734 8.58279 9.45912 8.04824 9.87868 7.62868C10.2982 7.20912 10.8328 6.9234 11.4147 6.80764C11.9967 6.69189 12.5999 6.7513 13.1481 6.97836C13.6962 7.20542 14.1648 7.58994 14.4944 8.08329C14.8241 8.57664 15 9.15666 15 9.75C15 10.5456 14.6839 11.3087 14.1213 11.8713C13.5587 12.4339 12.7956 12.75 12 12.75Z" fill="#005CE8"/>
<path d="M5.25 21.75H18.75" stroke="#005CE8" stroke-width="1.25" stroke-linecap="round" stroke-linejoin="round"/>
<path d="M12 12.75C13.6569 12.75 15 11.4069 15 9.75C15 8.09315 13.6569 6.75 12 6.75C10.3431 6.75 9 8.09315 9 9.75C9 11.4069 10.3431 12.75 12 12.75Z" stroke="#005CE8" stroke-width="1.25" stroke-linecap="round" stroke-linejoin="round"/>
<path d="M19.5 9.75C19.5 16.5 12 21.75 12 21.75C12 21.75 4.5 16.5 4.5 9.75C4.5 7.76088 5.29018 5.85322 6.6967 4.4467C8.10322 3.04018 10.0109 2.25 12 2.25C13.9891 2.25 15.8968 3.04018 17.3033 4.4467C18.7098 5.85322 19.5 7.76088 19.5 9.75V9.75Z" stroke="#005CE8" stroke-width="1.25" stroke-linecap="round" stroke-linejoin="round"/>
</svg>
