<svg width="24" height="24" viewBox="0 0 24 24" fill="none" xmlns="http://www.w3.org/2000/svg">
<path d="M21 16.6247V7.37695C21 7.24387 20.9646 7.11319 20.8974 6.99832C20.8302 6.88344 20.7337 6.78851 20.6177 6.72327L12.3677 2.08265C12.2554 2.0195 12.1288 1.98633 12 1.98633C11.8712 1.98633 11.7446 2.0195 11.6323 2.08265L3.3823 6.72327C3.26632 6.78851 3.16978 6.88344 3.10259 6.99832C3.03541 7.11319 3 7.24387 3 7.37695V16.6247C3 16.7578 3.03541 16.8884 3.10259 17.0033C3.16978 17.1182 3.26632 17.2131 3.3823 17.2784L11.6323 21.919C11.7446 21.9821 11.8712 22.0153 12 22.0153C12.1288 22.0153 12.2554 21.9821 12.3677 21.919L20.6177 17.2784C20.7337 17.2131 20.8302 17.1182 20.8974 17.0033C20.9646 16.8884 21 16.7578 21 16.6247Z" stroke="#005CE8" stroke-width="1.5" stroke-linecap="round" stroke-linejoin="round"/>
<path d="M16.5958 14.2979V9.42291L7.5 4.40625" stroke="#005CE8" stroke-width="1.5" stroke-linecap="round" stroke-linejoin="round"/>
<path d="M20.8967 6.99703L12.0891 12.0007L3.104 6.99609" stroke="#005CE8" stroke-width="1.5" stroke-linecap="round" stroke-linejoin="round"/>
<path d="M12.089 12L12.001 22.0145" stroke="#005CE8" stroke-width="1.5" stroke-linecap="round" stroke-linejoin="round"/>
</svg>
