<svg width="20" height="20" viewBox="0 0 20 20" fill="none" xmlns="http://www.w3.org/2000/svg">
<path d="M18.1748 5.18904C18.2231 5.12173 18.1517 5.03482 18.0745 5.06476C17.5256 5.27754 16.9519 5.4211 16.3667 5.49184C17.0183 5.10257 17.5211 4.51001 17.7999 3.80845C17.8283 3.73699 17.7502 3.67316 17.6829 3.71034C17.0773 4.04479 16.4242 4.28562 15.7457 4.42432C15.7173 4.43012 15.6881 4.42046 15.6681 4.39942C15.159 3.86219 14.4888 3.50449 13.7582 3.38088C13.0122 3.25468 12.2454 3.37964 11.5781 3.73617C10.9109 4.09269 10.3808 4.66062 10.071 5.35087C9.77652 6.00717 9.69705 6.73876 9.84231 7.44137C9.85358 7.49588 9.8109 7.54735 9.75534 7.5439C8.4353 7.46192 7.14555 7.11081 5.96554 6.51173C4.78853 5.91417 3.74625 5.08286 2.90219 4.06909C2.86473 4.0241 2.79373 4.02992 2.76644 4.08171C2.5038 4.5801 2.36629 5.1356 2.36666 5.70017C2.36559 6.26216 2.50351 6.81569 2.76812 7.31148C3.03274 7.80727 3.41584 8.22993 3.88333 8.54184C3.38756 8.52835 2.90145 8.40579 2.45937 8.18357C2.40239 8.15493 2.33405 8.19571 2.33702 8.2594C2.37149 9.00043 2.64354 9.74437 3.11442 10.3151C3.61552 10.9225 4.31104 11.3382 5.08333 11.4918C4.78604 11.5823 4.47739 11.63 4.16666 11.6335C3.99754 11.6315 3.82875 11.6191 3.66127 11.5962C3.59917 11.5877 3.54847 11.6467 3.5702 11.7054C3.80055 12.3283 4.20749 12.8719 4.74255 13.2686C5.3146 13.6928 6.00464 13.9281 6.71666 13.9418C5.51433 14.8879 4.0299 15.4042 2.49999 15.4085C2.34279 15.409 2.18566 15.4039 2.02889 15.3932C1.94055 15.3872 1.89992 15.5049 1.97607 15.5501C3.46671 16.4347 5.17048 16.9023 6.90833 16.9002C8.1914 16.9135 9.46427 16.671 10.6526 16.1869C11.8409 15.7028 12.9208 14.9867 13.8293 14.0806C14.7378 13.1744 15.4566 12.0963 15.9438 10.9093C16.431 9.72219 16.6767 8.44995 16.6667 7.16684V6.76698C16.6667 6.74067 16.6791 6.71593 16.7001 6.70008C17.2653 6.27329 17.7624 5.76376 18.1748 5.18904Z" fill="#005CE8"/>
</svg>
