<svg width="60" height="20" viewBox="0 0 60 20" fill="none" xmlns="http://www.w3.org/2000/svg">
<path d="M26.0106 19.6666H21.1147L24.1745 0.345246H29.0709L26.0106 19.6666ZM16.996 0.345246L12.3285 13.6346L11.7762 10.7729L11.7767 10.774L10.1293 2.08492C10.1293 2.08492 9.93008 0.345246 7.80684 0.345246H0.0905434L0 0.672403C0 0.672403 2.35966 1.17683 5.12123 2.88084L9.37475 19.6672H14.4759L22.2651 0.345246H16.996ZM55.5045 19.6666H60L56.0805 0.344729H52.1449C50.3275 0.344729 49.8848 1.78463 49.8848 1.78463L42.583 19.6666H47.6866L48.7072 16.7966H54.9311L55.5045 19.6666ZM50.1172 12.832L52.6896 5.60147L54.1368 12.832H50.1172ZM42.9658 4.9916L43.6645 0.842441C43.6645 0.842441 41.5086 0 39.2611 0C36.8315 0 31.0619 1.09104 31.0619 6.39636C31.0619 11.388 37.8335 11.45 37.8335 14.0719C37.8335 16.6938 31.7596 16.224 29.755 14.5706L29.0272 18.909C29.0272 18.909 31.2133 20 34.5533 20C37.8944 20 42.9346 18.2226 42.9346 13.385C42.9346 8.36137 36.1021 7.89364 36.1021 5.70949C36.1026 3.52482 40.8707 3.80546 42.9658 4.9916Z" fill="white"/>
<path d="M11.7767 10.7734L10.1293 2.08439C10.1293 2.08439 9.93009 0.344727 7.80685 0.344727H0.0905435L0 0.671883C0 0.671883 3.70876 1.46161 7.26611 4.42049C10.6675 7.24862 11.7767 10.7734 11.7767 10.7734Z" fill="white"/>
</svg>
