<svg width="32" height="32" viewBox="0 0 32 32" fill="none" xmlns="http://www.w3.org/2000/svg">
<path opacity="0.2" d="M28.3236 8.97665C28.2455 8.67033 28.0956 8.38702 27.8862 8.15019C27.6768 7.91337 27.414 7.72985 27.1195 7.61484C22.9349 6.00674 16 6.0509 16 6.0509C16 6.0509 9.06519 6.00674 4.8805 7.61484C4.58605 7.72986 4.32324 7.91337 4.11385 8.15019C3.90445 8.38701 3.75449 8.67031 3.6764 8.97663C3.38428 10.0982 3 12.2805 3 16C3 19.7194 3.38428 21.9017 3.67639 23.0233C3.75448 23.3296 3.90443 23.6129 4.11383 23.8497C4.32323 24.0866 4.58604 24.2701 4.8805 24.3851C9.06512 25.9932 16 25.949 16 25.949C16 25.949 22.9348 25.9932 27.1195 24.3851C27.414 24.2701 27.6768 24.0866 27.8862 23.8498C28.0956 23.6129 28.2455 23.3296 28.3236 23.0233C28.6157 21.9017 29 19.7194 29 16C29 12.2805 28.6157 10.0982 28.3236 8.97665ZM14 20V12L20 16L14 20Z" fill="#005CE8"/>
<path d="M20 16L14 12V20L20 16Z" stroke="#005CE8" stroke-width="1.5" stroke-linecap="round" stroke-linejoin="round"/>
<path d="M3 16C3 19.7194 3.38427 21.9017 3.67638 23.0233C3.75447 23.3296 3.90442 23.6129 4.11382 23.8497C4.32322 24.0866 4.58603 24.2701 4.88049 24.3851C9.0651 25.9932 16 25.949 16 25.949C16 25.949 22.9348 25.9932 27.1195 24.3851C27.4139 24.2701 27.6767 24.0866 27.8861 23.8498C28.0955 23.6129 28.2455 23.3296 28.3236 23.0233C28.6157 21.9017 29 19.7194 29 16C29 12.2805 28.6157 10.0982 28.3236 8.97663C28.2455 8.67031 28.0956 8.387 27.8862 8.15018C27.6768 7.91336 27.414 7.72985 27.1195 7.61484C22.9349 6.00674 16 6.0509 16 6.0509C16 6.0509 9.06518 6.00675 4.88053 7.61482C4.58607 7.72983 4.32325 7.91334 4.11385 8.15016C3.90446 8.38698 3.7545 8.67029 3.67641 8.97661C3.38428 10.0982 3 12.2805 3 16Z" stroke="#005CE8" stroke-width="1.5" stroke-linecap="round" stroke-linejoin="round"/>
</svg>
