<svg width="48" height="48" viewBox="0 0 48 48" fill="none" xmlns="http://www.w3.org/2000/svg">
<path d="M23.9373 0.00429916C23.9373 0.00429916 38.0879 -0.631466 45.5878 13.5636H22.7344C22.7344 13.5636 18.4186 13.422 14.739 18.6486C13.6783 20.8383 12.5464 23.0985 13.8197 27.5471C11.98 24.4403 4.0556 10.6683 4.0556 10.6683C4.0556 10.6683 9.6454 0.568947 23.9373 0.00429916Z" fill="#E14C40"/>
<path d="M44.8507 36.0454C44.8507 36.0454 38.3255 48.594 22.2593 47.9775C24.2415 44.5533 33.6885 28.2237 33.6885 28.2237C33.6885 28.2237 35.9695 24.5641 33.2767 18.7704C31.9076 16.7579 30.513 14.6491 26.0161 13.5245C29.6327 13.489 45.5423 13.5269 45.5423 13.5269C45.5423 13.5269 51.5078 23.4095 44.8507 36.0456" fill="#FFD24D"/>
<path d="M3.12523 36.1411C3.12523 36.1411 -4.49936 24.2243 4.06992 10.6451L15.4921 30.4038C15.4921 30.4038 17.5267 34.2051 23.9004 34.7742C26.3306 34.5972 28.8571 34.4463 32.081 31.1218C30.3041 34.2652 22.315 47.9997 22.315 47.9997C22.315 47.9997 10.7586 48.2148 3.12523 36.1411Z" fill="#00AA60"/>
<path d="M13.1712 24.1964C13.1712 18.2946 17.9647 13.5091 23.8785 13.5091C29.7919 13.5091 34.5849 18.2946 34.5849 24.1964C34.5849 30.1 29.7919 34.8848 23.8785 34.8848C17.9647 34.8848 13.1712 30.1 13.1712 24.1963" fill="white"/>
<path d="M15.4826 24.1964C15.4826 19.5685 19.2417 15.8162 23.8785 15.8162C28.5139 15.8162 32.2737 19.5685 32.2737 24.1964C32.2737 28.8249 28.5141 32.577 23.8785 32.577C19.2417 32.577 15.4826 28.8248 15.4826 24.1964Z" fill="#577FC0"/>
</svg>
