<svg width="48" height="48" viewBox="0 0 48 48" fill="none" xmlns="http://www.w3.org/2000/svg">
<path d="M40.1488 32.1478C39.5876 32.4413 39.0089 32.6999 38.4159 32.9222C36.5284 33.6284 34.5289 33.9882 32.5136 33.9843C24.7338 33.9843 17.9569 28.6328 17.9569 21.7654C17.9668 20.8443 18.2224 19.9426 18.6973 19.1533C19.1721 18.364 19.849 17.7157 20.6581 17.2754C13.6214 17.5713 11.8129 24.904 11.8129 29.2C11.8129 41.3465 23.0075 42.5779 25.4194 42.5779C26.7199 42.5779 28.6813 42.1998 29.8584 41.8282L30.0738 41.7559C34.6037 40.1899 38.4654 37.1283 41.0234 33.0751C41.1018 32.9516 41.1368 32.8056 41.1228 32.6601C41.1089 32.5145 41.0469 32.3778 40.9466 32.2714C40.8463 32.1651 40.7134 32.0952 40.5689 32.0728C40.4244 32.0504 40.2766 32.0768 40.1488 32.1478Z" fill="url(#paint0_linear_734_5075)"/>
<path opacity="0.35" d="M40.1488 32.1478C39.5876 32.4413 39.0089 32.6999 38.4159 32.9222C36.5284 33.6284 34.5289 33.9882 32.5136 33.9843C24.7338 33.9843 17.9569 28.6328 17.9569 21.7654C17.9668 20.8443 18.2224 19.9426 18.6973 19.1533C19.1721 18.364 19.849 17.7157 20.6581 17.2754C13.6214 17.5713 11.8129 24.904 11.8129 29.2C11.8129 41.3465 23.0075 42.5779 25.4194 42.5779C26.7199 42.5779 28.6813 42.1998 29.8584 41.8282L30.0738 41.7559C34.6037 40.1899 38.4654 37.1283 41.0234 33.0751C41.1018 32.9516 41.1368 32.8056 41.1228 32.6601C41.1089 32.5145 41.0469 32.3778 40.9466 32.2714C40.8463 32.1651 40.7134 32.0952 40.5689 32.0728C40.4244 32.0504 40.2766 32.0768 40.1488 32.1478Z" fill="url(#paint1_radial_734_5075)"/>
<path d="M19.5418 40.513C18.0753 39.6028 16.8045 38.4102 15.8031 37.0045C14.6618 35.4408 13.8763 33.6463 13.502 31.7469C13.1276 29.8475 13.1733 27.8891 13.6359 26.0093C14.0985 24.1294 14.9668 22.3735 16.1799 20.8647C17.3929 19.356 18.9214 18.1309 20.6581 17.2754C21.1711 17.0337 22.0474 16.5964 23.213 16.6177C24.0343 16.6237 24.843 16.8198 25.5757 17.1906C26.3085 17.5614 26.9455 18.0969 27.4367 18.7551C28.1006 19.6415 28.4667 20.7155 28.4823 21.8229C28.4823 21.7884 32.5038 8.73596 15.3296 8.73596C8.11205 8.73596 2.17688 15.5853 2.17688 21.5944C2.14841 24.7732 2.82856 27.9184 4.16788 30.8013C6.3567 35.4715 10.1844 39.1753 14.924 41.2093C19.6636 43.2433 24.9852 43.4659 29.8782 41.8348C28.1649 42.375 26.3549 42.5372 24.573 42.3101C22.7911 42.083 21.0796 41.4721 19.5566 40.5196L19.5418 40.513Z" fill="url(#paint2_linear_734_5075)"/>
<path opacity="0.41" d="M19.5418 40.513C18.0753 39.6028 16.8045 38.4102 15.8031 37.0045C14.6618 35.4408 13.8763 33.6463 13.502 31.7469C13.1276 29.8475 13.1733 27.8891 13.6359 26.0093C14.0985 24.1294 14.9668 22.3735 16.1799 20.8647C17.3929 19.356 18.9214 18.1309 20.6581 17.2754C21.1711 17.0337 22.0474 16.5964 23.213 16.6177C24.0343 16.6237 24.843 16.8198 25.5757 17.1906C26.3085 17.5614 26.9455 18.0969 27.4367 18.7551C28.1006 19.6415 28.4667 20.7155 28.4823 21.8229C28.4823 21.7884 32.5038 8.73596 15.3296 8.73596C8.11205 8.73596 2.17688 15.5853 2.17688 21.5944C2.14841 24.7732 2.82856 27.9184 4.16788 30.8013C6.3567 35.4715 10.1844 39.1753 14.924 41.2093C19.6636 43.2433 24.9852 43.4659 29.8782 41.8348C28.1649 42.375 26.3549 42.5372 24.573 42.3101C22.7911 42.083 21.0796 41.4721 19.5566 40.5196L19.5418 40.513Z" fill="url(#paint3_radial_734_5075)"/>
<path d="M27.2032 25.2952C27.0701 25.4678 26.6607 25.7062 26.6607 26.2258C26.6607 26.6549 26.9402 27.0675 27.4367 27.4144C29.8009 29.0585 34.258 28.8415 34.2695 28.8415C36.0214 28.8373 37.74 28.3632 39.2462 27.4687C40.7657 26.5815 42.0268 25.3124 42.9044 23.7873C43.782 22.2623 44.2456 20.5343 44.2492 18.7748C44.2919 15.0903 42.9339 12.6407 42.3848 11.5556C38.9009 4.7408 31.3809 0.821289 23.2032 0.821289C17.6728 0.820742 12.3644 2.99724 8.42622 6.88004C4.48804 10.7628 2.23658 16.0398 2.15881 21.5697C2.23773 15.5622 8.20907 10.7105 15.3115 10.7105C15.887 10.7105 19.1686 10.7664 22.2167 12.3661C24.9032 13.7767 26.3105 15.48 27.2887 17.1685C28.3048 18.9227 28.4856 21.139 28.4856 22.0218C28.4856 22.9047 28.0352 24.2134 27.2032 25.2952Z" fill="url(#paint4_radial_734_5075)"/>
<path d="M27.2032 25.2952C27.0701 25.4678 26.6607 25.7062 26.6607 26.2258C26.6607 26.6549 26.9402 27.0675 27.4367 27.4144C29.8009 29.0585 34.258 28.8415 34.2695 28.8415C36.0214 28.8373 37.74 28.3632 39.2462 27.4687C40.7657 26.5815 42.0268 25.3124 42.9044 23.7873C43.782 22.2623 44.2456 20.5343 44.2492 18.7748C44.2919 15.0903 42.9339 12.6407 42.3848 11.5556C38.9009 4.7408 31.3809 0.821289 23.2032 0.821289C17.6728 0.820742 12.3644 2.99724 8.42622 6.88004C4.48804 10.7628 2.23658 16.0398 2.15881 21.5697C2.23773 15.5622 8.20907 10.7105 15.3115 10.7105C15.887 10.7105 19.1686 10.7664 22.2167 12.3661C24.9032 13.7767 26.3105 15.48 27.2887 17.1685C28.3048 18.9227 28.4856 21.139 28.4856 22.0218C28.4856 22.9047 28.0352 24.2134 27.2032 25.2952Z" fill="url(#paint5_radial_734_5075)"/>
<defs>
<linearGradient id="paint0_linear_734_5075" x1="11.8129" y1="29.9299" x2="41.1336" y2="29.9299" gradientUnits="userSpaceOnUse">
<stop stop-color="#0C59A4"/>
<stop offset="1" stop-color="#114A8B"/>
</linearGradient>
<radialGradient id="paint1_radial_734_5075" cx="0" cy="0" r="1" gradientUnits="userSpaceOnUse" gradientTransform="translate(28.0072 30.161) scale(15.6813 14.8973)">
<stop offset="0.72" stop-opacity="0"/>
<stop offset="0.95" stop-opacity="0.53"/>
<stop offset="1"/>
</radialGradient>
<linearGradient id="paint2_linear_734_5075" x1="27.2706" y1="17.2113" x2="8.95708" y2="37.159" gradientUnits="userSpaceOnUse">
<stop stop-color="#1B9DE2"/>
<stop offset="0.16" stop-color="#1595DF"/>
<stop offset="0.67" stop-color="#0680D7"/>
<stop offset="1" stop-color="#0078D4"/>
</linearGradient>
<radialGradient id="paint3_radial_734_5075" cx="0" cy="0" r="1" gradientUnits="userSpaceOnUse" gradientTransform="translate(13.7652 33.5401) rotate(-81.3844) scale(23.5806 19.0507)">
<stop offset="0.76" stop-opacity="0"/>
<stop offset="0.95" stop-opacity="0.5"/>
<stop offset="1"/>
</radialGradient>
<radialGradient id="paint4_radial_734_5075" cx="0" cy="0" r="1" gradientUnits="userSpaceOnUse" gradientTransform="translate(6.41084 8.61046) rotate(92.2906) scale(33.3079 70.939)">
<stop stop-color="#35C1F1"/>
<stop offset="0.11" stop-color="#34C1ED"/>
<stop offset="0.23" stop-color="#2FC2DF"/>
<stop offset="0.31" stop-color="#2BC3D2"/>
<stop offset="0.67" stop-color="#36C752"/>
</radialGradient>
<radialGradient id="paint5_radial_734_5075" cx="0" cy="0" r="1" gradientUnits="userSpaceOnUse" gradientTransform="translate(41.6288 13.5475) rotate(73.7398) scale(16.0036 13.0141)">
<stop stop-color="#66EB6E"/>
<stop offset="1" stop-color="#66EB6E" stop-opacity="0"/>
</radialGradient>
</defs>
</svg>
