<svg width="48" height="48" viewBox="0 0 48 48" fill="none" xmlns="http://www.w3.org/2000/svg">
<path d="M38.3883 4.46533C37.2153 5.82452 36.6673 8.88777 37.8584 11.9893C39.0472 15.0932 40.8724 14.4192 42.0091 17.5839C43.5105 21.7584 42.8108 27.3687 42.8108 27.3687C42.8108 27.3687 44.6155 32.5688 45.8723 27.0441C48.653 16.671 38.3883 7.02142 38.3883 4.46533Z" fill="url(#paint0_radial_734_5055)"/>
<path d="M24.0679 47.5424C36.0853 47.5424 45.8201 37.7981 45.8201 25.7863C45.8201 13.7745 36.0853 4.03021 24.0792 4.03021C12.0731 4.03021 2.3383 13.7722 2.3383 25.7863C2.31565 37.8116 12.0618 47.5424 24.0679 47.5424Z" fill="url(#paint1_radial_734_5055)"/>
<path d="M40.3674 39.2002C39.8964 39.5316 39.4027 39.8268 38.891 40.086C39.5703 39.0965 40.1976 38.0709 40.7682 37.0138C41.2324 36.5021 41.6559 36.0062 42.0023 35.4697C42.1699 35.206 42.3601 34.8814 42.5616 34.5028C43.7822 32.3118 45.1295 28.7685 45.168 25.1282V25.1192C45.168 25.029 45.1703 24.9388 45.168 24.8509C45.1748 23.938 45.0797 23.0251 44.8872 22.1325C44.8963 22.2024 44.9053 22.2723 44.9144 22.3422C44.9031 22.2881 44.894 22.234 44.8827 22.1799C44.9008 22.279 44.9144 22.376 44.9302 22.4706C45.1793 24.5782 45.0027 26.6361 44.1128 28.1509C44.0992 28.1734 44.0833 28.1937 44.0698 28.2162C44.5317 25.9126 44.6857 23.3678 44.1717 20.8207C44.1717 20.8207 43.9656 19.5832 42.4371 15.8235C41.5585 13.6596 39.996 11.8856 38.6147 10.5941C37.4055 9.10413 36.305 8.10333 35.7004 7.46994C34.4346 6.14456 33.9047 5.15052 33.6873 4.50136C33.4993 4.40669 31.0832 2.07149 30.8907 1.98358C29.8355 3.61101 26.5203 8.6984 28.0986 13.4544C28.8142 15.6093 30.6212 17.8453 32.512 19.1008C32.5958 19.1955 33.6375 20.3225 34.1334 22.8651C34.6451 25.4911 34.3757 27.54 33.3227 30.5717C32.0841 33.2315 28.9093 35.8597 25.9361 36.1279C19.5821 36.7027 17.2542 32.952 17.2542 32.952C19.5255 33.8559 22.0345 33.6665 23.563 32.7288C25.1028 31.7821 26.0335 31.0789 26.7875 31.3561C27.5325 31.6311 28.1258 30.8309 27.5937 30.0014C26.7536 28.7144 25.2228 28.0494 23.7034 28.3154C22.1635 28.5656 20.7528 29.7783 18.7329 28.6039C18.6016 28.5295 18.4748 28.4461 18.3548 28.356C18.2211 28.2681 18.7873 28.489 18.6559 28.3898C18.2642 28.1779 17.569 27.7136 17.3878 27.549C17.3584 27.522 17.6935 27.655 17.6618 27.6279C15.7756 26.0816 16.0111 25.0358 16.0699 24.3798C16.1175 23.8546 16.4594 23.1829 17.0368 22.9102C17.3154 23.0612 17.4897 23.1784 17.4897 23.1784C17.4897 23.1784 17.3697 22.9372 17.3063 22.8088C17.329 22.7997 17.3493 22.802 17.372 22.793C17.6007 22.9034 18.1057 23.1874 18.3729 23.361C18.7193 23.6044 18.8303 23.8208 18.8303 23.8208C18.8303 23.8208 18.9209 23.7712 18.8529 23.5593C18.828 23.4714 18.7239 23.1964 18.3797 22.9169L18.4 22.9192C18.6061 23.0364 18.8008 23.1694 18.982 23.3204C19.0794 22.971 19.2537 22.6036 19.2152 21.95C19.1926 21.4901 19.2017 21.3707 19.1201 21.1926C19.0477 21.0393 19.1609 20.9807 19.2877 21.1385C19.2651 21.0145 19.2288 20.8928 19.179 20.7779V20.7666C19.3375 20.2188 22.5236 18.792 22.7546 18.6252C23.135 18.357 23.4543 18.0121 23.692 17.6109C23.8687 17.3292 24.0023 16.9347 24.034 16.3374C24.0521 15.9068 23.8506 15.6183 20.6283 15.2825C19.7474 15.1968 19.2311 14.5612 18.9367 13.9751C18.8824 13.8489 18.828 13.7339 18.7737 13.619C18.7216 13.486 18.6786 13.3485 18.6491 13.2088C19.1767 11.703 20.0599 10.4295 21.3619 9.46703C21.4321 9.40166 21.0789 9.48281 21.1491 9.41969C21.2329 9.34531 21.7718 9.12892 21.8737 9.07933C21.9982 9.02073 21.3416 8.74348 20.7596 8.8111C20.1686 8.87647 20.0418 8.9486 19.727 9.08159C19.8583 8.95085 20.275 8.7818 20.1776 8.7818C19.5391 8.87872 18.7488 9.24838 18.0694 9.66538C18.0672 9.59326 18.083 9.52113 18.1102 9.4535C17.7954 9.58649 17.0187 10.1252 16.7946 10.5828C16.8036 10.4949 16.8081 10.407 16.8081 10.3191C16.5681 10.5197 16.3507 10.7451 16.1605 10.993L16.1492 11.0043C14.3195 10.2695 12.7072 10.2221 11.344 10.5512C11.0451 10.2537 10.9002 10.4701 10.2209 8.98692C10.1756 8.89675 10.2571 9.07482 10.2209 8.98692C10.1099 8.6984 10.2888 9.3701 10.2209 8.98692C9.0796 9.88403 7.57827 10.8983 6.85818 11.6151C6.84912 11.6444 7.69829 11.3762 6.85818 11.6151C6.5638 11.6985 6.58418 11.8721 6.53889 13.4454C6.52757 13.5649 6.53663 13.6979 6.52757 13.8061C5.9524 14.5364 5.56065 15.154 5.4112 15.4741C4.6662 16.7521 3.84647 18.7424 3.05165 21.8914C3.40264 21.0371 3.82383 20.2143 4.31521 19.4322C3.65399 21.1047 3.01542 23.7284 2.88861 27.7699C3.04939 26.9359 3.25319 26.1109 3.50227 25.2995C3.34603 28.6535 3.92799 32.0008 5.20514 35.1068C5.66255 36.2204 6.41888 37.9086 7.70508 39.7615C11.7494 43.9968 17.4535 46.6341 23.7713 46.6341C30.3744 46.6341 36.2982 43.7624 40.3674 39.2002Z" fill="url(#paint2_linear_734_5055)"/>
<path d="M35.4875 42.277C43.4696 41.3573 47.0022 33.1706 42.4642 33.0083C38.3656 32.8798 31.7059 42.712 35.4875 42.277Z" fill="url(#paint3_radial_734_5055)"/>
<path d="M43.0395 31.338C48.5309 28.1575 47.0997 21.2849 47.0997 21.2849C47.0997 21.2849 44.9802 23.7351 43.54 27.6413C42.1179 31.5093 39.7379 33.2584 43.0395 31.338Z" fill="url(#paint4_radial_734_5055)"/>
<path d="M25.6055 46.3433C33.2616 48.7754 39.8421 42.7706 35.7864 40.7667C32.0977 38.959 21.9733 45.1937 25.6055 46.3433Z" fill="url(#paint5_radial_734_5055)"/>
<path d="M43.6101 34.2549C43.7958 33.9934 44.0471 33.1549 44.2713 32.7807C45.6232 30.6078 45.6322 28.8767 45.6322 28.8384C46.4497 24.7788 46.375 23.1221 45.8723 20.0566C45.4669 17.5884 43.7007 14.0518 42.1699 12.35C40.5916 10.5963 41.7034 11.1666 40.1749 9.88629C38.8367 8.40763 37.5369 6.94475 36.8304 6.35644C31.7195 2.10304 31.835 1.19917 31.9324 1.04589C31.9165 1.06392 31.8916 1.09097 31.8599 1.12704C31.7988 0.885852 31.7557 0.685242 31.7557 0.685242C31.7557 0.685242 28.9614 3.46674 28.3749 8.09882C27.99 11.1238 29.129 14.2772 30.7752 16.2946C31.6335 17.3382 32.6026 18.2871 33.6669 19.1234V19.1211C34.9124 20.8996 35.5962 23.095 35.5962 25.4573C35.5962 31.3719 30.7775 36.1663 24.8333 36.1663C24.0227 36.1663 23.2165 36.0761 22.4262 35.8981C19.6206 35.3661 18.0015 33.9573 17.1931 33.0016C16.7312 32.4539 16.5341 32.0549 16.5341 32.0549C19.0477 32.952 21.8261 32.7627 23.5154 31.834C25.2183 30.8941 26.2486 30.1976 27.0842 30.4726C27.9084 30.7453 28.5651 29.9519 27.9764 29.1291C27.3989 28.3064 25.8976 27.1298 23.6694 27.4566C21.9643 27.7046 20.4018 28.9082 18.1691 27.7406C18.0241 27.6663 17.886 27.5851 17.7502 27.4949C17.603 27.4093 18.2279 27.6257 18.083 27.5288C17.6483 27.3191 16.8783 26.8593 16.6791 26.697C16.6451 26.67 17.0165 26.803 16.9825 26.7759C14.8947 25.2409 15.1551 24.2063 15.2208 23.5549C15.2729 23.0342 15.6533 22.3692 16.2918 22.0987C16.5998 22.2498 16.7923 22.3647 16.7923 22.3647C16.7923 22.3647 16.661 22.1258 16.5885 21.9973C16.6134 21.9883 16.6383 21.9906 16.661 21.9815C16.9146 22.0897 17.4739 22.3737 17.7683 22.545C18.151 22.7862 18.2732 23.0026 18.2732 23.0026C18.2732 23.0026 18.3751 22.953 18.3004 22.7434C18.2732 22.6577 18.1577 22.3828 17.7773 22.1055L17.8 22.1078C18.0264 22.2227 18.2415 22.3557 18.4431 22.5067C18.5495 22.1596 18.742 21.7967 18.7012 21.1475C18.6763 20.6922 18.6876 20.5728 18.5971 20.3969C18.5155 20.2459 18.6423 20.1873 18.7827 20.3428C18.7578 20.2189 18.7193 20.0994 18.6627 19.9844L18.665 19.9732C18.8393 19.4299 22.3674 18.0167 22.6232 17.8499C23.0376 17.5906 23.3909 17.248 23.6603 16.8445C23.8574 16.565 24.0045 16.1751 24.0408 15.5823C24.0521 15.314 23.9706 15.1044 23.0354 14.9016C22.4738 14.7798 21.6065 14.6626 20.2705 14.5364C19.2945 14.4507 18.7239 13.8196 18.3978 13.2381C18.3389 13.1118 18.2778 12.9991 18.2166 12.8864C18.16 12.7534 18.1125 12.6182 18.0785 12.4784C18.665 10.9547 19.7157 9.65637 21.0857 8.76602C21.1649 8.70291 20.7709 8.7818 20.8502 8.71869C20.9408 8.6443 21.5386 8.43017 21.6518 8.38058C21.7899 8.32197 21.0608 8.04698 20.4199 8.1146C19.7655 8.17997 19.6274 8.24984 19.2764 8.38283C19.4213 8.25435 19.8833 8.0853 19.7746 8.08755C19.0681 8.18448 18.1917 8.54963 17.4422 8.96438C17.4399 8.89225 17.4558 8.82012 17.4875 8.75475C17.1388 8.88774 16.2805 9.42195 16.0314 9.87502C16.0428 9.78936 16.0473 9.70145 16.045 9.61355C15.7823 9.80965 15.5423 10.0328 15.3295 10.2807L15.3159 10.292C13.2892 9.56396 11.5071 9.51662 9.9967 9.84346C9.66609 9.54818 9.13621 9.09962 8.38441 7.62998C8.33233 7.54207 8.30516 7.81256 8.26666 7.72465C7.97455 7.05069 7.79792 5.9462 7.82736 5.18659C7.82736 5.18659 7.22275 5.45933 6.72458 6.60438C6.63173 6.8095 6.57286 6.92446 6.51398 7.03716C6.48681 7.07097 6.57512 6.66074 6.56153 6.68328C6.47549 6.82979 6.24904 7.03491 6.15167 7.29863C6.08374 7.49474 5.98863 7.60519 5.92749 7.84862L5.9139 7.87116C5.90937 7.79903 5.93202 7.57363 5.91617 7.62096C5.68293 8.09206 5.48139 8.57894 5.31383 9.07708C5.04436 9.95842 4.73186 11.1553 4.68205 12.7151C4.67072 12.8323 4.67978 12.9653 4.67072 13.0713C4.03442 13.7948 3.59964 14.4079 3.4366 14.7257C2.61008 15.988 1.70204 17.9626 0.82117 21.0844C1.21292 20.2324 1.68166 19.4142 2.2206 18.6455C1.48918 20.3023 0.782675 22.9057 0.640015 26.9157C0.816641 26.0862 1.04535 25.2679 1.31935 24.4655C1.19254 27.1388 1.50503 30.4523 3.20336 34.1917C4.21104 36.3917 6.5321 40.857 12.2023 44.3417C17.8724 47.8265 14.1316 45.7708 17.4467 46.8415C17.6913 46.9294 17.9404 47.0173 18.194 47.1007C18.117 47.0691 18.04 47.0353 17.963 47.0015C20.1708 47.6597 22.4602 47.9956 24.7654 47.9956C33.3499 48.0023 35.8815 44.5717 35.8815 44.5717C35.8815 44.5717 35.8725 44.5784 35.8566 44.5897C35.9767 44.477 36.0944 44.3575 36.2076 44.2358C34.8535 45.5093 31.7625 45.5927 30.6054 45.5026C32.5755 44.9255 33.873 44.4387 36.3956 43.4762C36.69 43.368 36.9934 43.244 37.3014 43.1043C37.3353 43.0907 37.3693 43.0727 37.401 43.0592C37.4621 43.0299 37.5233 43.0051 37.5844 42.9735C38.814 42.3965 39.9689 41.6775 41.0286 40.8277C43.5625 38.8125 44.1128 36.8493 44.4027 35.5554C44.3619 35.6794 44.2373 35.9679 44.149 36.1573C43.4969 37.5458 42.0499 38.4001 40.4784 39.1304C41.2256 38.1544 41.9186 37.1378 42.5549 36.0851C43.0666 35.5802 43.2274 34.7868 43.6101 34.2549Z" fill="url(#paint6_radial_734_5055)"/>
<path d="M40.526 39.0717C41.5585 37.9379 42.487 36.6418 43.189 35.1699C44.9982 31.3854 47.7926 25.0921 45.5915 18.5215C43.8502 13.3282 41.4612 10.4881 38.4291 7.71336C33.5016 3.20751 32.1249 1.1969 32.1249 0C32.1249 0 26.4366 6.31359 28.9025 12.8954C31.3685 19.4772 36.4228 19.2383 39.7651 26.1087C43.6985 34.1939 36.5813 43.0163 30.696 45.4867C31.056 45.4078 43.7777 42.5407 44.448 35.2984C44.4344 35.4314 44.1468 37.433 40.526 39.0717Z" fill="url(#paint7_radial_734_5055)"/>
<path d="M24.043 15.5777C24.0634 15.1495 23.8392 14.8632 20.2863 14.5318C18.8235 14.3966 18.2642 13.0532 18.0943 12.4852C17.5735 13.8308 17.3606 15.2396 17.4761 16.9482C17.5554 18.0662 18.3094 19.2654 18.6695 19.9709C18.6695 19.9709 18.7487 19.8672 18.7872 19.8289C19.4666 19.1256 22.313 18.0527 22.5802 17.8994C22.8723 17.7146 23.9954 16.8986 24.043 15.5777Z" fill="url(#paint8_linear_734_5055)"/>
<path d="M8.39799 7.63223C8.3459 7.54433 8.31873 7.81481 8.28023 7.7269C7.98812 7.05294 7.8115 5.96198 7.85226 5.18884C7.85226 5.18884 7.24765 5.46158 6.74947 6.60664C6.65663 6.81176 6.59775 6.92672 6.53888 7.03942C6.5117 7.07323 6.60002 6.66299 6.58643 6.68553C6.50038 6.83205 6.27394 7.03716 6.17657 7.28962C6.09505 7.49699 6.01353 7.60744 5.95012 7.8644C5.93201 7.93428 5.96824 7.5556 5.95239 7.60293C4.79073 9.83895 4.56881 13.2178 4.69109 13.0758C7.16386 10.4475 9.99895 9.82317 9.99895 9.82317C9.70004 9.60002 9.04335 8.96212 8.39799 7.63223Z" fill="url(#paint9_linear_734_5055)"/>
<path d="M17.7841 35.127C14.367 33.6754 10.4835 31.6265 10.6284 26.9742C10.8277 20.8477 16.3688 22.0581 16.3688 22.0581C16.1605 22.1077 15.6012 22.5044 15.4019 22.9282C15.1936 23.4556 14.8109 24.648 15.968 25.899C17.7864 27.86 12.2339 30.5513 20.8026 35.6342C21.02 35.7492 18.7963 35.5621 17.7841 35.127Z" fill="url(#paint10_linear_734_5055)"/>
<path d="M16.5704 32.0729C18.9933 32.9114 21.8149 32.7649 23.5064 31.8362C24.6386 31.2096 26.0879 30.2043 26.9823 30.4522C26.2102 30.1479 25.6237 30.0059 24.9194 29.9721C24.7994 29.9721 24.6567 29.9699 24.5254 29.9563C24.2673 29.9563 24.0091 29.9699 23.7532 29.9992C23.3162 30.0397 22.8339 30.3125 22.3946 30.2696C22.3719 30.2674 22.8203 30.0848 22.784 30.0938C22.5508 30.1412 22.2972 30.1524 22.03 30.1862C21.8601 30.2043 21.713 30.2268 21.5454 30.2336C16.4979 30.6596 12.234 27.5107 12.234 27.5107C11.8694 28.7256 13.8576 31.133 16.5704 32.0729Z" fill="url(#paint11_linear_734_5055)"/>
<path d="M40.5169 39.1033C45.6209 34.115 48.2047 28.0516 47.1109 21.2489C47.1109 21.2489 47.548 24.7359 45.8927 28.3041C46.6875 24.8216 46.7803 20.4938 44.6699 16.0127C41.8529 10.0305 37.2198 6.88382 35.449 5.56971C32.7702 3.57938 31.6583 1.55524 31.638 1.13599C30.8363 2.76792 28.4156 8.36474 31.3775 13.1839C34.1538 17.6988 38.5264 19.0399 41.5857 23.1806C47.2264 30.8129 40.5169 39.1033 40.5169 39.1033Z" fill="url(#paint12_linear_734_5055)"/>
<path d="M39.7855 26.1244C38.0011 22.4571 35.7752 20.8567 33.6692 19.1211C33.9138 19.4615 33.9749 19.5832 34.1108 19.8041C35.9654 21.7696 38.6986 26.5685 36.7126 32.589C32.9763 43.9247 18.0355 38.5871 16.4685 37.0881C17.1026 43.6474 28.1327 46.7873 35.3155 42.5339C39.4028 38.6817 42.7089 32.136 39.7855 26.1244Z" fill="url(#paint13_linear_734_5055)"/>
<defs>
<radialGradient id="paint0_radial_734_5055" cx="0" cy="0" r="1" gradientUnits="userSpaceOnUse" gradientTransform="translate(45.154 12.0024) rotate(2.54313) scale(16.8527 24.6577)">
<stop offset="0.045" stop-color="#FFEA00"/>
<stop offset="0.12" stop-color="#FFDE00"/>
<stop offset="0.254" stop-color="#FFBF00"/>
<stop offset="0.429" stop-color="#FF8E00"/>
<stop offset="0.769" stop-color="#FF272D"/>
<stop offset="0.872" stop-color="#E0255A"/>
<stop offset="0.953" stop-color="#CC2477"/>
<stop offset="1" stop-color="#C42482"/>
</radialGradient>
<radialGradient id="paint1_radial_734_5055" cx="0" cy="0" r="1" gradientUnits="userSpaceOnUse" gradientTransform="translate(33.1359 9.42006) scale(47.4982 47.2802)">
<stop stop-color="#00CCDA"/>
<stop offset="0.22" stop-color="#0083FF"/>
<stop offset="0.261" stop-color="#007AF9"/>
<stop offset="0.33" stop-color="#0060E8"/>
<stop offset="0.333" stop-color="#005FE7"/>
<stop offset="0.438" stop-color="#2639AD"/>
<stop offset="0.522" stop-color="#401E84"/>
<stop offset="0.566" stop-color="#4A1475"/>
</radialGradient>
<linearGradient id="paint2_linear_734_5055" x1="27.1344" y1="35.5691" x2="17.8317" y2="4.99785" gradientUnits="userSpaceOnUse">
<stop stop-color="#000F43" stop-opacity="0.4"/>
<stop offset="0.485" stop-color="#001962" stop-opacity="0.173"/>
<stop offset="1" stop-color="#002079" stop-opacity="0"/>
</linearGradient>
<radialGradient id="paint3_radial_734_5055" cx="0" cy="0" r="1" gradientUnits="userSpaceOnUse" gradientTransform="translate(40.246 24.6754) rotate(5.6439) scale(16.0203 15.9483)">
<stop offset="0.003" stop-color="#FFEA00"/>
<stop offset="0.497" stop-color="#FF272D"/>
<stop offset="1" stop-color="#C42482"/>
</radialGradient>
<radialGradient id="paint4_radial_734_5055" cx="0" cy="0" r="1" gradientUnits="userSpaceOnUse" gradientTransform="translate(40.3213 9.31583) rotate(5.64378) scale(26.7531 26.6323)">
<stop offset="0.003" stop-color="#FFE900"/>
<stop offset="0.157" stop-color="#FFAF0E"/>
<stop offset="0.316" stop-color="#FF7A1B"/>
<stop offset="0.472" stop-color="#FF4E26"/>
<stop offset="0.621" stop-color="#FF2C2E"/>
<stop offset="0.762" stop-color="#FF1434"/>
<stop offset="0.892" stop-color="#FF0538"/>
<stop offset="1" stop-color="#FF0039"/>
</radialGradient>
<radialGradient id="paint5_radial_734_5055" cx="0" cy="0" r="1" gradientUnits="userSpaceOnUse" gradientTransform="translate(41.6368 34.2538) rotate(5.64386) scale(24.5486 24.438)">
<stop offset="0.003" stop-color="#FF272D"/>
<stop offset="0.497" stop-color="#C42482"/>
<stop offset="0.986" stop-color="#620700"/>
</radialGradient>
<radialGradient id="paint6_radial_734_5055" cx="0" cy="0" r="1" gradientUnits="userSpaceOnUse" gradientTransform="translate(35.6877 19.2204) scale(38.3306 38.1547)">
<stop offset="0.156" stop-color="#FFEA00"/>
<stop offset="0.231" stop-color="#FFDE00"/>
<stop offset="0.365" stop-color="#FFBF00"/>
<stop offset="0.541" stop-color="#FF8E00"/>
<stop offset="0.763" stop-color="#FF272D"/>
<stop offset="0.796" stop-color="#F92433"/>
<stop offset="0.841" stop-color="#E91C45"/>
<stop offset="0.893" stop-color="#CF0E62"/>
<stop offset="0.935" stop-color="#B5007F"/>
</radialGradient>
<radialGradient id="paint7_radial_734_5055" cx="0" cy="0" r="1" gradientUnits="userSpaceOnUse" gradientTransform="translate(32.8038 0.0619633) scale(45.2617 45.0538)">
<stop offset="0.279" stop-color="#FFEA00"/>
<stop offset="0.402" stop-color="#FFDD00"/>
<stop offset="0.63" stop-color="#FFBA00"/>
<stop offset="0.856" stop-color="#FF9100"/>
<stop offset="0.933" stop-color="#FF6711"/>
<stop offset="0.994" stop-color="#FF4A1D"/>
</radialGradient>
<linearGradient id="paint8_linear_734_5055" x1="1.53819" y1="18.7821" x2="18.951" y2="16.127" gradientUnits="userSpaceOnUse">
<stop stop-color="#C42482" stop-opacity="0.5"/>
<stop offset="0.474" stop-color="#FF272D" stop-opacity="0.5"/>
<stop offset="0.486" stop-color="#FF2C2C" stop-opacity="0.513"/>
<stop offset="0.675" stop-color="#FF7A1A" stop-opacity="0.72"/>
<stop offset="0.829" stop-color="#FFB20D" stop-opacity="0.871"/>
<stop offset="0.942" stop-color="#FFD605" stop-opacity="0.964"/>
<stop offset="1" stop-color="#FFE302"/>
</linearGradient>
<linearGradient id="paint9_linear_734_5055" x1="7.65841" y1="12.5769" x2="5.69861" y2="5.51871" gradientUnits="userSpaceOnUse">
<stop stop-color="#891551" stop-opacity="0.6"/>
<stop offset="1" stop-color="#C42482" stop-opacity="0"/>
</linearGradient>
<linearGradient id="paint10_linear_734_5055" x1="11.4465" y1="22.8816" x2="15.4875" y2="28.5455" gradientUnits="userSpaceOnUse">
<stop offset="0.005" stop-color="#891551" stop-opacity="0.5"/>
<stop offset="0.484" stop-color="#FF272D" stop-opacity="0.5"/>
<stop offset="1" stop-color="#FF272D" stop-opacity="0"/>
</linearGradient>
<linearGradient id="paint11_linear_734_5055" x1="19.2122" y1="32.7806" x2="19.5781" y2="29.151" gradientUnits="userSpaceOnUse">
<stop stop-color="#C42482"/>
<stop offset="0.083" stop-color="#C42482" stop-opacity="0.81"/>
<stop offset="0.206" stop-color="#C42482" stop-opacity="0.565"/>
<stop offset="0.328" stop-color="#C42482" stop-opacity="0.362"/>
<stop offset="0.447" stop-color="#C42482" stop-opacity="0.204"/>
<stop offset="0.562" stop-color="#C42482" stop-opacity="0.091"/>
<stop offset="0.673" stop-color="#C42482" stop-opacity="0.023"/>
<stop offset="0.773" stop-color="#C42482" stop-opacity="0"/>
</linearGradient>
<linearGradient id="paint12_linear_734_5055" x1="31.049" y1="1.76096" x2="45.9131" y2="35.1528" gradientUnits="userSpaceOnUse">
<stop stop-color="#FFF14F"/>
<stop offset="0.268" stop-color="#FFEE4C"/>
<stop offset="0.452" stop-color="#FFE643"/>
<stop offset="0.612" stop-color="#FFD834"/>
<stop offset="0.757" stop-color="#FFC41E"/>
<stop offset="0.892" stop-color="#FFAB02"/>
<stop offset="0.902" stop-color="#FFA900"/>
<stop offset="0.949" stop-color="#FFA000"/>
<stop offset="1" stop-color="#FF9100"/>
</linearGradient>
<linearGradient id="paint13_linear_734_5055" x1="34.0067" y1="20.9359" x2="26.9686" y2="39.9203" gradientUnits="userSpaceOnUse">
<stop stop-color="#FF8E00"/>
<stop offset="0.04" stop-color="#FF8E00" stop-opacity="0.858"/>
<stop offset="0.084" stop-color="#FF8E00" stop-opacity="0.729"/>
<stop offset="0.13" stop-color="#FF8E00" stop-opacity="0.628"/>
<stop offset="0.178" stop-color="#FF8E00" stop-opacity="0.557"/>
<stop offset="0.227" stop-color="#FF8E00" stop-opacity="0.514"/>
<stop offset="0.282" stop-color="#FF8E00" stop-opacity="0.5"/>
<stop offset="0.389" stop-color="#FF8E00" stop-opacity="0.478"/>
<stop offset="0.524" stop-color="#FF8E00" stop-opacity="0.416"/>
<stop offset="0.676" stop-color="#FF8E00" stop-opacity="0.314"/>
<stop offset="0.838" stop-color="#FF8E00" stop-opacity="0.172"/>
<stop offset="1" stop-color="#FF8E00" stop-opacity="0"/>
</linearGradient>
</defs>
</svg>
