<svg width="48" height="48" viewBox="0 0 48 48" fill="none" xmlns="http://www.w3.org/2000/svg">
<path d="M16.1063 37.5188C13.4438 34.3875 11.7375 29.7563 11.625 24.5625V23.4375C11.7375 18.2437 13.4625 13.6125 16.1063 10.4813C19.5562 6.01875 24.6188 4.0125 30.3375 4.0125C33.8625 4.0125 37.1813 4.25625 39.9938 6.13125C35.775 2.325 30.2062 0.01875 24.0938 0H24C10.7438 0 0 10.7438 0 24C0 36.8625 10.125 47.3812 22.8563 47.9812C23.2313 48 23.625 48 24 48C30.15 48 35.7563 45.6937 39.9938 41.8875C37.1813 43.7625 34.05 43.8375 30.525 43.8375C24.825 43.8563 19.5375 42 16.1063 37.5188Z" fill="url(#paint0_linear_734_5240)"/>
<path d="M16.1063 10.4812C18.3 7.87495 21.15 6.3187 24.2625 6.3187C31.2563 6.3187 36.9188 14.2312 36.9188 24.0187C36.9188 33.8062 31.2563 41.7187 24.2625 41.7187C21.15 41.7187 18.3188 40.1437 16.1063 37.5562C19.5563 42.0187 24.675 44.8687 30.375 44.8687C33.8813 44.8687 37.1813 43.8 39.9938 41.925C44.9063 37.5 48 31.1062 48 24C48 16.8937 44.9063 10.5 39.9938 6.11245C37.1813 4.23745 33.9 3.1687 30.375 3.1687C24.6563 3.1687 19.5375 5.99995 16.1063 10.4812Z" fill="url(#paint1_linear_734_5240)"/>
<defs>
<linearGradient id="paint0_linear_734_5240" x1="19.9981" y1="0.7824" x2="19.9981" y2="47.3016" gradientUnits="userSpaceOnUse">
<stop offset="0.3" stop-color="#FF1B2D"/>
<stop offset="0.4381" stop-color="#FA1A2C"/>
<stop offset="0.5939" stop-color="#ED1528"/>
<stop offset="0.7581" stop-color="#D60E21"/>
<stop offset="0.9272" stop-color="#B70519"/>
<stop offset="1" stop-color="#A70014"/>
</linearGradient>
<linearGradient id="paint1_linear_734_5240" x1="32.0499" y1="3.5244" x2="32.0499" y2="44.6681" gradientUnits="userSpaceOnUse">
<stop stop-color="#9C0000"/>
<stop offset="0.7" stop-color="#FF4B4B"/>
</linearGradient>
</defs>
</svg>
