<svg width="48" height="48" viewBox="0 0 48 48" fill="none" xmlns="http://www.w3.org/2000/svg">
<g clip-path="url(#clip0_734_5097)">
<g filter="url(#filter0_d_734_5097)">
<path d="M24 46.875C36.8406 46.875 47.25 36.4656 47.25 23.625C47.25 10.7844 36.8406 0.375 24 0.375C11.1594 0.375 0.75 10.7844 0.75 23.625C0.75 36.4656 11.1594 46.875 24 46.875Z" fill="url(#paint0_linear_734_5097)"/>
</g>
<path d="M24 45.1313C35.8776 45.1313 45.5062 35.5026 45.5062 23.625C45.5062 11.7474 35.8776 2.11877 24 2.11877C12.1224 2.11877 2.49374 11.7474 2.49374 23.625C2.49374 35.5026 12.1224 45.1313 24 45.1313Z" fill="url(#paint1_radial_734_5097)"/>
<path d="M24.0364 7.34999C23.8911 7.34999 23.7639 7.24106 23.7639 7.09574V3.29942C23.7639 3.1541 23.8911 3.04517 24.0364 3.04517C24.1817 3.04517 24.3088 3.1541 24.3088 3.29942V7.09574C24.2906 7.24106 24.1817 7.34999 24.0364 7.34999Z" fill="#E5E7E8"/>
<path d="M24.0364 7.36818C23.8729 7.36818 23.7458 7.24106 23.7458 7.09574V3.29942C23.7458 3.1541 23.8729 3.02698 24.0364 3.02698C24.1999 3.02698 24.327 3.1541 24.327 3.29942V7.09574C24.327 7.24106 24.1817 7.36818 24.0364 7.36818ZM24.0364 3.06317C23.9093 3.06317 23.7821 3.17229 23.7821 3.29942V7.09574C23.7821 7.22287 23.8911 7.33199 24.0364 7.33199C24.1635 7.33199 24.2906 7.22287 24.2906 7.09574V3.29942C24.2726 3.17229 24.1635 3.06317 24.0364 3.06317Z" fill="white"/>
<path d="M25.8529 5.31568C25.7076 5.29749 25.5986 5.18856 25.5986 5.04325L25.7258 3.35389C25.7438 3.20876 25.8711 3.09964 26.0164 3.11783C26.1617 3.13602 26.2706 3.24514 26.2706 3.39045L26.1435 5.07962C26.1253 5.22493 25.9982 5.33387 25.8529 5.31587V5.31568Z" fill="#E5E7E8"/>
<path d="M25.8529 5.33386C25.6894 5.31568 25.5804 5.18855 25.5804 5.04324L25.7076 3.35386C25.7258 3.20873 25.8529 3.08161 26.0164 3.09961C26.1797 3.11779 26.2888 3.24511 26.2888 3.39023L26.1617 5.07961C26.1435 5.24311 26.0164 5.35205 25.8529 5.33386ZM26.0164 3.13598C25.8893 3.13598 25.7619 3.22692 25.7619 3.35404L25.6348 5.04343C25.6348 5.17036 25.7258 5.27949 25.8711 5.29749C25.9982 5.29749 26.1253 5.20674 26.1253 5.07961L26.2524 3.39023C26.2524 3.26311 26.1435 3.15417 26.0162 3.13598H26.0164Z" fill="white"/>
<path d="M27.2152 7.67705C27.0697 7.64068 26.979 7.51355 26.9972 7.36824L27.7419 3.64448C27.7783 3.49935 27.9054 3.40841 28.0507 3.44479C28.196 3.48116 28.2868 3.60829 28.2686 3.7536L27.5239 7.47737C27.5057 7.6043 27.3604 7.69524 27.2151 7.67705H27.2152Z" fill="#E5E7E8"/>
<path d="M27.2153 7.69522C27.0516 7.65884 26.9608 7.51353 26.979 7.36822L27.7237 3.64448C27.7601 3.49936 27.9054 3.39023 28.0687 3.42661C28.2322 3.46298 28.3231 3.60829 28.305 3.75361L27.5602 7.47734C27.5239 7.62247 27.3786 7.7134 27.2153 7.69522ZM28.0687 3.46298C27.9416 3.44479 27.8145 3.51736 27.7781 3.64467L27.0336 7.36841C27.0154 7.49534 27.0879 7.62247 27.2333 7.65903C27.3604 7.67703 27.4875 7.60428 27.5239 7.47716L28.2686 3.75361C28.2868 3.60829 28.196 3.49936 28.0687 3.46298Z" fill="white"/>
<path d="M29.3948 6.04223C29.3602 6.03389 29.3275 6.01882 29.2988 5.99787C29.27 5.97691 29.2457 5.9505 29.2271 5.92013C29.2086 5.88976 29.1962 5.85603 29.1907 5.82087C29.1852 5.78571 29.1867 5.74982 29.1951 5.71523L29.6492 4.08061C29.6854 3.93529 29.8307 3.86254 29.976 3.89892C30.1213 3.93529 30.2123 4.08061 30.1759 4.22592L29.7218 5.86073C29.6854 6.00586 29.5401 6.07861 29.3948 6.04223Z" fill="#E5E7E8"/>
<path d="M29.3948 6.06041C29.2494 6.02403 29.1405 5.86053 29.1951 5.7154L29.6492 4.08039C29.6854 3.93527 29.8489 3.84433 29.9942 3.8807C30.1395 3.91708 30.2485 4.08058 30.1941 4.22571L29.74 5.86072C29.7036 6.00584 29.5583 6.09678 29.395 6.06041H29.3948ZM29.9942 3.93527C29.8671 3.89889 29.7218 3.97164 29.6854 4.09877L29.2314 5.7334C29.1951 5.86053 29.2676 5.98784 29.413 6.02403C29.5401 6.06041 29.6854 5.98784 29.7218 5.86072L30.1759 4.22571C30.1941 4.09877 30.1215 3.97164 29.9942 3.93508V3.93527Z" fill="white"/>
<path d="M30.2848 8.60348C30.1395 8.54892 30.0851 8.38541 30.1395 8.25829L31.5926 4.75259C31.647 4.62546 31.8107 4.55271 31.9376 4.62546C32.0831 4.67984 32.1377 4.84353 32.0831 4.97046L30.63 8.47616C30.5756 8.60348 30.4119 8.67604 30.285 8.60348H30.2848Z" fill="#E5E7E8"/>
<path d="M30.2848 8.62168C30.215 8.59508 30.1586 8.5419 30.128 8.47378C30.0973 8.40567 30.0949 8.32818 30.1213 8.25831L31.5744 4.75262C31.6289 4.60731 31.7924 4.55274 31.9559 4.60731C32.0257 4.6339 32.0821 4.68709 32.1127 4.7552C32.1434 4.82332 32.1458 4.9008 32.1194 4.97068L30.6663 8.47637C30.5936 8.62168 30.4301 8.69424 30.2848 8.62168ZM31.9377 4.64368C31.8106 4.58931 31.6653 4.64368 31.6107 4.77081L30.1577 8.27649C30.1033 8.40362 30.1759 8.53074 30.303 8.58531C30.4301 8.63968 30.5754 8.58531 30.63 8.45818L32.083 4.95249C32.1194 4.84337 32.0648 4.69806 31.9377 4.64368Z" fill="white"/>
<path d="M32.7371 7.44091C32.6098 7.36816 32.5553 7.22285 32.6098 7.09572L33.3727 5.58824C33.4452 5.46093 33.5906 5.40637 33.736 5.47912C33.8632 5.55187 33.9175 5.69718 33.8632 5.82411L33.1001 7.33178C33.0275 7.45891 32.8822 7.51366 32.7369 7.44091H32.7371Z" fill="#E5E7E8"/>
<path d="M32.7371 7.45914C32.5916 7.38639 32.5373 7.22289 32.6098 7.07757L33.3728 5.57008C33.4453 5.42458 33.609 5.37021 33.7542 5.44277C33.8995 5.51552 33.954 5.67902 33.8813 5.82433L33.1185 7.33182C33.0458 7.47714 32.8823 7.5317 32.7369 7.45895L32.7371 7.45914ZM33.7362 5.47914C33.6088 5.42477 33.4635 5.46095 33.4092 5.58808L32.6462 7.09576C32.5918 7.2047 32.6462 7.35001 32.7551 7.42276C32.8823 7.47714 33.0276 7.44095 33.0821 7.31382L33.8451 5.80614C33.8995 5.6972 33.8451 5.55189 33.7362 5.47914Z" fill="white"/>
<path d="M33.1003 10.1291C32.9732 10.0384 32.9368 9.87488 33.0276 9.76594L35.1347 6.62343C35.2072 6.4963 35.3709 6.47811 35.4979 6.55086C35.6252 6.64161 35.6614 6.80511 35.5706 6.91405L33.4635 10.0566C33.3909 10.1837 33.2274 10.2201 33.1003 10.1291Z" fill="#E5E7E8"/>
<path d="M33.1003 10.1473C32.9732 10.0565 32.9368 9.87485 33.0096 9.74773L35.1165 6.60526C35.2073 6.47814 35.3708 6.44177 35.5161 6.5327C35.6432 6.62345 35.6796 6.80514 35.607 6.93226L33.4999 10.0747C33.4091 10.2018 33.2274 10.238 33.1003 10.1473ZM35.4979 6.56908C35.3891 6.49633 35.2254 6.51452 35.1529 6.62345L33.0457 9.76591C32.9732 9.87466 33.0094 10.0202 33.1185 10.0927C33.2274 10.1655 33.3909 10.1473 33.4635 10.0383L35.5706 6.91407C35.6432 6.80514 35.607 6.64164 35.4979 6.56908Z" fill="white"/>
<path d="M35.7521 9.45721C35.6434 9.36627 35.607 9.20277 35.6977 9.09383L36.7513 7.76783C36.842 7.65908 37.0055 7.64071 37.1144 7.73164C37.2236 7.82239 37.2597 7.98589 37.1688 8.09483L36.1155 9.42083C36.0247 9.52977 35.8612 9.54796 35.7523 9.45721H35.7521Z" fill="#E5E7E8"/>
<path d="M35.7341 9.47531C35.607 9.38438 35.5888 9.20269 35.6797 9.07556L36.7331 7.74975C36.8238 7.62244 37.0055 7.60425 37.1326 7.71338C37.2598 7.80413 37.2779 7.98581 37.187 8.11294L36.1337 9.43894C36.0429 9.56606 35.8612 9.58425 35.7341 9.47531ZM37.0963 7.74956C36.9875 7.65881 36.842 7.677 36.7513 7.78594L35.6977 9.11194C35.6252 9.22088 35.6434 9.36619 35.7521 9.45694C35.8612 9.54788 36.0065 9.52969 36.0973 9.42075L37.1508 8.09475C37.2236 7.98581 37.2052 7.82231 37.0965 7.74975L37.0963 7.74956Z" fill="white"/>
<path d="M35.5706 12.1817C35.4617 12.0728 35.4617 11.9093 35.5706 11.8183L38.2587 9.14835C38.3679 9.03941 38.5312 9.05741 38.6221 9.14835C38.7129 9.2391 38.7311 9.42078 38.6221 9.51153L35.9522 12.1817C35.8431 12.2906 35.6796 12.2906 35.5706 12.1817Z" fill="#E5E7E8"/>
<path d="M35.5524 12.1999C35.5001 12.1466 35.4707 12.0749 35.4707 12.0001C35.4707 11.9254 35.5001 11.8537 35.5524 11.8004L38.2407 9.13018C38.294 9.07773 38.3658 9.04834 38.4406 9.04834C38.5153 9.04834 38.5871 9.07773 38.6404 9.13018C38.6928 9.18348 38.7222 9.25522 38.7222 9.32996C38.7222 9.40469 38.6928 9.47644 38.6404 9.52974L35.952 12.1997C35.8987 12.2521 35.827 12.2815 35.7522 12.2815C35.6775 12.2815 35.6057 12.2521 35.5524 12.1997V12.1999ZM38.6222 9.14836C38.5315 9.05743 38.368 9.05743 38.2772 9.14836L35.5888 11.8184C35.4979 11.9093 35.4979 12.0728 35.5888 12.1635C35.6796 12.2545 35.8431 12.2545 35.9338 12.1635L38.6222 9.49355C38.713 9.40261 38.713 9.2573 38.6222 9.14836Z" fill="white"/>
<path d="M38.2952 12.0364C38.2044 11.9275 38.2044 11.764 38.3134 11.673L39.603 10.5833C39.7119 10.4925 39.8754 10.5105 39.9663 10.6197C40.0571 10.7286 40.0571 10.8921 39.9481 10.9828L38.6586 12.0728C38.5494 12.1635 38.3859 12.1453 38.2952 12.0364Z" fill="#E5E7E8"/>
<path d="M38.277 12.0545C38.1681 11.9274 38.1863 11.7457 38.2952 11.655L39.5848 10.565C39.6937 10.4561 39.8754 10.4743 39.9843 10.6014C40.0934 10.7285 40.0752 10.9102 39.9663 11.001L38.6765 12.0909C38.5678 12.1997 38.3859 12.1817 38.2772 12.0545H38.277ZM39.9481 10.6196C39.8572 10.5107 39.7119 10.5107 39.6031 10.5832L38.3134 11.6732C38.2226 11.7639 38.2044 11.9092 38.2952 12.0182C38.3859 12.1271 38.5314 12.1271 38.6402 12.0545L39.9299 10.9646C40.0389 10.8739 40.0389 10.7285 39.9481 10.6196Z" fill="white"/>
<path d="M37.5686 14.6521C37.4779 14.525 37.5143 14.3615 37.6414 14.2887L40.8018 12.1818C40.9289 12.109 41.0924 12.1454 41.165 12.2545C41.2559 12.3816 41.2195 12.5451 41.0924 12.6177L37.932 14.7247C37.8229 14.7974 37.6594 14.761 37.5686 14.6521Z" fill="#E5E7E8"/>
<path d="M37.5504 14.6521C37.4597 14.5249 37.4961 14.3433 37.6232 14.2525L40.7837 12.1454C40.9108 12.0546 41.0925 12.091 41.1833 12.2363C41.2742 12.3635 41.2376 12.5451 41.1107 12.6357L37.9502 14.743C37.8229 14.8339 37.6414 14.7976 37.5504 14.6523V14.6521ZM41.1469 12.2727C41.0743 12.1636 40.929 12.1272 40.8201 12.2L37.6594 14.3069C37.5506 14.3796 37.5141 14.5249 37.605 14.6521C37.6776 14.761 37.8229 14.7974 37.932 14.7248L41.0925 12.6177C41.2014 12.527 41.2196 12.3815 41.1469 12.2727Z" fill="white"/>
<path d="M40.2753 15.0336C40.2026 14.9063 40.2389 14.743 40.3661 14.6702L41.8374 13.8347C41.9645 13.762 42.128 13.8165 42.2006 13.9435C42.2733 14.0708 42.237 14.2341 42.1098 14.3068L40.6385 15.1425C40.5114 15.2151 40.3479 15.1607 40.2751 15.0334L40.2753 15.0336Z" fill="#E5E7E8"/>
<path d="M40.2571 15.0516C40.1844 14.9063 40.2207 14.7428 40.3479 14.6702L41.8192 13.8347C41.9463 13.762 42.128 13.8165 42.2006 13.9435C42.2733 14.089 42.237 14.2525 42.1098 14.325L40.6385 15.1607C40.5114 15.2333 40.3297 15.1787 40.2571 15.0516ZM42.1824 13.9618C42.1098 13.8347 41.9645 13.7983 41.8556 13.8709L40.3842 14.7066C40.2753 14.7792 40.2389 14.9245 40.2933 15.0334C40.3661 15.1606 40.5114 15.1969 40.6203 15.1244L42.0916 14.2887C42.2006 14.2343 42.237 14.089 42.1824 13.9618Z" fill="white"/>
<path d="M39.0581 17.4493C39.0037 17.304 39.0581 17.1587 39.2034 17.1043L42.7091 15.6512C42.8362 15.5966 42.9997 15.6692 43.0541 15.7963C43.1087 15.9416 43.0541 16.0869 42.9088 16.1413L39.4033 17.5944C39.276 17.649 39.1127 17.5944 39.0581 17.4493Z" fill="#E5E7E8"/>
<path d="M39.0399 17.4673C38.9856 17.3222 39.0399 17.1587 39.1852 17.086L42.6909 15.6329C42.7608 15.6066 42.8382 15.609 42.9063 15.6396C42.9743 15.6703 43.0275 15.7266 43.0541 15.7964C43.1087 15.9417 43.0541 16.1052 42.9088 16.1777L39.4033 17.6308C39.3335 17.6572 39.256 17.6549 39.1879 17.6242C39.1198 17.5936 39.0666 17.5373 39.0399 17.4675V17.4673ZM43.0179 15.8146C42.9633 15.6874 42.818 15.6329 42.7091 15.6693L39.2034 17.1223C39.0763 17.1767 39.0217 17.3222 39.0763 17.4493C39.1307 17.5765 39.276 17.631 39.3851 17.5946L42.8906 16.1416C43.0179 16.0872 43.0725 15.9417 43.0179 15.8146Z" fill="white"/>
<path d="M41.6191 18.3576C41.5647 18.2121 41.6372 18.067 41.7825 18.0124L43.3809 17.4856C43.508 17.4312 43.6715 17.5219 43.7079 17.6491C43.7622 17.7944 43.6897 17.9397 43.5444 17.9943L41.946 18.5211C41.8189 18.5755 41.6736 18.5029 41.6191 18.3574V18.3576Z" fill="#E5E7E8"/>
<path d="M41.601 18.3756C41.5466 18.2303 41.6192 18.0668 41.7829 18.0124L43.381 17.4855C43.5263 17.4312 43.6898 17.5219 43.7444 17.6674C43.7987 17.8125 43.7262 17.976 43.5625 18.0306L41.9643 18.5575C41.819 18.5937 41.6556 18.5209 41.601 18.3756ZM43.708 17.6856C43.6716 17.5583 43.5263 17.4855 43.3992 17.5219L41.8009 18.0488C41.6737 18.085 41.6192 18.2303 41.6556 18.3576C41.6919 18.4847 41.8372 18.5573 41.9643 18.5209L43.5627 17.9942C43.6898 17.9399 43.7444 17.8125 43.708 17.6854V17.6856Z" fill="white"/>
<path d="M39.9847 20.5191C39.9483 20.3738 40.0391 20.2285 40.1844 20.2103L43.908 19.4837C44.0531 19.4474 44.1804 19.5563 44.2166 19.7016C44.253 19.8469 44.1622 19.9922 44.0169 20.0104L40.2933 20.7369C40.148 20.7551 40.0027 20.6644 39.9845 20.5191H39.9847Z" fill="#E5E7E8"/>
<path d="M39.9483 20.5191C39.9119 20.3556 40.0209 20.2103 40.1662 20.1739L43.8899 19.4473C44.0352 19.4109 44.1806 19.5201 44.2167 19.6836C44.2531 19.8469 44.1442 19.9922 43.9989 20.0286L40.2751 20.7551C40.13 20.7915 39.9845 20.6826 39.9483 20.5189V20.5191ZM44.1805 19.7016C44.1624 19.5744 44.0352 19.4837 43.9081 19.5019L40.1844 20.2284C40.0573 20.2466 39.9665 20.3918 40.0027 20.5191C40.0209 20.6462 40.148 20.7369 40.2753 20.7188L43.9989 19.9922C44.126 19.9558 44.2167 19.8287 44.1805 19.7016Z" fill="white"/>
<path d="M42.3096 21.9177C42.2914 21.7724 42.3821 21.6453 42.5274 21.6271L44.1984 21.4272C44.3437 21.4092 44.471 21.5182 44.489 21.6635C44.5072 21.8088 44.4165 21.9359 44.2712 21.9541L42.6 22.1537C42.4729 22.1719 42.3276 22.063 42.3094 21.9177H42.3096Z" fill="#E5E7E8"/>
<path d="M42.2914 21.9177C42.2732 21.7542 42.3821 21.6089 42.5274 21.5907L44.1984 21.391C44.3437 21.3728 44.489 21.4818 44.5072 21.6453C44.5254 21.8088 44.4164 21.9541 44.2711 21.9722L42.6 22.1719C42.4549 22.1901 42.3094 22.0812 42.2914 21.9177ZM44.489 21.6634C44.471 21.5363 44.3439 21.4272 44.2166 21.4454L42.5456 21.6453C42.4185 21.6634 42.3276 21.7906 42.3458 21.9177C42.3639 22.0448 42.4911 22.1539 42.6182 22.1357L44.2893 21.9359C44.4164 21.9177 44.5072 21.7906 44.4892 21.6634H44.489Z" fill="white"/>
<path d="M40.2753 23.6795C40.2753 23.5342 40.384 23.4071 40.5295 23.4071H44.3259C44.4712 23.4071 44.5801 23.5342 44.5801 23.6795C44.5801 23.8248 44.4712 23.952 44.3259 23.952H40.5295C40.3842 23.952 40.2753 23.8248 40.2753 23.6795Z" fill="#E5E7E8"/>
<path d="M40.2571 23.6795C40.2571 23.516 40.3842 23.3889 40.5295 23.3889H44.3259C44.4712 23.3889 44.5983 23.516 44.5983 23.6795C44.5983 23.843 44.4712 23.9701 44.3259 23.9701H40.5295C40.3842 23.9701 40.2571 23.843 40.2571 23.6795ZM44.5619 23.6977C44.5619 23.5706 44.453 23.4435 44.3257 23.4435H40.5297C40.4026 23.4435 40.2935 23.5522 40.2935 23.6977C40.2935 23.8248 40.4026 23.952 40.5297 23.952H44.326C44.4532 23.9338 44.5621 23.8248 44.5621 23.6977H44.5619Z" fill="white"/>
<path d="M42.2914 25.5141C42.3094 25.3688 42.4185 25.2599 42.5638 25.2599L44.2531 25.387C44.3983 25.4052 44.5072 25.5323 44.489 25.6776C44.471 25.8229 44.3619 25.9319 44.2166 25.9319L42.5274 25.8048C42.4003 25.7866 42.2912 25.6594 42.2912 25.5141H42.2914Z" fill="#E5E7E8"/>
<path d="M42.2732 25.5141C42.2914 25.3506 42.4185 25.2417 42.5638 25.2417L44.2533 25.3688C44.3984 25.387 44.5256 25.5141 44.5074 25.6776C44.4894 25.8411 44.3621 25.9501 44.2167 25.9501L42.5275 25.8229C42.3821 25.8048 42.2732 25.6595 42.2732 25.5141ZM44.4894 25.6776C44.5074 25.5505 44.3984 25.4234 44.2713 25.4234L42.5818 25.2963C42.4549 25.2963 42.3458 25.387 42.3276 25.5325C42.3096 25.6595 42.4185 25.7866 42.5456 25.7866L44.2351 25.9137C44.3621 25.9137 44.4712 25.8049 44.4894 25.6776Z" fill="white"/>
<path d="M39.9481 26.8401C39.9844 26.6948 40.1116 26.6038 40.2569 26.6222L43.9805 27.367C44.1258 27.4032 44.2167 27.5303 44.1803 27.6756C44.144 27.8209 44.0168 27.9118 43.8715 27.8937L40.1478 27.1489C40.0206 27.1307 39.9299 26.9854 39.9481 26.8401Z" fill="#E5E7E8"/>
<path d="M39.9299 26.8401C39.9663 26.6766 40.1116 26.5858 40.2569 26.6038L43.9804 27.3487C44.1257 27.3849 44.2346 27.5302 44.1983 27.6937C44.1621 27.8572 44.0168 27.9481 43.8715 27.9299L40.1478 27.1852C40.0025 27.1488 39.9117 27.0035 39.9299 26.8402V26.8401ZM44.1621 27.6937C44.1803 27.5666 44.1077 27.4395 43.9804 27.4031L40.2567 26.6584C40.1298 26.6404 40.0025 26.7129 39.9661 26.8582C39.9481 26.9854 40.0206 27.1125 40.148 27.1488L43.8715 27.8936C44.0168 27.9117 44.1257 27.8208 44.1621 27.6937Z" fill="white"/>
<path d="M41.583 29.0198C41.5913 28.9852 41.6064 28.9526 41.6273 28.9239C41.6483 28.8951 41.6747 28.8708 41.705 28.8522C41.7354 28.8337 41.7691 28.8213 41.8042 28.8158C41.8394 28.8103 41.8752 28.8117 41.9098 28.8201L43.5446 29.274C43.6899 29.3104 43.7625 29.4559 43.7263 29.6011C43.718 29.6357 43.7029 29.6683 43.682 29.6971C43.661 29.7259 43.6346 29.7502 43.6042 29.7688C43.5739 29.7874 43.5401 29.7998 43.505 29.8053C43.4698 29.8108 43.4339 29.8093 43.3993 29.8009L41.7645 29.3468C41.6192 29.3104 41.5466 29.1651 41.5828 29.0198H41.583Z" fill="#E5E7E8"/>
<path d="M41.5645 29.0198C41.6009 28.8745 41.7644 28.7655 41.9097 28.8201L43.5445 29.274C43.6898 29.3104 43.7807 29.4739 43.7444 29.6192C43.708 29.7645 43.5445 29.8734 43.3992 29.819L41.7644 29.3649C41.6191 29.3286 41.5281 29.1833 41.5647 29.02L41.5645 29.0198ZM43.6898 29.6192C43.7262 29.492 43.6534 29.3467 43.5263 29.3104L41.8915 28.8563C41.7644 28.8199 41.6373 28.8927 41.6009 29.038C41.5647 29.1651 41.6373 29.3104 41.7644 29.3467L43.3992 29.8008C43.5263 29.819 43.6534 29.7465 43.6898 29.6192Z" fill="white"/>
<path d="M39.0217 29.8917C39.0761 29.7463 39.2398 29.6918 39.3667 29.7463L42.8725 31.1994C42.9997 31.2538 43.0722 31.4175 43.0178 31.5444C42.9633 31.6899 42.7998 31.7443 42.6727 31.6899L39.167 30.2368C39.0217 30.1825 38.9672 30.0188 39.0217 29.8918V29.8917Z" fill="#E5E7E8"/>
<path d="M39.0036 29.8735C39.0302 29.8037 39.0833 29.7473 39.1515 29.7166C39.2196 29.686 39.2971 29.6836 39.3669 29.71L42.8725 31.1631C43.0179 31.2177 43.0722 31.3812 43.0179 31.5447C42.9913 31.6145 42.9381 31.6709 42.87 31.7015C42.8018 31.7322 42.7244 31.7346 42.6545 31.7082L39.1489 30.255C39.0036 30.1823 38.9492 30.0188 39.0036 29.8735ZM42.9815 31.5265C43.0359 31.3994 42.9815 31.2541 42.8544 31.1995L39.3487 29.7463C39.2216 29.692 39.0945 29.7645 39.0399 29.8917C38.9856 30.0188 39.0399 30.1641 39.1671 30.2187L42.6727 31.6718C42.7998 31.7082 42.9451 31.6536 42.9815 31.5265Z" fill="white"/>
<path d="M40.2024 32.3438C40.2752 32.2166 40.4203 32.1621 40.5474 32.2166L42.055 32.9796C42.1821 33.034 42.2366 33.1975 42.1641 33.3428C42.0913 33.4699 41.946 33.5247 41.8189 33.4699L40.3116 32.7071C40.1843 32.6344 40.1297 32.4709 40.2024 32.3438Z" fill="#E5E7E8"/>
<path d="M40.1841 32.3256C40.2569 32.1803 40.4204 32.1259 40.5657 32.1985L42.0732 32.9615C42.2185 33.0342 42.2731 33.1977 42.2003 33.3428C42.1278 33.4881 41.9641 33.5427 41.819 33.47L40.3114 32.7072C40.1659 32.6528 40.1116 32.471 40.1841 32.3256ZM42.146 33.3246C42.2003 33.1975 42.164 33.0522 42.0368 32.9978L40.5293 32.2349C40.4202 32.1805 40.2751 32.2349 40.2023 32.3438C40.1479 32.471 40.1841 32.6163 40.3113 32.6708L41.8188 33.4338C41.9461 33.4881 42.0914 33.452 42.146 33.3246Z" fill="white"/>
<path d="M37.5323 32.6889C37.6232 32.5618 37.7685 32.5254 37.8956 32.6162L41.0562 34.7233C41.1833 34.7959 41.2015 34.9596 41.1289 35.0865C41.038 35.2138 40.8927 35.25 40.7655 35.1592L37.605 33.0521C37.4779 32.9614 37.4415 32.7979 37.5323 32.6889Z" fill="#E5E7E8"/>
<path d="M37.5141 32.6708C37.605 32.5437 37.7867 32.5073 37.9138 32.5801L41.0744 34.687C41.2015 34.7777 41.2379 34.9412 41.147 35.0865C41.0562 35.2138 40.8745 35.25 40.7476 35.1775L37.5868 33.0704C37.4415 32.9796 37.4233 32.7979 37.5141 32.6708ZM41.0926 35.0683C41.1652 34.9596 41.147 34.7959 41.0382 34.7233L37.8775 32.6162C37.7685 32.5437 37.6232 32.5801 37.5504 32.689C37.4779 32.7979 37.4961 32.9614 37.6048 33.034L40.7656 35.1411C40.8745 35.2138 41.0198 35.1775 41.0926 35.0685V35.0683Z" fill="white"/>
<path d="M38.2044 35.3228C38.2952 35.2137 38.4587 35.1775 38.5676 35.2684L39.8936 36.3036C40.0026 36.3944 40.0208 36.5579 39.93 36.667C39.8393 36.7757 39.6758 36.8123 39.5666 36.7214L38.2406 35.686C38.1319 35.5952 38.1135 35.4317 38.2044 35.3228Z" fill="#E5E7E8"/>
<path d="M38.1863 35.3046C38.277 35.1775 38.4587 35.1593 38.5858 35.2502L39.9118 36.2854C40.0389 36.3762 40.0571 36.5579 39.9662 36.685C39.8754 36.8123 39.6937 36.8303 39.5668 36.7395L38.2406 35.7042C38.1135 35.6134 38.0955 35.4317 38.1863 35.3046ZM39.93 36.667C40.0207 36.5579 40.0025 36.4125 39.8936 36.3218L38.5676 35.2864C38.4587 35.2138 38.3134 35.232 38.2226 35.3408C38.1317 35.4499 38.1499 35.5952 38.2588 35.686L39.5848 36.7214C39.6937 36.7941 39.839 36.7757 39.9298 36.667H39.93Z" fill="white"/>
<path d="M35.4979 35.141C35.607 35.0321 35.7705 35.0321 35.8613 35.141L38.5495 37.811C38.6586 37.9201 38.6404 38.0836 38.5495 38.1744C38.4407 38.2833 38.277 38.2833 38.1863 38.1744L35.4979 35.5044C35.4071 35.4135 35.4071 35.2318 35.4979 35.141Z" fill="#E5E7E8"/>
<path d="M35.4979 35.1229C35.5512 35.0704 35.623 35.041 35.6978 35.041C35.7725 35.041 35.8443 35.0704 35.8976 35.1229L38.5859 37.7928C38.6383 37.8461 38.6677 37.9179 38.6677 37.9927C38.6677 38.0675 38.6383 38.1392 38.5859 38.1926C38.5326 38.2449 38.4608 38.2743 38.3861 38.2743C38.3114 38.2743 38.2396 38.2449 38.1863 38.1926L35.4979 35.5226C35.3707 35.4135 35.3707 35.232 35.4979 35.1229ZM38.5495 38.1562C38.6404 38.0654 38.6404 37.9019 38.5495 37.8112L35.8613 35.141C35.7705 35.0503 35.607 35.0503 35.5162 35.141C35.4253 35.2318 35.4253 35.3953 35.5162 35.486L38.2045 38.1562C38.2952 38.2653 38.4408 38.2653 38.5495 38.1562Z" fill="white"/>
<path d="M35.6614 37.8474C35.7705 37.7567 35.9338 37.7567 36.0248 37.8656L37.1329 39.1371C37.2235 39.2462 37.2055 39.4097 37.0964 39.5005C36.9876 39.5912 36.8239 39.5912 36.7332 39.4823L35.625 38.2108C35.5343 38.1201 35.5524 37.9566 35.6614 37.8474Z" fill="#E5E7E8"/>
<path d="M35.6434 37.8474C35.7705 37.7386 35.934 37.7566 36.0427 37.8656L37.1509 39.1371C37.2598 39.2462 37.2416 39.4277 37.1145 39.5369C36.9874 39.6458 36.8239 39.6276 36.7149 39.5187L35.6068 38.2472C35.5161 38.12 35.5161 37.9383 35.6432 37.8474H35.6434ZM37.0965 39.5005C37.2053 39.4097 37.2052 39.2642 37.1327 39.1555L36.0246 37.8838C35.9338 37.793 35.7885 37.7748 35.6796 37.8656C35.5706 37.9565 35.5706 38.1018 35.6432 38.2106L36.7513 39.4823C36.8421 39.5913 36.9876 39.5913 37.0963 39.5005H37.0965Z" fill="white"/>
<path d="M33.0458 37.1573C33.1729 37.0666 33.3364 37.1029 33.4092 37.2301L35.516 40.3723C35.5887 40.4995 35.5524 40.663 35.4434 40.7357C35.3163 40.8265 35.1528 40.7901 35.08 40.663L32.973 37.5205C32.9003 37.3936 32.9366 37.2299 33.0456 37.1573H33.0458Z" fill="#E5E7E8"/>
<path d="M33.0457 37.1391C33.1729 37.0484 33.3545 37.0848 33.4453 37.2119L35.5523 40.3543C35.6431 40.4812 35.6067 40.6629 35.4616 40.7536C35.3343 40.8446 35.1528 40.8082 35.0618 40.6811L32.955 37.5387C32.8643 37.3936 32.9006 37.2301 33.0457 37.1393V37.1391ZM35.4434 40.7174C35.5523 40.6447 35.5887 40.4994 35.5159 40.3904L33.4091 37.2481C33.3364 37.1393 33.1911 37.1209 33.0641 37.1937C32.955 37.2662 32.9186 37.4116 32.9914 37.5207L35.0982 40.6629C35.171 40.7536 35.3345 40.79 35.4432 40.7172L35.4434 40.7174Z" fill="white"/>
<path d="M32.6644 39.8454C32.7915 39.7729 32.955 39.8092 33.0276 39.9364L33.8632 41.4077C33.9358 41.5348 33.8812 41.6983 33.7541 41.7709C33.627 41.8436 33.4635 41.8072 33.3909 41.6801L32.5554 40.2088C32.5009 40.0817 32.5373 39.9182 32.6642 39.8456L32.6644 39.8454Z" fill="#E5E7E8"/>
<path d="M32.6644 39.8275C32.8097 39.7547 32.9732 39.7911 33.0457 39.9182L33.8812 41.3897C33.954 41.5168 33.9176 41.6985 33.7725 41.7711C33.627 41.8438 33.4635 41.8074 33.3909 41.6803L32.5554 40.2089C32.4827 40.0818 32.5191 39.9182 32.6642 39.8275H32.6644ZM33.7541 41.753C33.8632 41.6803 33.9176 41.535 33.8451 41.426L33.0096 39.9546C32.9368 39.8457 32.7915 39.8093 32.6826 39.8637C32.5734 39.9364 32.5191 40.0818 32.5916 40.1907L33.4273 41.6621C33.4817 41.7711 33.6452 41.8256 33.7541 41.7529V41.753Z" fill="white"/>
<path d="M30.2484 38.6467C30.3938 38.5924 30.5391 38.6467 30.5936 38.7738L32.065 42.2793C32.1193 42.4064 32.0468 42.5699 31.9196 42.6243C31.7925 42.6788 31.629 42.6243 31.5746 42.4971L30.1033 38.9919C30.0488 38.8646 30.1213 38.7013 30.2484 38.6467Z" fill="#E5E7E8"/>
<path d="M30.2484 38.6286C30.3938 38.5742 30.5572 38.6286 30.63 38.7739L32.1013 42.2798C32.1276 42.3497 32.1252 42.4271 32.0945 42.4952C32.0639 42.5633 32.0075 42.6164 31.9378 42.643C31.7925 42.6976 31.629 42.643 31.5564 42.4977L30.0851 38.992C30.0306 38.8647 30.1033 38.7013 30.2484 38.6286ZM31.9014 42.6068C32.0285 42.5523 32.0831 42.4069 32.0285 42.298L30.5572 38.7921C30.5029 38.665 30.3576 38.6104 30.2304 38.665C30.1033 38.7193 30.0486 38.8647 30.1033 38.9738L31.5744 42.4797C31.6472 42.6068 31.7743 42.6612 31.9014 42.6068Z" fill="white"/>
<path d="M29.3584 41.226C29.5039 41.1717 29.649 41.2442 29.7036 41.3895L30.2304 42.988C30.2848 43.1151 30.1941 43.2786 30.067 43.315C29.9216 43.3694 29.7763 43.2968 29.7219 43.1515L29.1951 41.5531C29.1407 41.4259 29.2133 41.2806 29.3586 41.226H29.3584Z" fill="#E5E7E8"/>
<path d="M29.3404 41.2077C29.4102 41.1814 29.4877 41.1838 29.5558 41.2144C29.6238 41.2451 29.677 41.3015 29.7036 41.3712L30.2305 42.9696C30.2849 43.1149 30.1941 43.2784 30.0486 43.333C29.9788 43.3593 29.9013 43.3569 29.8333 43.3262C29.7652 43.2956 29.712 43.2392 29.6854 43.1695L29.1587 41.5711C29.1223 41.4258 29.1951 41.2623 29.3404 41.2077ZM30.0488 43.2964C30.176 43.2602 30.2485 43.1149 30.2123 42.9878L29.6854 41.3894C29.6492 41.2623 29.5039 41.2077 29.3768 41.2441C29.2494 41.2805 29.1769 41.4258 29.2133 41.5529L29.74 43.1513C29.7492 43.1821 29.7649 43.2107 29.7859 43.235C29.8069 43.2594 29.8329 43.2791 29.862 43.2928C29.8911 43.3065 29.9228 43.3139 29.955 43.3146C29.9872 43.3152 30.0192 43.3091 30.0488 43.2966V43.2964Z" fill="white"/>
<path d="M27.2153 39.5732C27.3604 39.5368 27.5059 39.6276 27.5239 39.7729L28.2869 43.4967C28.3233 43.6419 28.2142 43.7692 28.0689 43.8054C27.9237 43.8417 27.7782 43.751 27.7602 43.6057L26.997 39.8818C26.979 39.7547 27.0698 39.6094 27.2151 39.573L27.2153 39.5732Z" fill="#E5E7E8"/>
<path d="M27.2152 39.5547C27.3785 39.5185 27.5238 39.6275 27.5602 39.7728L28.3231 43.4965C28.3594 43.6416 28.2503 43.8051 28.105 43.8233C27.9415 43.8597 27.7962 43.7508 27.7601 43.6054L26.997 39.8817C26.9608 39.7364 27.0517 39.5911 27.215 39.5549L27.2152 39.5547ZM28.0687 43.7869C28.196 43.7689 28.2867 43.6416 28.2685 43.4963L27.5056 39.7728C27.4876 39.6457 27.3423 39.5549 27.215 39.5911C27.0879 39.6093 26.9972 39.7364 27.0154 39.8817L27.7782 43.6054C27.8144 43.7326 27.9415 43.8051 28.0688 43.7871L28.0687 43.7869Z" fill="white"/>
<path d="M25.8347 41.9344C25.98 41.9162 26.1071 42.0072 26.1435 42.1525L26.3614 43.8235C26.3795 43.9688 26.2706 44.0959 26.1251 44.1141C25.98 44.1323 25.8529 44.0415 25.8165 43.8962L25.5986 42.2251C25.5804 42.0797 25.6894 41.9526 25.8347 41.9344Z" fill="#E5E7E8"/>
<path d="M25.8347 41.9163C25.9982 41.8983 26.1435 42.0072 26.1617 42.1525L26.3795 43.8236C26.3977 43.9689 26.2888 44.1142 26.1253 44.1324C25.9618 44.1506 25.8165 44.0416 25.7983 43.8961L25.5804 42.2251C25.5623 42.0798 25.6712 41.9344 25.8347 41.9163ZM26.1071 44.096C26.2342 44.078 26.3434 43.9507 26.3252 43.8236L26.1071 42.1525C26.0889 42.0254 25.9618 41.9344 25.8347 41.9526C25.7076 41.9708 25.5984 42.0979 25.6166 42.2251L25.8347 43.8963C25.8529 44.0234 25.98 44.1142 26.1071 44.096Z" fill="white"/>
<path d="M23.9638 39.8999C24.1091 39.8999 24.2362 40.009 24.2362 40.1543V43.9505C24.2362 44.0958 24.1091 44.205 23.9638 44.205C23.8185 44.205 23.6914 44.0958 23.6914 43.9505V40.1543C23.7096 40.009 23.8185 39.8999 23.9638 39.8999Z" fill="#E5E7E8"/>
<path d="M23.9638 39.8817C24.1273 39.8817 24.2544 40.0088 24.2544 40.1542V43.9505C24.2544 44.0958 24.1273 44.2229 23.9638 44.2229C23.8003 44.2229 23.6732 44.0958 23.6732 43.9505V40.1543C23.6732 40.009 23.8185 39.8817 23.9638 39.8817ZM23.9638 44.1867C24.0909 44.1867 24.218 44.0778 24.218 43.9505V40.1543C24.218 40.027 24.1091 39.9181 23.9638 39.9181C23.8367 39.9181 23.7096 40.027 23.7096 40.1543V43.9505C23.7276 44.0778 23.8367 44.1867 23.9638 44.1867Z" fill="white"/>
<path d="M22.1474 41.9344C22.2927 41.9525 22.4016 42.0615 22.4016 42.2068L22.2745 43.8962C22.2565 44.0415 22.1292 44.1504 21.9839 44.1324C21.8386 44.114 21.7296 44.0051 21.7296 43.8598L21.8567 42.1704C21.8749 42.0253 22.002 41.9162 22.1474 41.9344Z" fill="#E5E7E8"/>
<path d="M22.1474 41.9162C22.3109 41.9344 22.4198 42.0616 22.4198 42.2069L22.2927 43.8963C22.2745 44.0416 22.1474 44.1687 21.9839 44.1506C21.8206 44.1324 21.7114 44.0052 21.7114 43.8599L21.8385 42.1705C21.8567 42.0072 21.9839 41.8982 22.1474 41.9162ZM21.9839 44.1142C22.111 44.1142 22.2383 44.0234 22.2383 43.8963L22.3654 42.2069C22.3654 42.0798 22.2745 41.9708 22.1292 41.9526C22.0021 41.9526 21.8749 42.0434 21.8749 42.1707L21.7478 43.8599C21.7478 43.987 21.8567 44.0962 21.9841 44.1142H21.9839Z" fill="white"/>
<path d="M20.785 39.5734C20.9303 39.6096 21.0211 39.7367 21.0029 39.882L20.2582 43.6057C20.2218 43.751 20.0947 43.842 19.9494 43.8054C19.8041 43.7692 19.7133 43.6421 19.7315 43.4966L20.4762 39.7731C20.4944 39.6459 20.6397 39.5552 20.785 39.5734Z" fill="#E5E7E8"/>
<path d="M20.7851 39.5549C20.9484 39.5913 21.0394 39.7368 21.0212 39.8819L20.2764 43.6057C20.2401 43.751 20.0948 43.86 19.9314 43.8236C19.7679 43.7872 19.677 43.6419 19.6952 43.4966L20.4399 39.773C20.4763 39.6276 20.6216 39.5367 20.7849 39.5551L20.7851 39.5549ZM19.9314 43.7872C20.0586 43.8054 20.1857 43.7329 20.2221 43.6057L20.9666 39.8819C20.9848 39.7548 20.9123 39.6277 20.7669 39.5913C20.6398 39.5733 20.5127 39.6458 20.4763 39.7732L19.7316 43.4966C19.7134 43.6419 19.8041 43.751 19.9314 43.7872Z" fill="white"/>
<path d="M18.6053 41.2079C18.7508 41.2443 18.8415 41.3896 18.8051 41.5349L18.351 43.1696C18.3148 43.3149 18.1695 43.3875 18.0242 43.3513C17.9896 43.343 17.957 43.3279 17.9282 43.307C17.8994 43.286 17.875 43.2596 17.8564 43.2293C17.8379 43.1989 17.8255 43.1651 17.82 43.13C17.8145 43.0948 17.8159 43.0589 17.8243 43.0243L18.2784 41.3896C18.3148 41.2443 18.4601 41.1717 18.6055 41.2079H18.6053Z" fill="#E5E7E8"/>
<path d="M18.6052 41.19C18.7507 41.2262 18.8597 41.3897 18.8051 41.535L18.351 43.1698C18.3148 43.3151 18.1513 43.406 18.006 43.3695C17.8607 43.3333 17.7518 43.1698 17.8061 43.0245L18.2602 41.3897C18.2966 41.2443 18.4419 41.1534 18.6052 41.1898V41.19ZM18.006 43.3151C18.1331 43.3515 18.2784 43.2787 18.3148 43.1516L18.7687 41.5168C18.8051 41.3897 18.7326 41.2625 18.5872 41.2262C18.4601 41.1898 18.3148 41.2625 18.2784 41.3897L17.8243 43.0245C17.8061 43.1516 17.8787 43.2787 18.006 43.3151Z" fill="white"/>
<path d="M17.7154 38.6467C17.8607 38.7011 17.915 38.8646 17.8607 38.9917L16.4076 42.4973C16.3532 42.6246 16.1895 42.6972 16.0626 42.6246C15.9353 42.5518 15.8625 42.4065 15.9171 42.2794L17.3702 38.7738C17.4245 38.6467 17.5882 38.574 17.7152 38.6467H17.7154Z" fill="#E5E7E8"/>
<path d="M17.7153 38.6284C17.7851 38.655 17.8415 38.7082 17.8722 38.7763C17.9028 38.8445 17.9052 38.9219 17.8788 38.9918L16.4257 42.4974C16.3712 42.6427 16.2077 42.6973 16.0442 42.6427C15.9744 42.6161 15.9181 42.563 15.8874 42.4949C15.8568 42.4268 15.8544 42.3494 15.8807 42.2795L17.3338 38.7738C17.4065 38.6284 17.57 38.5559 17.7153 38.6284ZM16.0624 42.6065C16.1895 42.6609 16.3348 42.6065 16.3894 42.4794L17.8425 38.9736C17.8968 38.8465 17.8243 38.7192 17.6971 38.6648C17.57 38.6104 17.4247 38.6648 17.3702 38.7919L15.9171 42.2977C15.8807 42.4066 15.9352 42.552 16.0624 42.6065Z" fill="white"/>
<path d="M15.2632 39.8094C15.3904 39.882 15.4447 40.0273 15.3903 40.1544L14.6274 41.6622C14.5547 41.7893 14.4094 41.8438 14.2641 41.7711C14.1369 41.6985 14.0826 41.5532 14.1369 41.4261L14.9 39.9186C14.9726 39.7913 15.1179 39.7367 15.2632 39.8094Z" fill="#E5E7E8"/>
<path d="M15.2632 39.791C15.4086 39.8636 15.4629 40.0273 15.3904 40.1724L14.6274 41.68C14.5547 41.8253 14.3912 41.8799 14.2461 41.8071C14.1008 41.7346 14.0462 41.5709 14.1189 41.4258L14.8817 39.9183C14.9544 39.7728 15.1179 39.7185 15.2632 39.791ZM14.2643 41.7709C14.3914 41.8253 14.5367 41.7889 14.5911 41.6618L15.354 40.1544C15.4084 40.0453 15.354 39.9 15.2451 39.8274C15.1179 39.773 14.9726 39.8092 14.9181 39.9363L14.1551 41.4438C14.1008 41.5529 14.1551 41.6982 14.2643 41.7708V41.7709Z" fill="white"/>
<path d="M14.8999 37.1211C15.027 37.2119 15.0634 37.3754 14.9726 37.4843L12.8655 40.627C12.7929 40.7539 12.6292 40.7721 12.5023 40.6996C12.3752 40.6086 12.3388 40.4453 12.4296 40.3362L14.5367 37.1935C14.6092 37.0666 14.7727 37.0302 14.8999 37.121V37.1211Z" fill="#E5E7E8"/>
<path d="M14.8999 37.1028C15.027 37.1937 15.0634 37.3754 14.9907 37.5025L12.8837 40.645C12.7929 40.772 12.6294 40.8083 12.4841 40.7176C12.357 40.6267 12.3206 40.4452 12.3932 40.3178L14.5003 37.1755C14.5911 37.0484 14.7728 37.012 14.8999 37.1028ZM12.5023 40.6812C12.6111 40.7538 12.7748 40.7356 12.8473 40.6268L14.9545 37.4843C15.027 37.3754 14.9909 37.2301 14.8817 37.1573C14.7728 37.0848 14.6093 37.1029 14.5367 37.2117L12.4296 40.336C12.357 40.4452 12.3932 40.6085 12.5023 40.681V40.6812Z" fill="white"/>
<path d="M12.2479 37.793C12.357 37.8838 12.3932 38.0473 12.3024 38.1562L11.2489 39.4822C11.1581 39.5911 10.9946 39.6093 10.8857 39.5186C10.7768 39.4278 10.7404 39.2643 10.8313 39.1552L11.8847 37.8292C11.9755 37.7205 12.1389 37.7021 12.2479 37.793Z" fill="#E5E7E8"/>
<path d="M12.2661 37.7749C12.3932 37.8657 12.4114 38.0474 12.3205 38.1745L11.2671 39.5006C11.1764 39.6277 10.9947 39.6459 10.8675 39.5369C10.7404 39.446 10.7222 39.2645 10.8132 39.1372L11.8666 37.8113C11.9573 37.684 12.139 37.666 12.2661 37.7749ZM10.9039 39.5006C11.0127 39.5913 11.1582 39.5733 11.2489 39.4642L12.3025 38.1381C12.3752 38.0294 12.3569 37.8839 12.2481 37.7931C12.139 37.7022 11.9937 37.7204 11.9029 37.8295L10.8494 39.1554C10.7768 39.2645 10.795 39.4278 10.9037 39.5006H10.9039Z" fill="white"/>
<path d="M12.4295 35.0685C12.5385 35.1773 12.5385 35.341 12.4295 35.4317L9.74138 38.1017C9.63226 38.2109 9.46895 38.1927 9.37801 38.1017C9.28727 38.011 9.26908 37.8293 9.37801 37.7385L12.048 35.0685C12.1571 34.9594 12.3206 34.9594 12.4295 35.0685Z" fill="#E5E7E8"/>
<path d="M12.4478 35.0504C12.5001 35.1037 12.5294 35.1754 12.5294 35.2501C12.5294 35.3248 12.5001 35.3965 12.4478 35.4498L9.75938 38.1202C9.70609 38.1725 9.63438 38.2018 9.55969 38.2018C9.485 38.2018 9.4133 38.1725 9.36001 38.1202C9.30756 38.0669 9.27817 37.9951 9.27817 37.9203C9.27817 37.8455 9.30756 37.7737 9.36001 37.7204L12.0482 35.0504C12.1015 34.998 12.1732 34.9686 12.248 34.9686C12.3227 34.9686 12.3945 34.998 12.4478 35.0504ZM9.37801 38.1018C9.46876 38.1925 9.63226 38.1925 9.72301 38.1018L12.4114 35.4316C12.5023 35.3408 12.5023 35.1773 12.4114 35.0866C12.3206 34.9956 12.1571 34.9956 12.0664 35.0866L9.37801 37.7566C9.28726 37.8474 9.28726 37.9929 9.37801 38.1016V38.1018Z" fill="white"/>
<path d="M9.705 35.2139C9.79575 35.3226 9.79575 35.4863 9.68681 35.5771L8.39718 36.6671C8.28825 36.7578 8.12475 36.7396 8.03381 36.6307C7.94306 36.5216 7.94306 36.3582 8.052 36.2673L9.34162 35.1775C9.45075 35.0865 9.61406 35.1047 9.705 35.2139Z" fill="#E5E7E8"/>
<path d="M9.72319 35.1955C9.83213 35.3228 9.81394 35.5043 9.705 35.5952L8.41537 36.6849C8.30643 36.794 8.12475 36.7758 8.01581 36.6487C7.90668 36.5214 7.92487 36.3399 8.03381 36.249L9.32363 35.1593C9.43238 35.0503 9.61425 35.0685 9.723 35.1957L9.72319 35.1955ZM8.052 36.6305C8.14293 36.7395 8.28825 36.7395 8.397 36.6669L9.68682 35.577C9.77757 35.4863 9.79575 35.3408 9.705 35.232C9.61407 35.1229 9.46875 35.1229 9.36 35.1957L8.07018 36.2854C7.96125 36.3761 7.96125 36.5216 8.052 36.6303V36.6305Z" fill="white"/>
<path d="M10.4316 32.598C10.5223 32.7253 10.4859 32.8886 10.3588 32.9614L7.19832 35.0684C7.07119 35.141 6.90769 35.1046 6.83513 34.9957C6.74419 34.8686 6.78057 34.7051 6.90769 34.6323L10.0684 32.5254C10.1775 32.4529 10.3408 32.4891 10.4317 32.598H10.4316Z" fill="#E5E7E8"/>
<path d="M10.4497 32.598C10.5404 32.7253 10.5041 32.9068 10.3769 32.9977L7.21648 35.1046C7.08936 35.1956 6.90767 35.159 6.81692 35.0139C6.72599 34.8868 6.76255 34.7051 6.88949 34.6143L10.0501 32.5072C10.1773 32.4165 10.3588 32.4528 10.4495 32.598H10.4497ZM6.8533 34.9775C6.92586 35.0864 7.07117 35.1228 7.18011 35.0503L10.3406 32.9432C10.4497 32.8706 10.4859 32.7253 10.3951 32.5982C10.3226 32.489 10.1773 32.4528 10.0681 32.5254L6.90767 34.6325C6.79874 34.7233 6.78055 34.8686 6.8533 34.9775Z" fill="white"/>
<path d="M7.72502 32.2166C7.79777 32.3437 7.76139 32.5072 7.63426 32.5799L6.16294 33.4154C6.03582 33.488 5.87231 33.4336 5.79975 33.3065C5.727 33.1794 5.76338 33.0159 5.8905 32.9431L7.36183 32.1077C7.48895 32.0349 7.65245 32.0895 7.7252 32.2166H7.72502Z" fill="#E5E7E8"/>
<path d="M7.74336 32.1984C7.81592 32.3437 7.77955 32.5072 7.65242 32.5799L6.18112 33.4154C6.054 33.488 5.87231 33.4336 5.79975 33.3065C5.727 33.1612 5.76338 32.9977 5.8905 32.9249L7.3618 32.0895C7.48893 32.0167 7.67061 32.0713 7.74317 32.1984H7.74336ZM5.81775 33.2883C5.8905 33.4154 6.03581 33.4518 6.14475 33.379L7.61605 32.5436C7.72499 32.4708 7.76136 32.3255 7.70699 32.2166C7.63424 32.0895 7.48893 32.0531 7.37999 32.1258L5.90869 32.9613C5.79975 33.0157 5.76338 33.1612 5.81794 33.2883H5.81775Z" fill="white"/>
<path d="M8.94205 29.8009C8.99643 29.9462 8.94205 30.0915 8.79674 30.1459L5.29105 31.599C5.16393 31.6536 5.00043 31.581 4.94605 31.4537C4.89149 31.3084 4.94605 31.1631 5.09136 31.1087L8.59705 29.6556C8.72417 29.6012 8.88768 29.6556 8.94205 29.8009Z" fill="#E5E7E8"/>
<path d="M8.96024 29.7827C9.01461 29.928 8.96024 30.0915 8.81493 30.1641L5.30924 31.6172C5.23939 31.6435 5.16195 31.6411 5.09388 31.6105C5.02581 31.5798 4.97265 31.5234 4.94605 31.4537C4.89149 31.3084 4.94605 31.1449 5.09136 31.0723L8.59705 29.6192C8.6669 29.5929 8.74434 29.5953 8.81241 29.6259C8.88048 29.6566 8.93364 29.713 8.96024 29.7827ZM4.98224 31.4355C5.0368 31.5628 5.18211 31.6174 5.29105 31.5808L8.79674 30.1277C8.92386 30.0733 8.97843 29.928 8.92386 29.8009C8.86949 29.6738 8.72418 29.6192 8.61505 29.6556L5.10936 31.1087C4.98224 31.1631 4.92786 31.3084 4.98224 31.4357V31.4355Z" fill="white"/>
<path d="M6.38102 28.8926C6.43539 29.0379 6.36283 29.1832 6.21752 29.2376L4.61906 29.7645C4.49194 29.8188 4.32843 29.7281 4.29206 29.601C4.23768 29.4557 4.31025 29.3103 4.45556 29.256L6.05402 28.7291C6.18114 28.6747 6.32646 28.7473 6.38102 28.8926Z" fill="#E5E7E8"/>
<path d="M6.399 28.8745C6.45357 29.0198 6.381 29.1833 6.2175 29.2379L4.61907 29.7646C4.47375 29.819 4.31025 29.7282 4.25569 29.5829C4.20132 29.4376 4.27388 29.2741 4.43757 29.2197L6.03582 28.6928C6.18113 28.6566 6.34463 28.7292 6.39919 28.8747L6.399 28.8745ZM4.29225 29.5649C4.32863 29.692 4.47394 29.7648 4.60107 29.7284L6.1995 29.2015C6.32663 29.1653 6.38119 29.02 6.34482 28.8929C6.30844 28.7657 6.16313 28.693 6.036 28.7294L4.43757 29.2563C4.31044 29.3106 4.25588 29.4378 4.29225 29.5649Z" fill="white"/>
<path d="M8.01583 26.7312C8.05201 26.8765 7.96126 27.0218 7.81595 27.04L4.0922 27.7666C3.94689 27.8029 3.81976 27.6938 3.78358 27.5485C3.7472 27.4032 3.83795 27.2579 3.98326 27.2397L7.70701 26.5131C7.85233 26.4951 7.99764 26.5859 8.01564 26.7312H8.01583Z" fill="#E5E7E8"/>
<path d="M8.05199 26.7311C8.08836 26.8946 7.97942 27.0399 7.83411 27.0761L4.11036 27.8027C3.96505 27.839 3.81974 27.7301 3.78355 27.5666C3.74717 27.4031 3.85611 27.2578 4.00142 27.2216L7.72517 26.4951C7.8703 26.4587 8.0158 26.5676 8.05199 26.7311ZM3.81974 27.5486C3.83792 27.6755 3.96505 27.7665 4.09217 27.7483L7.81592 27.0217C7.94305 27.0036 8.0338 26.8582 7.99761 26.7311C7.97942 26.604 7.8523 26.5131 7.72499 26.5312L4.00142 27.2578C3.8743 27.2942 3.78355 27.4213 3.81974 27.5484V27.5486Z" fill="white"/>
<path d="M5.6908 25.3326C5.7088 25.4778 5.61805 25.6051 5.47274 25.6233L3.80175 25.823C3.65625 25.8412 3.52913 25.7322 3.51113 25.5867C3.49294 25.4416 3.58369 25.3144 3.729 25.2961L5.40018 25.0963C5.5273 25.0782 5.67261 25.1871 5.6908 25.3326Z" fill="#E5E7E8"/>
<path d="M5.709 25.3326C5.727 25.4959 5.61806 25.6412 5.47275 25.6594L3.80176 25.8592C3.65626 25.8774 3.51114 25.7685 3.49295 25.605C3.47477 25.4415 3.5837 25.2962 3.72901 25.278L5.40019 25.0781C5.54531 25.06 5.69081 25.1691 5.70881 25.3324L5.709 25.3326ZM3.51095 25.5868C3.52914 25.7139 3.65645 25.823 3.78358 25.8047L5.45456 25.605C5.58169 25.5868 5.67263 25.4597 5.65444 25.3326C5.63625 25.2053 5.50913 25.0963 5.382 25.1145L3.71083 25.3144C3.5837 25.3326 3.49295 25.4597 3.51095 25.5868Z" fill="white"/>
<path d="M7.72499 23.5704C7.72499 23.7159 7.61624 23.843 7.47074 23.843H3.67463C3.52932 23.843 3.42038 23.7159 3.42038 23.5706C3.42038 23.4253 3.52932 23.298 3.67463 23.298H7.47093C7.61624 23.298 7.72536 23.4253 7.72536 23.5706L7.72499 23.5704Z" fill="#E5E7E8"/>
<path d="M7.74338 23.5704C7.74338 23.7341 7.61607 23.861 7.47075 23.861H3.67463C3.52932 23.861 3.40219 23.7339 3.40219 23.5704C3.40219 23.4071 3.52932 23.2798 3.67463 23.2798H7.47094C7.61625 23.2798 7.74338 23.4071 7.74338 23.5704ZM3.43838 23.5524C3.43838 23.6795 3.54732 23.8066 3.67463 23.8066H7.47075C7.59788 23.8066 7.707 23.6977 7.707 23.5524C7.707 23.4253 7.59788 23.298 7.47075 23.298H3.67463C3.5475 23.3162 3.43857 23.4253 3.43857 23.5524H3.43838Z" fill="white"/>
<path d="M5.70901 21.736C5.69064 21.8813 5.5817 21.9902 5.43639 21.9902L3.74701 21.8631C3.60189 21.8449 3.49295 21.7178 3.51095 21.5725C3.52914 21.4272 3.63826 21.3182 3.78358 21.3182L5.47276 21.4454C5.59989 21.4635 5.70901 21.5907 5.70901 21.736Z" fill="#E2E2E2"/>
<path d="M5.72702 21.736C5.70883 21.8995 5.58171 22.0084 5.4364 22.0084L3.74701 21.8813C3.60189 21.8631 3.47476 21.736 3.49295 21.5725C3.51095 21.4092 3.63826 21.3 3.78358 21.3L5.47277 21.4272C5.61808 21.4454 5.72702 21.5907 5.72702 21.736ZM3.51095 21.5725C3.49295 21.6996 3.60189 21.8269 3.72901 21.8269L5.4184 21.9541C5.54533 21.9541 5.65446 21.8631 5.67265 21.7178C5.69083 21.5907 5.58171 21.4635 5.45458 21.4635L3.7652 21.3364C3.63826 21.3364 3.52914 21.4454 3.51095 21.5727V21.5725Z" fill="white"/>
<path d="M8.05199 20.4099C8.01562 20.5552 7.88849 20.6462 7.74318 20.628L4.01963 19.8651C3.87432 19.8287 3.78338 19.7016 3.81976 19.5563C3.85613 19.411 3.98326 19.32 4.12857 19.3384L7.85231 20.0831C7.97943 20.1193 8.07018 20.2646 8.05199 20.4099Z" fill="#E5E7E8"/>
<path d="M8.07016 20.4099C8.03379 20.5734 7.88847 20.6643 7.74316 20.6462L4.01961 19.9014C3.8743 19.865 3.76536 19.7197 3.80174 19.5564C3.83792 19.3927 3.98324 19.302 4.12855 19.3202L7.85229 20.0649C7.9976 20.1013 8.08835 20.2466 8.07016 20.4099ZM3.83792 19.5562C3.81974 19.6834 3.8923 19.8105 4.01961 19.8469L7.74335 20.5916C7.87047 20.6098 7.9976 20.5372 8.03397 20.3917C8.05197 20.2646 7.97941 20.1375 7.8521 20.1011L4.12874 19.3565C3.98342 19.3384 3.87449 19.4291 3.83811 19.5562H3.83792Z" fill="white"/>
<path d="M6.41738 18.2305C6.40904 18.2651 6.39397 18.2977 6.37302 18.3265C6.35207 18.3552 6.32565 18.3796 6.29528 18.3981C6.26491 18.4167 6.23118 18.429 6.19602 18.4345C6.16086 18.44 6.12497 18.4386 6.09038 18.4302L4.45557 17.9761C4.31026 17.9397 4.2377 17.7944 4.27388 17.6491C4.28222 17.6145 4.2973 17.5819 4.31825 17.5531C4.3392 17.5243 4.36562 17.5 4.39599 17.4814C4.42636 17.4629 4.46009 17.4505 4.49524 17.445C4.5304 17.4395 4.5663 17.441 4.60088 17.4494L6.2357 17.9035C6.38101 17.9397 6.45357 18.085 6.41738 18.2303V18.2305Z" fill="#E5E7E8"/>
<path d="M6.43538 18.2305C6.3992 18.3756 6.2357 18.4847 6.09038 18.4301L4.45558 17.976C4.31026 17.9397 4.21933 17.7762 4.2557 17.631C4.29208 17.4856 4.45558 17.3766 4.60089 17.4312L6.2357 17.8853C6.38101 17.9217 6.47195 18.067 6.43538 18.2303V18.2305ZM4.31026 17.6307C4.27389 17.758 4.34664 17.9033 4.47376 17.9395L6.10857 18.3936C6.2357 18.43 6.36282 18.3572 6.3992 18.2119C6.43538 18.0848 6.36282 17.9395 6.2357 17.9033L4.60089 17.4492C4.47376 17.431 4.34664 17.5036 4.31026 17.6309V17.6307Z" fill="white"/>
<path d="M8.97846 17.3586C8.92409 17.5037 8.7604 17.5583 8.63346 17.5037L5.12756 16.0506C5.00043 15.9962 4.92787 15.8327 4.98224 15.7056C5.03681 15.5603 5.20031 15.5057 5.32743 15.5603L8.83315 17.0134C8.97846 17.0678 9.03302 17.2313 8.97846 17.3584V17.3586Z" fill="#E5E7E8"/>
<path d="M8.99665 17.3766C8.97005 17.4464 8.91686 17.5028 8.84875 17.5334C8.78063 17.5641 8.70315 17.5665 8.63327 17.5401L5.12757 16.087C4.98226 16.0326 4.92788 15.8691 4.98226 15.7056C5.00886 15.6358 5.06204 15.5794 5.13016 15.5488C5.19827 15.5181 5.27576 15.5157 5.34563 15.5421L8.85133 16.9952C8.99665 17.0678 9.05102 17.2315 8.99665 17.3766ZM5.01863 15.7238C4.96426 15.8509 5.01863 15.9962 5.14576 16.0506L8.65146 17.5037C8.77858 17.5583 8.90571 17.4855 8.96027 17.3584C9.01465 17.2313 8.96027 17.086 8.83315 17.0316L5.32745 15.5785C5.20032 15.5421 5.05501 15.5967 5.01863 15.7238Z" fill="white"/>
<path d="M7.79774 14.9063C7.72518 15.0334 7.57987 15.088 7.45274 15.0334L5.94506 14.2706C5.81793 14.2161 5.76337 14.0526 5.83612 13.9072C5.90868 13.7801 6.05399 13.7255 6.18112 13.7801L7.68862 14.5431C7.81593 14.6156 7.87049 14.7793 7.79774 14.9063Z" fill="#E5E7E8"/>
<path d="M7.81591 14.9245C7.74316 15.0698 7.57966 15.1243 7.43435 15.0516L5.92685 14.2886C5.78154 14.2161 5.72698 14.0526 5.79973 13.9073C5.87229 13.7619 6.03598 13.7074 6.1811 13.7801L7.6886 14.5431C7.8341 14.5975 7.88847 14.7793 7.81591 14.9245ZM5.8541 13.9254C5.79973 14.0526 5.8361 14.1979 5.96323 14.2525L7.47072 15.0154C7.57985 15.0698 7.72516 15.0154 7.79772 14.9063C7.8521 14.7791 7.81591 14.6338 7.68878 14.5793L6.16273 13.8167C6.05379 13.7623 5.90848 13.7985 5.85392 13.9256L5.8541 13.9254Z" fill="white"/>
<path d="M10.4677 14.5611C10.377 14.6884 10.2317 14.7248 10.1046 14.6339L6.96207 12.5451C6.83513 12.4724 6.81694 12.3089 6.8895 12.1817C6.96225 12.0546 7.12575 12.0182 7.25288 12.109L10.4134 14.2161C10.5223 14.2889 10.5587 14.4524 10.4677 14.5611Z" fill="#E5E7E8"/>
<path d="M10.4859 14.5792C10.3952 14.7065 10.2135 14.7427 10.0865 14.6702L6.94406 12.563C6.81693 12.4723 6.78056 12.3088 6.87131 12.1637C6.96224 12.0363 7.14393 12 7.27105 12.0727L10.4134 14.1797C10.5587 14.2706 10.5769 14.4521 10.4859 14.5792ZM6.90768 12.1817C6.83512 12.2906 6.85331 12.4541 6.96206 12.5267L10.1227 14.634C10.2317 14.7067 10.377 14.6703 10.4497 14.5614C10.5223 14.4523 10.5041 14.2888 10.3954 14.2162L7.23449 12.1091C7.12555 12.0363 6.98024 12.0727 6.90749 12.1817H6.90768Z" fill="white"/>
<path d="M9.79578 11.9274C9.70503 12.0363 9.54153 12.0727 9.43259 11.9818L8.10658 10.9466C7.99764 10.8557 7.97945 10.6922 8.0702 10.5832C8.16095 10.4743 8.32446 10.4379 8.43358 10.5288L9.7594 11.564C9.86853 11.655 9.88672 11.8183 9.79578 11.9274Z" fill="#E5E7E8"/>
<path d="M9.81391 11.9455C9.72316 12.0728 9.54147 12.091 9.41435 12L8.08837 10.9649C7.96124 10.8741 7.94305 10.6924 8.03399 10.5655C8.12474 10.4382 8.30643 10.42 8.43336 10.5109L9.75935 11.5461C9.88666 11.6371 9.90484 11.8185 9.81391 11.9459V11.9455ZM8.07018 10.5833C7.97943 10.6922 7.99762 10.8376 8.10655 10.9283L9.43254 11.9639C9.54147 12.0364 9.68678 12.0182 9.77753 11.9093C9.86847 11.8004 9.85028 11.6551 9.74135 11.5643L8.41536 10.5287C8.30643 10.4562 8.16093 10.4744 8.07037 10.5833H8.07018Z" fill="white"/>
<path d="M12.5021 12.109C12.3934 12.2181 12.2297 12.2181 12.1389 12.109L9.43274 9.43896C9.3238 9.33002 9.3418 9.16652 9.43274 9.07558C9.54168 8.96683 9.70518 8.96683 9.79593 9.07558L12.4843 11.7458C12.5932 11.8365 12.5932 12.0182 12.5025 12.1092L12.5021 12.109Z" fill="#E5E7E8"/>
<path d="M12.5021 12.1273C12.4488 12.1797 12.3771 12.209 12.3024 12.209C12.2277 12.209 12.156 12.1797 12.1028 12.1273L9.41417 9.45696C9.36173 9.40365 9.33234 9.33186 9.33234 9.25708C9.33234 9.1823 9.36173 9.11052 9.41417 9.05721C9.46747 9.00482 9.53922 8.97546 9.61396 8.97546C9.68869 8.97546 9.76044 9.00482 9.81374 9.05721L12.5021 11.7274C12.6293 11.8363 12.6293 12.018 12.5021 12.1269V12.1273ZM9.45092 9.09358C9.35999 9.18452 9.35999 9.34802 9.45092 9.43858L12.1391 12.1088C12.2301 12.1997 12.3934 12.1997 12.4841 12.1088C12.5751 12.018 12.5751 11.8545 12.4841 11.7638L9.79593 9.07558C9.70518 8.98483 9.55967 8.98483 9.45092 9.09377V9.09358Z" fill="white"/>
<path d="M12.3388 9.40263C12.2299 9.49357 12.0664 9.49357 11.9754 9.38445L10.8673 8.11301C10.7768 8.00407 10.7948 7.84057 10.9039 7.74982C11.0126 7.65888 11.1763 7.65888 11.2671 7.76782L12.3752 9.03945C12.4659 9.1302 12.4477 9.2937 12.3388 9.40263Z" fill="#E5E7E8"/>
<path d="M12.3571 9.40265C12.2299 9.51158 12.0664 9.49358 11.9573 9.38446L10.8493 8.11302C10.7404 8.00408 10.7586 7.82239 10.8857 7.71345C11.0128 7.60433 11.1763 7.62251 11.2853 7.73164L12.3934 9.0029C12.4842 9.13021 12.4842 9.3119 12.3571 9.40265ZM10.9039 7.74983C10.7948 7.84058 10.7948 7.98589 10.8675 8.09483L11.9757 9.36627C12.0664 9.45721 12.2117 9.4754 12.3207 9.38446C12.4296 9.29371 12.4296 9.14821 12.3571 9.03946L11.2489 7.76783C11.1581 7.65908 11.0126 7.65908 10.9039 7.74983Z" fill="white"/>
<path d="M14.9544 10.0929C14.8273 10.1837 14.6638 10.1473 14.591 10.0202L12.4659 6.87768C12.3932 6.75056 12.4296 6.58706 12.5385 6.51449C12.6656 6.42374 12.8291 6.46012 12.9019 6.58724L15.0088 9.72954C15.0997 9.85667 15.0633 10.0202 14.9544 10.0927V10.0929Z" fill="#E5E7E8"/>
<path d="M14.9544 10.111C14.8273 10.202 14.6456 10.1654 14.5547 10.0385L12.4477 6.89595C12.357 6.76882 12.3934 6.58732 12.5385 6.49657C12.6656 6.40563 12.8473 6.44201 12.9382 6.56913L15.0452 9.71146C15.1359 9.85677 15.0995 10.0203 14.9544 10.111ZM12.5565 6.53276C12.4476 6.60532 12.4112 6.75063 12.4839 6.85976L14.5909 10.0021C14.6636 10.111 14.8089 10.1292 14.9359 10.0565C15.045 9.9839 15.0814 9.83858 15.0086 9.72965L12.9019 6.60532C12.8291 6.49657 12.6656 6.46001 12.5569 6.53276H12.5565Z" fill="white"/>
<path d="M15.3358 7.40457C15.2087 7.47713 15.0452 7.44095 14.9726 7.31382L14.1369 5.84251C14.0644 5.71538 14.1187 5.55188 14.2461 5.47913C14.3732 5.40657 14.5367 5.44276 14.6093 5.57007L15.4448 7.0412C15.4993 7.16832 15.4629 7.33182 15.336 7.40457H15.3358Z" fill="#E5E7E8"/>
<path d="M15.3358 7.42274C15.1905 7.4953 15.027 7.45911 14.9545 7.3318L14.1187 5.86069C14.0462 5.73338 14.0826 5.55188 14.2279 5.47913C14.3732 5.40657 14.5367 5.44276 14.6093 5.57007L15.4448 7.04118C15.5175 7.1683 15.4812 7.3318 15.336 7.42274H15.3358ZM14.2461 5.49732C14.1369 5.56988 14.0826 5.71519 14.1551 5.82432L14.9908 7.29561C15.0634 7.40436 15.2087 7.44092 15.3177 7.38636C15.4268 7.3138 15.4812 7.1683 15.4086 7.05937L14.5729 5.58807C14.5185 5.47932 14.355 5.42457 14.2461 5.49732Z" fill="white"/>
<path d="M17.7516 8.60346C17.6064 8.65783 17.4609 8.60346 17.4066 8.47633L15.9352 4.97043C15.8809 4.8433 15.9534 4.6798 16.0806 4.62524C16.2259 4.57086 16.3712 4.62524 16.4256 4.75237L17.8969 8.25808C17.9514 8.38521 17.8789 8.54871 17.7516 8.60308V8.60346Z" fill="#E5E7E8"/>
<path d="M17.7515 8.62162C17.6064 8.67599 17.4429 8.62161 17.3702 8.47611L15.8989 4.9706C15.8725 4.90073 15.8749 4.82324 15.9055 4.75512C15.9362 4.68701 15.9926 4.63383 16.0624 4.60723C16.2077 4.55285 16.3712 4.60723 16.4439 4.75254L17.915 8.25824C17.9696 8.38536 17.897 8.54887 17.7517 8.62162H17.7515ZM16.0987 4.6436C15.9716 4.69798 15.9171 4.84348 15.9716 4.95241L17.4427 8.45793C17.4971 8.58505 17.6424 8.63943 17.7695 8.58505C17.8966 8.53068 17.9514 8.38518 17.8966 8.27624L16.4255 4.77054C16.3528 4.64341 16.2257 4.58885 16.0986 4.64341L16.0987 4.6436Z" fill="white"/>
<path d="M18.6416 6.0242C18.4963 6.07857 18.351 6.00582 18.2966 5.8607L17.7697 4.26205C17.7154 4.13492 17.8061 3.97142 17.9332 3.93523C18.0604 3.89886 18.2239 3.95342 18.2782 4.09873L18.8051 5.69719C18.8595 5.82432 18.7869 5.96964 18.6416 6.02401V6.0242Z" fill="#E5E7E8"/>
<path d="M18.6598 6.04218C18.59 6.06851 18.5125 6.06609 18.4445 6.03544C18.3764 6.0048 18.3232 5.94843 18.2966 5.87868L17.7697 4.28025C17.7154 4.13493 17.8061 3.97162 17.9516 3.91706C18.0215 3.89073 18.0989 3.89315 18.167 3.9238C18.2351 3.95444 18.2882 4.01081 18.3148 4.08056L18.8415 5.679C18.8779 5.82431 18.8052 5.98781 18.6598 6.04218ZM17.9514 3.95343C17.8243 3.98962 17.7516 4.13493 17.7879 4.26206L18.3148 5.86068C18.351 5.98781 18.4963 6.04218 18.6236 6.00581C18.7508 5.96962 18.8233 5.82431 18.787 5.69718L18.2603 4.09856C18.251 4.06772 18.2354 4.03918 18.2143 4.0148C18.1933 3.99041 18.1674 3.97072 18.1383 3.95702C18.1091 3.94331 18.0774 3.93589 18.0453 3.93524C18.0131 3.93459 17.9811 3.94072 17.9514 3.95325V3.95343Z" fill="white"/>
<path d="M20.7851 7.67703C20.6398 7.71341 20.4945 7.62266 20.4763 7.47716L19.7134 3.75361C19.677 3.6083 19.7861 3.48117 19.9312 3.4448C20.0767 3.40842 20.2219 3.49917 20.2401 3.64467L21.0032 7.36841C21.0212 7.49535 20.9304 7.64066 20.7851 7.67703Z" fill="#E5E7E8"/>
<path d="M20.7851 7.69523C20.6216 7.73161 20.4763 7.62248 20.4399 7.47717L19.677 3.75361C19.6406 3.60829 19.7498 3.44479 19.8951 3.42661C20.0586 3.39023 20.2039 3.49936 20.2401 3.64467L21.0032 7.36842C21.0394 7.51354 20.9486 7.65904 20.7851 7.69523ZM19.9314 3.46298C19.8041 3.48117 19.7134 3.60829 19.7316 3.75361L20.4945 7.47736C20.5127 7.60429 20.6578 7.69523 20.7851 7.65886C20.9123 7.64067 21.003 7.51354 20.9848 7.36823L20.2219 3.64448C20.1857 3.51754 20.0586 3.44479 19.9313 3.46298H19.9314Z" fill="white"/>
<path d="M22.1656 5.31568C22.0203 5.33386 21.8931 5.24311 21.8568 5.0978L21.6389 3.4266C21.6207 3.28129 21.7296 3.15416 21.8751 3.13597C22.0203 3.11779 22.1474 3.20872 22.1837 3.35404L22.4016 5.02505C22.4198 5.17036 22.3109 5.29749 22.1656 5.31568Z" fill="#E5E7E8"/>
<path d="M22.1655 5.33385C22.0021 5.35204 21.8567 5.2431 21.8386 5.0976L21.6207 3.4266C21.6025 3.28129 21.7114 3.13598 21.8749 3.11779C22.0384 3.09979 22.1837 3.20873 22.2019 3.35404L22.4198 5.02504C22.438 5.17035 22.329 5.31566 22.1655 5.33385ZM21.8931 3.15417C21.766 3.17235 21.6569 3.29948 21.6751 3.4266L21.8931 5.09779C21.9113 5.22491 22.0384 5.31566 22.1655 5.29747C22.2927 5.27947 22.4018 5.15216 22.3836 5.02504L22.1655 3.35404C22.1474 3.22692 22.0202 3.13598 21.8931 3.15417Z" fill="white"/>
<path d="M24.1273 45.1131C36.0049 45.1131 45.6336 35.4844 45.6336 23.6068C45.6336 11.7293 36.0049 2.10059 24.1273 2.10059C12.2497 2.10059 2.62106 11.7293 2.62106 23.6068C2.62106 35.4844 12.2497 45.1131 24.1273 45.1131Z" fill="url(#paint2_linear_734_5097)" fill-opacity="0.2"/>
<g filter="url(#filter1_d_734_5097)">
<path d="M39.0217 9.96558L21.675 21.0821H21.6568V21.1001L21.6386 21.1183L10.8131 38.9737L26.7247 26.168L26.7429 26.15V26.1318L39.0219 9.96576L39.0217 9.96558Z" fill="black" fill-opacity="0.05"/>
</g>
<path d="M38.6948 8.9303L21.5479 21.1183L26.6338 26.1679L38.6948 8.9303Z" fill="#CD151E"/>
<path d="M21.5661 21.0821L24.1273 23.6068L38.6947 8.9303L21.5661 21.0821Z" fill="#FA5153"/>
<path d="M21.5661 21.0821L26.652 26.1315L9.50513 38.3197L21.5661 21.0819V21.0821Z" fill="#ACACAC"/>
<path d="M9.50513 38.3197L24.1271 23.6068L21.5659 21.0819L9.50513 38.3197Z" fill="#EEEEEE"/>
</g>
<defs>
<filter id="filter0_d_734_5097" x="-38.3125" y="-19.1562" width="124.625" height="124.625" filterUnits="userSpaceOnUse" color-interpolation-filters="sRGB">
<feFlood flood-opacity="0" result="BackgroundImageFix"/>
<feColorMatrix in="SourceAlpha" type="matrix" values="0 0 0 0 0 0 0 0 0 0 0 0 0 0 0 0 0 0 127 0" result="hardAlpha"/>
<feOffset dy="19.5312"/>
<feGaussianBlur stdDeviation="19.5312"/>
<feColorMatrix type="matrix" values="0 0 0 0 0 0 0 0 0 0 0 0 0 0 0 0 0 0 0.266007 0"/>
<feBlend mode="normal" in2="BackgroundImageFix" result="effect1_dropShadow_734_5097"/>
<feBlend mode="normal" in="SourceGraphic" in2="effect1_dropShadow_734_5097" result="shape"/>
</filter>
<filter id="filter1_d_734_5097" x="-28.2494" y="-19.3313" width="106.334" height="107.133" filterUnits="userSpaceOnUse" color-interpolation-filters="sRGB">
<feFlood flood-opacity="0" result="BackgroundImageFix"/>
<feColorMatrix in="SourceAlpha" type="matrix" values="0 0 0 0 0 0 0 0 0 0 0 0 0 0 0 0 0 0 127 0" result="hardAlpha"/>
<feOffset dy="9.76562"/>
<feGaussianBlur stdDeviation="19.5312"/>
<feColorMatrix type="matrix" values="0 0 0 0 0 0 0 0 0 0 0 0 0 0 0 0 0 0 1 0"/>
<feBlend mode="normal" in2="BackgroundImageFix" result="effect1_dropShadow_734_5097"/>
<feBlend mode="normal" in="SourceGraphic" in2="effect1_dropShadow_734_5097" result="shape"/>
</filter>
<linearGradient id="paint0_linear_734_5097" x1="24" y1="46.875" x2="24" y2="0.375" gradientUnits="userSpaceOnUse">
<stop offset="0.25" stop-color="#DBDBDA"/>
<stop offset="1" stop-color="white"/>
</linearGradient>
<radialGradient id="paint1_radial_734_5097" cx="0" cy="0" r="1" gradientUnits="userSpaceOnUse" gradientTransform="translate(27.0216 18.901) scale(26.2514)">
<stop stop-color="#2ABCE1"/>
<stop offset="0.11363" stop-color="#2ABBE1"/>
<stop offset="1" stop-color="#3375F8"/>
</radialGradient>
<linearGradient id="paint2_linear_734_5097" x1="23.7187" y1="17.4573" x2="13.6809" y2="35.4662" gradientUnits="userSpaceOnUse">
<stop stop-opacity="0"/>
<stop offset="1"/>
</linearGradient>
<clipPath id="clip0_734_5097">
<path d="M0 24C0 10.7452 10.7452 0 24 0C37.2548 0 48 10.7452 48 24C48 37.2548 37.2548 48 24 48C10.7452 48 0 37.2548 0 24Z" fill="white"/>
</clipPath>
</defs>
</svg>
